<svg id="Слой_1" data-name="Слой 1" xmlns="http://www.w3.org/2000/svg" viewBox="0 0 32 32"><defs><style>.cls-1{fill:#374dff;}</style></defs><path class="cls-1" d="M28.77,19.41a6.62,6.62,0,0,1-1.18,0A7.28,7.28,0,0,1,26,19.12a12.68,12.68,0,0,0,1.91-5.57,6.14,6.14,0,0,0-.15-2.34,5.36,5.36,0,0,0-3.22-3.52A5.06,5.06,0,0,0,21,7.84a5.73,5.73,0,0,0-3.08,3.37,5.71,5.71,0,0,0-.14,2.49,10.85,10.85,0,0,0,2.78,6,.3.3,0,0,1,.08.08,8.81,8.81,0,0,1-9.2-.08,10.85,10.85,0,0,0,2.78-6,5.71,5.71,0,0,0-.14-2.49A5.73,5.73,0,0,0,11,7.84a5.06,5.06,0,0,0-3.52-.15,5.36,5.36,0,0,0-3.22,3.52,6.14,6.14,0,0,0-.15,2.34A12.68,12.68,0,0,0,6,19.12a7.28,7.28,0,0,1-1.61.29,6.62,6.62,0,0,1-1.18,0L2.5,22.64a10.43,10.43,0,0,0,3.08,0,10.62,10.62,0,0,0,2.93-.87,11.88,11.88,0,0,0,7.42,2.79,11.92,11.92,0,0,0,7.67-2.74,10.65,10.65,0,0,0,2.82.82,10.43,10.43,0,0,0,3.08,0ZM9.09,17.25,9,17.4a8.45,8.45,0,0,1-1.47-3.52,3,3,0,0,1,.3-2.35A1.62,1.62,0,0,1,8.51,11a1.77,1.77,0,0,1,1.76.29,2,2,0,0,1,.58,1.32C11.11,14.56,9.55,16.66,9.09,17.25Zm14,0L23,17.4A8.37,8.37,0,0,1,21.24,14a3,3,0,0,1,.1-2.36A1.68,1.68,0,0,1,22,11a1.75,1.75,0,0,1,1.77.14,2,2,0,0,1,.69,1.27C24.91,14.4,23.53,16.62,23.12,17.24Z"/></svg>