<svg id="Слой_1" data-name="Слой 1" xmlns="http://www.w3.org/2000/svg" viewBox="0 0 421.99 421.99"><defs><style>.cls-1{fill:#374dff;}</style></defs><path class="cls-1" d="M657.33,739a7.32,7.32,0,0,1-7.32-7.32V623a68.5,68.5,0,0,1,68.42-68.42h33.42v-12.9l-1-.75a68.73,68.73,0,0,1-24.32-37.72l-.44-1.84-1.88-.06a27.54,27.54,0,0,1-20.49-45l.55-.68V432.93a88.79,88.79,0,1,1,177.58,0v22.75l.56.68a27.54,27.54,0,0,1-20.5,45l-1.88.06-.44,1.84A68.73,68.73,0,0,1,835.32,541l-.94.75v12.9H975.79l.27-2.16a20.9,20.9,0,0,1,41.63,2.69v13.05h2.86a31.08,31.08,0,1,1,0,62.16H895.48V731.66a7.32,7.32,0,0,1-7.32,7.32ZM807.48,637.84l12.35,86.5h61V595.88a.53.53,0,0,1,.53-.53H895a.53.53,0,0,1,.53.53v19.84h80.41V569.25H859.49l-18.71,56.1a7.31,7.31,0,0,1-10.2,4.23L815.4,622Zm-26.29,86.5H805L795.57,658h-4.91Zm-76.34-95.05a.53.53,0,0,1,.53.53v94.52h61l12.36-86.5L770.82,622l-15.17,7.59a7.41,7.41,0,0,1-3.27.77,7.11,7.11,0,0,1-2.8-.56,7.32,7.32,0,0,1-4.14-4.45l-18.7-56.09h-8.31A53.84,53.84,0,0,0,664.65,623V724.34h26.1V629.82a.52.52,0,0,1,.52-.53Zm79.07-13.85,6.93,13.85h4.53l6.92-13.85-9.19-4.59Zm212.87-66.56a6.27,6.27,0,0,0-6.26,6.26v60.58h30a16.45,16.45,0,1,0,0-32.89h-10.18a7.33,7.33,0,0,1-7.32-7.32V555.14A6.27,6.27,0,0,0,996.79,548.88ZM804.65,600.25l24.92,12.46,14.5-43.46H830.49Zm-48,12.46,24.92-12.46-25.84-31H742.16Zm9.83-53.43,26.63,32,26.63-32v-8.95l-3.33,1.22a67.94,67.94,0,0,1-46.6,0l-3.33-1.22Zm-27.15-72a53.79,53.79,0,0,0,107.57,0V453.31l-2-.4a48.86,48.86,0,0,1-29.13-18.31l-2.28-3.06-2.3,3.06a48.29,48.29,0,0,1-38.45,19.23H739.33Zm122.2-.12,3.19-.95a13,13,0,0,0,0-25l-3.19-1Zm-140-26a13,13,0,0,0,0,25l3.18.95V460.21Zm92-49a7.27,7.27,0,0,1,5.85,2.77l8.15,10.86a33.58,33.58,0,0,0,26.74,13.37,7.38,7.38,0,0,1,7,5.17l.48,1.57,1.64.17,1.1.14,2.83.41V432.93a74.15,74.15,0,1,0-148.3,0v13.72l2.83-.41,1.11-.14,1.63-.17.48-1.57a7.39,7.39,0,0,1,7-5.17h40.73a33.57,33.57,0,0,0,26.74-13.36L807.63,415A7.28,7.28,0,0,1,813.48,412.19Z" transform="translate(-650.01 -316.99)"/><path class="cls-1" d="M983.21,494.57A88.79,88.79,0,1,1,1072,405.78,88.89,88.89,0,0,1,983.21,494.57Zm0-162.95a74.16,74.16,0,1,0,74.15,74.16A74.24,74.24,0,0,0,983.21,331.62Z" transform="translate(-650.01 -316.99)"/><path class="cls-1" d="M969.63,440.25a7.3,7.3,0,0,1-5.17-2.14L937.3,411a.51.51,0,0,1-.15-.37.52.52,0,0,1,.15-.38l9.6-9.6a.56.56,0,0,1,.38-.15.54.54,0,0,1,.37.15l22,22,49.14-49.14a.53.53,0,0,1,.37-.16.52.52,0,0,1,.38.16l9.6,9.59a.55.55,0,0,1,.15.38.51.51,0,0,1-.15.37l-54.31,54.32A7.31,7.31,0,0,1,969.63,440.25Z" transform="translate(-650.01 -316.99)"/></svg>