<svg id="Слой_1" data-name="Слой 1" xmlns="http://www.w3.org/2000/svg" viewBox="0 0 342.06 355.33"><defs><style>.cls-1{fill:#374dff;}</style></defs><path class="cls-1" d="M553,703.78H425.61V454.38h37V490a6.94,6.94,0,0,0,13.88,0v-35.6h94.77V490a6.94,6.94,0,0,0,13.88,0v-35.6H621v72.7a6.94,6.94,0,0,0,13.88,0V447.44a6.94,6.94,0,0,0-6.94-6.94H585.12V423.3a61.33,61.33,0,0,0-83.22-56.92,61.34,61.34,0,0,0-83.23,56.92v17.2H375.91a6.94,6.94,0,0,0-6.94,6.94V684.75a33,33,0,0,0,33,32.91H576.72A27.13,27.13,0,0,1,553,703.78ZM523.86,376.22a47.28,47.28,0,0,1,47.38,47.08v17.2h-30V423.3a60.74,60.74,0,0,0-22.1-46.85A46.83,46.83,0,0,1,523.86,376.22Zm-22,5.36a47.1,47.1,0,0,1,25.42,41.72v17.2H476.47V423.3A47.11,47.11,0,0,1,501.9,381.58ZM432.55,423.3a47.48,47.48,0,0,1,52.15-46.85,60.75,60.75,0,0,0-22.11,46.85v17.2h-30ZM411.73,703.78h-9.8a19.07,19.07,0,0,1-19.08-19V454.38h28.88Z" transform="translate(-368.97 -362.34)"/><path class="cls-1" d="M678,717.66H576.72a33,33,0,0,1-33-33V557.34a5.86,5.86,0,0,1,5.86-5.86H705.17a5.86,5.86,0,0,1,5.86,5.86v127.3A33.05,33.05,0,0,1,678,717.66ZM555.41,563.19V684.64A21.34,21.34,0,0,0,576.72,706H678a21.33,21.33,0,0,0,21.3-21.31V563.19Z" transform="translate(-368.97 -362.34)"/><path class="cls-1" d="M657.12,604.5a6.94,6.94,0,0,1-6.94-6.94V559.09a22.92,22.92,0,0,0-45.84,0v38.47a6.94,6.94,0,0,1-13.88,0V559.09a36.8,36.8,0,0,1,73.6,0v38.47a6.94,6.94,0,0,1-6.94,6.94Zm0,0" transform="translate(-368.97 -362.34)"/></svg>