<svg id="Слой_1" data-name="Слой 1" xmlns="http://www.w3.org/2000/svg" viewBox="0 0 338.22 330.78"><defs><style>.cls-1{fill:#fff;fill-rule:evenodd;}</style></defs><path class="cls-1" d="M1112.5,653.33c0-12-7.16-19.13-19.11-19.13h-14c-7,.47-10.13,4-10.13,11.54V673.1h24.51C1107.59,673.1,1112.5,662.45,1112.5,653.33Z" transform="translate(-942.83 -523.22)"/><path class="cls-1" d="M1096.55,698.16H1078c-6,.82-8.65,4.45-8.65,11.41v32.57l27.24,0h0c13.47,0,21.83-8.24,21.83-22.13C1118.38,706.51,1109.8,698.16,1096.55,698.16Z" transform="translate(-942.83 -523.22)"/><path class="cls-1" d="M1281.06,586.73a63.55,63.55,0,0,0-63.52-63.51H1006.36a63.55,63.55,0,0,0-63.53,63.51V790.49c0,.39,0,.77,0,1.16V854h274.69a63.56,63.56,0,0,0,63.52-63.51ZM1094.3,769.56h-56.15v-145a17.09,17.09,0,0,1,16.47-16.88h4v0h35c30.67,0,50.49,16.48,50.49,42,0,16.69-8.38,26.36-13.39,30.66l-4.3,3.68,4.92,2.76h0c12,6.73,19.07,20,19.07,35.44C1150.4,751,1128.39,769.56,1094.3,769.56Zm90.66,0A20,20,0,0,1,1165,749.52h0A20,20,0,1,1,1185,769.57Z" transform="translate(-942.83 -523.22)"/></svg>