<svg id="Слой_1" data-name="Слой 1" xmlns="http://www.w3.org/2000/svg" viewBox="0 0 413.63 350.45"><defs><style>.cls-1,.cls-2{fill:#374dff;}.cls-2{opacity:0.5;}</style></defs><path class="cls-1" d="M409,500.84" transform="translate(-333.18 -364.78)"/><path class="cls-2" d="M721,615.94" transform="translate(-333.18 -364.78)"/><path class="cls-1" d="M741.55,663.6a15,15,0,0,0-11-3.52H684.09a95.78,95.78,0,0,0,42.53-35.94,13.08,13.08,0,0,0,.75-12c-.45-1-1-2.27-1.65-3.62a126,126,0,0,0,18-38.82,143.24,143.24,0,0,0,2.15-45.76,16.81,16.81,0,0,0-11.23-14.07c-7-33.54-16.39-38.89-19.57-40.66a15.29,15.29,0,0,0-13.27-.94c-17.06,6.5-17.13,21.75-17.18,35.2,0,3.22-.11,6.5-.31,9.79a19.58,19.58,0,0,0-14.12,12.86,46.75,46.75,0,0,1-5.68,11.35,84.83,84.83,0,0,0-8.77-4,12.63,12.63,0,0,0-8.84,0l-35.39,13.52a12.86,12.86,0,0,0-6.56,5.69,97.31,97.31,0,0,0-4.42,9.21,45.76,45.76,0,0,1-5.41-2V480.88a13.79,13.79,0,0,0-13.79-13.79H415.93a13.78,13.78,0,0,0-13.79,13.79v9.38a77.32,77.32,0,0,0-19.51-2.49A44.48,44.48,0,0,0,347.69,503a6,6,0,0,0-1,1.33,61.86,61.86,0,0,0-11.32,26.84,150.42,150.42,0,0,0-2.19,28.74c0,39.91,19.4,65.69,49.42,65.69a87.43,87.43,0,0,0,23.52-3.37,75.25,75.25,0,0,0,28.13,37.83H377a15,15,0,0,0-16.19,13.79v13.79c0,15.46,15.29,27.56,34.81,27.56H712c19.52,0,34.81-12.1,34.81-27.56V673.87A15,15,0,0,0,741.55,663.6ZM382.63,611.83c-22.31,0-35.63-19.4-35.63-51.9a136.79,136.79,0,0,1,1.94-26.11,48.55,48.55,0,0,1,9.3-21.93,30.54,30.54,0,0,1,24.39-10.34,62.39,62.39,0,0,1,19.51,3V519.4a46,46,0,0,0-19.51-4.06c-20.18,0-21.84,21.1-21.84,44.59,0,23.87,8.16,38.12,21.84,38.12a60.34,60.34,0,0,0,19.51-3.45v3.45a74.58,74.58,0,0,0,.87,10.76A74,74,0,0,1,382.63,611.83Zm19.51-76.33v44.44a49.33,49.33,0,0,1-19.51,4.33c-5.23,0-8.06-12.55-8.06-24.34,0-30.81,4.66-30.81,8.06-30.81A29.38,29.38,0,0,1,402.14,535.5Zm296.31-32.08c0-14.27.72-19.49,8.27-22.37a1.55,1.55,0,0,1,1.62.09c1.18.65,6.84,5,12,27.82-5.8.24-13.31.75-22.06,1.88C698.42,508.27,698.44,505.76,698.45,503.42Zm-15.09,26.83a5.89,5.89,0,0,1,4.62-3.89c1.28-.26,2.54-.45,3.94-.69a229,229,0,0,1,36.42-3.19h.45a3.21,3.21,0,0,1,3.41,2.75,129.1,129.1,0,0,1-1.83,41.13,104.06,104.06,0,0,1-12,27.91,157.72,157.72,0,0,0-42.12-49.63A60.36,60.36,0,0,0,683.36,530.25Zm-66.54,29.37h0l34.55-13.2c30.85,12.13,51.5,47.15,59.86,63.5a.66.66,0,0,0,.07.36,7.25,7.25,0,0,0,1,1.73c1.11,2.24,1.94,4,2.46,5.13-3.81,6.59-16.08,23.23-47.62,35.26a115.08,115.08,0,0,1-33.78,7.68h-9.09a54.11,54.11,0,0,1-14.16-2.55c-.4-1.69-.93-4-1.46-6.79C605.39,633.67,599.67,590.77,616.82,559.62Zm-34.66,8.87a55,55,0,0,0,13.89,6.31,171,171,0,0,0-2.76,67.36,91.58,91.58,0,0,1-25.86-13.41,118.54,118.54,0,0,1-25.87-30.39,4.14,4.14,0,0,1,1.24-5l.25-.25a245.77,245.77,0,0,1,30.27-22.27c1.1-.69,2.19-1.43,3.52-2.2A5.05,5.05,0,0,1,582.16,568.49Zm14.4,91.59H562.74a76.2,76.2,0,0,0,12.13-10.63A130.62,130.62,0,0,0,596,657.53C596.2,658.49,596.39,659.31,596.56,660.08ZM533.63,547.91a2.27,2.27,0,0,1,1.5-1.54c7.31-2.76,10.65.53,19.16,11.45,1.46,1.86,3,3.86,4.71,5.87-7.52,5.06-13.69,9.73-18.37,13.49v0C533.46,561.19,532.18,551.66,533.63,547.91ZM417.54,612a60,60,0,0,1-1.61-13.93V480.88H581.35v73.37a18.75,18.75,0,0,0-10.45,2.06c-2-2.27-3.91-4.62-5.74-7-7.81-10-17.51-22.49-34.93-15.85a16,16,0,0,0-9.45,9.41c-3.59,9.26-.46,23.84,9.37,44.33a17.32,17.32,0,0,0-.31,18.37,132.42,132.42,0,0,0,29.15,34c1.2.93,2.45,1.78,3.7,2.64a61.52,61.52,0,0,1-43.37,17.79H478A61.67,61.67,0,0,1,417.54,612ZM733,687.66c0,7.47-9.65,13.78-21,13.78H395.6c-11.38,0-21-6.31-21-13.78V674.5a4.35,4.35,0,0,1,2.41-.63h353.6a4.35,4.35,0,0,1,2.41.63Z" transform="translate(-333.18 -364.78)"/><path class="cls-1" d="M484.86,440.59a6.89,6.89,0,1,0,13.78,0A17.83,17.83,0,0,1,504,427.67a31.82,31.82,0,0,0,0-43.08,17.83,17.83,0,0,1-5.38-12.92,6.89,6.89,0,1,0-13.78,0,31.14,31.14,0,0,0,8.4,21.54,18.2,18.2,0,0,1,0,25.84,31.14,31.14,0,0,0-8.4,21.54Zm0,0" transform="translate(-333.18 -364.78)"/><path class="cls-1" d="M443.5,440.59a6.89,6.89,0,1,0,13.78,0,17.8,17.8,0,0,1,5.39-12.92,31.82,31.82,0,0,0,0-43.08,17.8,17.8,0,0,1-5.39-12.92,6.89,6.89,0,1,0-13.78,0,31.23,31.23,0,0,0,8.4,21.54,18.2,18.2,0,0,1,0,25.84,31.23,31.23,0,0,0-8.4,21.54Zm0,0" transform="translate(-333.18 -364.78)"/><path class="cls-1" d="M526.21,440.59a6.9,6.9,0,1,0,13.79,0,17.75,17.75,0,0,1,5.38-12.92,31.82,31.82,0,0,0,0-43.08A17.75,17.75,0,0,1,540,371.67a6.9,6.9,0,0,0-13.79,0,31.23,31.23,0,0,0,8.4,21.54,18.18,18.18,0,0,1,0,25.84,31.23,31.23,0,0,0-8.4,21.54Zm0,0" transform="translate(-333.18 -364.78)"/></svg>