<?xml version="1.0" encoding="utf-8"?>
<!-- Generator: Adobe Illustrator 24.1.2, SVG Export Plug-In . SVG Version: 6.00 Build 0)  -->
<svg version="1.1" id="Слой_1" xmlns="http://www.w3.org/2000/svg" xmlns:xlink="http://www.w3.org/1999/xlink" x="0px" y="0px"
	 viewBox="0 0 284.6 284.6" style="enable-background:new 0 0 284.6 284.6;" xml:space="preserve">
<style type="text/css">
	.st0{fill:#374DFF;}
</style>
<path class="st0" d="M247.9,22.2h-25.6V8.9c0-4.9-4-8.9-8.9-8.9s-8.9,4-8.9,8.9l0,0v13.3H80V8.9C80,4,76.1,0,71.1,0
	c-4.9,0-8.9,4-8.9,8.9v13.3H36.7C16.4,22.3,0,38.7,0,58.9v189c0,20.3,16.4,36.7,36.7,36.7h211.2c20.3,0,36.7-16.4,36.7-36.7v-189
	C284.6,38.7,268.2,22.3,247.9,22.2z M266.8,247.9c0,10.4-8.5,18.9-18.9,18.9h0H36.7c-10.4,0-18.9-8.5-18.9-18.9l0,0V100.6
	c0-1.5,1.2-2.8,2.8-2.8H264c1.5,0,2.8,1.2,2.8,2.8V247.9z"/>
</svg>
