<svg id="Слой_1" data-name="Слой 1" xmlns="http://www.w3.org/2000/svg" viewBox="0 0 544.27 550.24"><defs><style>.cls-1{fill:#374dff;}</style></defs><path class="cls-1" d="M758.21,503a9.65,9.65,0,0,1,0-19.3H963.3a9.65,9.65,0,0,1,0,19.3Z" transform="translate(-688.21 -289.76)"/><path class="cls-1" d="M758.21,559.25a9.65,9.65,0,0,1,0-19.29H963.3a9.65,9.65,0,1,1,0,19.29Z" transform="translate(-688.21 -289.76)"/><path class="cls-1" d="M758.21,615.55a9.65,9.65,0,0,1,0-19.3H963.3a9.65,9.65,0,0,1,0,19.3Z" transform="translate(-688.21 -289.76)"/><path class="cls-1" d="M758.21,671.85a9.65,9.65,0,0,1,0-19.3h205.1a9.65,9.65,0,0,1,0,19.3Z" transform="translate(-688.21 -289.76)"/><path class="cls-1" d="M758.21,754.34a9.65,9.65,0,0,1,0-19.29H861a9.65,9.65,0,1,1,0,19.29Z" transform="translate(-688.21 -289.76)"/><path class="cls-1" d="M729.49,840a41.32,41.32,0,0,1-41.28-41.27V413.64a41,41,0,0,1,12.09-29.18l82.6-82.6a41,41,0,0,1,29.19-12.1H1083.9A41.33,41.33,0,0,1,1125.18,331V437.7a9.65,9.65,0,0,1-19.3,0V331a22,22,0,0,0-22-22H812.08a21.3,21.3,0,0,0-3.44.29v71.59a29.29,29.29,0,0,1-29.26,29.25H707.79a21.49,21.49,0,0,0-.28,3.45V798.73a22,22,0,0,0,22,22H1083.9a22,22,0,0,0,22-22V787.94a9.65,9.65,0,0,1,19.3,0v10.79A41.33,41.33,0,0,1,1083.9,840Zm49.89-449.1a10,10,0,0,0,10-10V322.71L721.15,390.9Z" transform="translate(-688.21 -289.76)"/><path class="cls-1" d="M1154.34,780.85a18.57,18.57,0,0,1-9.77-2.76l-29-17.88-29,17.88a18.65,18.65,0,0,1-28.42-15.88V690.67a33.66,33.66,0,0,1-27.66-32.12,14.3,14.3,0,0,0-9.52-13.09,33.68,33.68,0,0,1-16.46-50.65,14.28,14.28,0,0,0,0-16.19A33.67,33.67,0,0,1,1020.9,528a14.3,14.3,0,0,0,9.52-13.1A33.68,33.68,0,0,1,1064,482.21a34.09,34.09,0,0,1,9.5,1.36,14.47,14.47,0,0,0,4.07.59,14.26,14.26,0,0,0,11.33-5.59,33.66,33.66,0,0,1,53.26,0,14.26,14.26,0,0,0,11.33,5.59,14.45,14.45,0,0,0,4.06-.59,34.14,34.14,0,0,1,9.5-1.36,33.72,33.72,0,0,1,33.59,32.67,14.29,14.29,0,0,0,9.51,13.09,33.66,33.66,0,0,1,16.46,50.65,14.3,14.3,0,0,0,0,16.19,33.66,33.66,0,0,1-16.46,50.65,14.27,14.27,0,0,0-9.5,13.09A33.68,33.68,0,0,1,1173,690.67v71.54a18.65,18.65,0,0,1-18.64,18.64Zm-38.81-40.05a18.54,18.54,0,0,1,9.77,2.77L1153.68,761V689.28h-.22a14.22,14.22,0,0,0-11.3,5.58,33.68,33.68,0,0,1-53.26,0,14.25,14.25,0,0,0-11.31-5.58h-.21V761l28.37-17.46A18.55,18.55,0,0,1,1115.53,740.8ZM1077.63,670a33.33,33.33,0,0,1,26.53,13.09,14.37,14.37,0,0,0,22.74,0A33.32,33.32,0,0,1,1153.43,670a34.35,34.35,0,0,1,9.53,1.36A14.37,14.37,0,0,0,1181.35,658a33.49,33.49,0,0,1,22.28-30.68,14.36,14.36,0,0,0,7-21.61,33.52,33.52,0,0,1,0-37.93,14.38,14.38,0,0,0-7-21.62,33.47,33.47,0,0,1-22.28-30.67A14.33,14.33,0,0,0,1163,502.1a34.35,34.35,0,0,1-9.53,1.36,33.33,33.33,0,0,1-26.53-13.09,14.38,14.38,0,0,0-22.74,0,33.36,33.36,0,0,1-26.53,13.09,33.94,33.94,0,0,1-9.53-1.37,14.45,14.45,0,0,0-4.06-.59,14.37,14.37,0,0,0-14.33,14,33.49,33.49,0,0,1-22.29,30.68,14.36,14.36,0,0,0-7,21.61,33.53,33.53,0,0,1,0,37.92,14.36,14.36,0,0,0,7,21.62A33.49,33.49,0,0,1,1049.71,658a14.17,14.17,0,0,0,5.17,10.62,14.26,14.26,0,0,0,13.22,2.74A34,34,0,0,1,1077.63,670Z" transform="translate(-688.21 -289.76)"/><path class="cls-1" d="M1115.53,655.5a68.79,68.79,0,1,1,68.78-68.79A68.87,68.87,0,0,1,1115.53,655.5Zm0-118.27A49.49,49.49,0,1,0,1165,586.71,49.54,49.54,0,0,0,1115.53,537.23Z" transform="translate(-688.21 -289.76)"/><path class="cls-1" d="M887.41,410.19l-.18,0s-.07,0-.16,0H873.19a19.62,19.62,0,0,1-19.6-19.59v-26a19.62,19.62,0,0,1,19.6-19.6h164.47a19.62,19.62,0,0,1,19.6,19.6v26a19.6,19.6,0,0,1-19.58,19.59ZM873.19,364.3a.3.3,0,0,0-.3.3v26a.31.31,0,0,0,.3.3h14.15s.07,0,.16,0h150.16a.3.3,0,0,0,.3-.3v-26a.3.3,0,0,0-.3-.3Z" transform="translate(-688.21 -289.76)"/><path class="cls-1" d="M971.93,802c-16.95,0-50.8-29.34-56.51-53.74A32.46,32.46,0,0,1,913.8,738a34.65,34.65,0,0,1,18.7-30.56,36.1,36.1,0,0,1,17-4.14,37.32,37.32,0,0,1,22.42,7.27,37.23,37.23,0,0,1,22.39-7.27,36.24,36.24,0,0,1,17,4.14,34.21,34.21,0,0,1,16.89,41.37C1023,771.69,988.26,802,971.93,802Zm-22.17-84.47a22.47,22.47,0,0,0-10.56,2.59A20.41,20.41,0,0,0,928.12,738a19.62,19.62,0,0,0,1,6.23c4.15,17.81,33,43.4,42.77,43.4,8.75,0,38.26-24.21,42.52-42.71l.06-.23a19.87,19.87,0,0,0-9.86-24.61,21.82,21.82,0,0,0-10.26-2.49,22.61,22.61,0,0,0-17,7.42L972,731.3l-5.45-6.24A22.18,22.18,0,0,0,949.76,717.51Z" transform="translate(-688.21 -289.76)"/></svg>