<svg id="Слой_1" data-name="Слой 1" xmlns="http://www.w3.org/2000/svg" viewBox="0 0 319.33 312.44"><defs><style>.cls-1{fill:#374dff;}</style></defs><path class="cls-1" d="M457.84,675.38a149.57,149.57,0,0,1-57.07-56.64Q380.34,582.91,380.34,540t20.43-78.51q20.44-35.6,57.07-56.66t82.76-21.05q46.15,0,82.37,20.84t56.45,56.27q20.24,35.42,20.24,77.51,0,37.64-17.6,61.72T634.5,624.19a53.43,53.43,0,0,1-28.33-7.89A50.11,50.11,0,0,1,586.74,595q-18.21,29.15-55.84,29.15a76.24,76.24,0,0,1-68-39.86q-10.53-18.81-10.52-42.71,0-23.46,10.52-42.5A77.15,77.15,0,0,1,491,469.59a73.26,73.26,0,0,1,38.25-10.53q14.57,0,25.7,5.87a52.43,52.43,0,0,1,18,15.18h3.25V464.74h39.66V564.3q0,10.51,5.46,17.59a17.69,17.69,0,0,0,14.78,7.1q12.52,0,18.81-14.17T661.21,538a114.41,114.41,0,0,0-15.58-57.87,117.49,117.49,0,0,0-43.1-43.31Q575,420.62,540.6,420.62q-33.58,0-60.9,15a109.93,109.93,0,0,0-43.11,42.29q-15.78,27.3-15.78,62.11,0,34.41,16.6,61.72a116.73,116.73,0,0,0,44.11,42.5A120.28,120.28,0,0,0,540.6,659.4q30.36,0,53.84-13.35l13.76,35.22a171.3,171.3,0,0,1-32.38,10.92,156,156,0,0,1-35.22,4Q494.48,696.22,457.84,675.38ZM562.66,573.2q11.94-11.73,11.94-31.58t-11.94-31.55a41.25,41.25,0,0,0-57.87.18q-11.94,12-11.94,31.37T504.79,573a41.29,41.29,0,0,0,57.87.21Z" transform="translate(-380.34 -383.78)"/></svg>