<?xml version="1.0" encoding="utf-8"?>
<!-- Generator: Adobe Illustrator 24.1.2, SVG Export Plug-In . SVG Version: 6.00 Build 0)  -->
<svg version="1.1" id="Слой_1" xmlns="http://www.w3.org/2000/svg" xmlns:xlink="http://www.w3.org/1999/xlink" x="0px" y="0px"
	 viewBox="0 0 50 50" style="enable-background:new 0 0 50 50;" xml:space="preserve">
<style type="text/css">
	.st0{fill-rule:evenodd;clip-rule:evenodd;fill:#0072C6;}
	.st1{fill:#00337F;}
	.st2{fill-rule:evenodd;clip-rule:evenodd;fill:#FFC61E;}
	.st3{fill-rule:evenodd;clip-rule:evenodd;fill:#FFFFFF;}
</style>
<g id="layer1">
	<path id="path1350" class="st0" d="M7.2,4.4h35.5v33.7c-0.1,1.4-0.6,2.8-1.6,3.8c-1.6,1.9-4.6,2.2-4.6,2.2h-9.5
		c-0.9,0.1-1.7,0.7-2.1,1.5c-0.5-0.8-1.3-1.4-2.3-1.5h-9.4c-1.6-0.2-3.1-0.9-4.3-2c-1-1.1-1.6-2.5-1.7-4L7.2,4.4z"/>
	<path class="st1" d="M25,46c-0.1,0-0.2-0.1-0.3-0.2c-0.4-0.7-1.2-1.2-2-1.3h-9.4c-1.7-0.2-3.3-0.9-4.6-2.1
		c-1.1-1.2-1.7-2.7-1.8-4.3V4.4C6.9,4.2,7,4,7.2,4h35.5c0.2,0,0.4,0.2,0.4,0.4c0,0,0,0,0,0v33.7c-0.1,1.5-0.7,3-1.7,4.1
		c-1.7,2-4.7,2.3-4.9,2.3h-9.5c-0.8,0.1-1.4,0.6-1.8,1.3C25.3,45.9,25.1,46,25,46z M13.4,43.7h9.4c0.9,0.1,1.7,0.5,2.3,1.2
		c0.5-0.7,1.2-1.1,2.1-1.2h9.5c0.2,0,2.9-0.3,4.4-2c0.9-1,1.4-2.3,1.5-3.6V4.8H7.6v33.3c0.1,1.4,0.7,2.7,1.6,3.8
		C10.4,42.9,11.8,43.5,13.4,43.7z"/>
	<path id="path9249" class="st2" d="M17.1,18.4c-0.2,0-0.3-0.2-0.2-0.3c0-0.2,0.1-0.3,0.2-0.4c-0.3-0.1-0.4-0.4-0.4-0.7
		c0-0.3,0.2-0.6,0.4-0.7c-0.2-0.1-0.2-0.2-0.2-0.4c0-0.2,0.1-0.3,0.2-0.4c-0.3-0.5-0.4-1-0.3-1.5l-0.6-1.3c0,0-0.2,0-0.4-0.3
		c-0.2-0.3-0.1-0.6-0.3-1c-0.2-0.2-0.4-0.3-0.7-0.3c0,0,0-0.8,0.7-0.9c0.4,0,0.8,0.2,1,0.6c0.3-0.1,0.5,0,0.8,0.1
		c0.2,0.2,0.4,0.4,0.4,0.7c-0.2,0.1-0.5,0.3-0.6,0.5c0.2,0.2,0.4,0.2,0.7,0.2c0.4,0,0.8-0.5,0.8-0.5s0.4,0.1,0.2,0.8
		c0,0,0.8,0.3,0.8,0.6c0,0.3-0.8,0.5-0.8,0.5c0.2,0.4-0.2,1-0.2,1s-0.3-0.8-1.3-0.4c0.4,0.6,1.1,1,1.8,1c0.9-0.1,1.6-0.6,2-1.4
		c0.3,0.8,1.1,1.3,1.9,1.4c0.8,0,1.5-0.4,1.9-1.1c-0.4-0.3-0.9-0.3-1.3,0.1c-0.1,0.1-0.1,0.2-0.2,0.3c-0.2-0.3-0.3-0.7-0.2-1
		c0,0-0.8-0.2-0.8-0.5s0.9-0.5,0.9-0.5c-0.1-0.4-0.1-0.8,0.2-1.1c0.3,0.7,0.7,0.6,0.7,0.6c0.4-0.6-0.4-1.2-0.4-1.2
		c0.2-0.2,0.6-0.3,0.9-0.2c0,0,0.3-0.8,0.6-0.8c0.3,0,0.6,0.8,0.6,0.8c0.3-0.1,0.6,0,0.9,0.2c0,0-0.8,0.6-0.4,1.2
		c0,0,0.4,0.2,0.7-0.6c0.2,0.3,0.3,0.7,0.1,1.1c0,0,0.9,0.2,0.9,0.5c0,0.3-0.8,0.5-0.8,0.5c0.1,0.4,0,0.7-0.2,1
		c-0.2-0.5-0.7-0.7-1.1-0.5c-0.1,0-0.2,0.1-0.3,0.2c0.4,0.7,1.1,1.1,1.9,1.1c0.9-0.1,1.6-0.6,1.9-1.4c0.4,0.8,1.2,1.3,2,1.4
		c0.7,0,1.4-0.4,1.8-1c-1-0.4-1.3,0.4-1.3,0.4s-0.4-0.5-0.2-1c0,0-0.8-0.2-0.8-0.5c0-0.3,0.8-0.6,0.8-0.6c-0.2-0.7,0.2-0.8,0.2-0.8
		s0.4,0.5,0.8,0.5c0.2,0,0.5-0.1,0.7-0.2c-0.2-0.2-0.4-0.4-0.6-0.5c0.1-0.3,0.2-0.5,0.4-0.7c0.2-0.1,0.5-0.1,0.8-0.1
		c0.2-0.4,0.6-0.6,1-0.6c0.7,0.1,0.7,0.9,0.7,0.9c-0.3,0-0.5,0.1-0.7,0.3c-0.2,0.3-0.2,0.6-0.3,1c-0.2,0.3-0.4,0.3-0.4,0.3l-0.6,1.3
		c0,0.5-0.1,1-0.3,1.5c0.1,0.1,0.2,0.2,0.2,0.4c0,0.2-0.1,0.3-0.2,0.4c0.3,0.1,0.4,0.4,0.4,0.7c0,0.3-0.2,0.6-0.4,0.7
		c0.1,0.1,0.2,0.2,0.2,0.4c0,0.2-0.1,0.3-0.2,0.3L17.1,18.4z"/>
	<path class="st1" d="M33,18.6H17.1c-0.3-0.1-0.4-0.3-0.4-0.5c0-0.1,0-0.3,0.1-0.4c-0.2-0.2-0.3-0.5-0.3-0.7c0-0.3,0.1-0.5,0.3-0.7
		c-0.1-0.1-0.1-0.2-0.1-0.4c0-0.2,0.1-0.3,0.2-0.4c-0.2-0.4-0.3-0.9-0.2-1.4L16,12.8c-0.2-0.1-0.3-0.2-0.4-0.4
		c-0.1-0.2-0.1-0.3-0.2-0.5c0-0.2-0.1-0.3-0.2-0.4c-0.1-0.2-0.3-0.2-0.5-0.2c-0.1,0-0.2-0.1-0.2-0.2c0-0.5,0.3-1,0.9-1.1
		c0.5-0.1,0.9,0.2,1.2,0.5c0.3,0,0.5,0,0.8,0.2c0.3,0.2,0.4,0.5,0.5,0.8c0,0.1,0,0.2-0.1,0.2c-0.1,0.1-0.3,0.1-0.4,0.2
		c0.1,0,0.2,0.1,0.3,0.1c0.2,0,0.5-0.3,0.6-0.4c0.1-0.1,0.1-0.1,0.2-0.1c0.2,0.1,0.5,0.3,0.4,0.9c0.3,0.1,0.8,0.4,0.8,0.7
		c0,0.3-0.4,0.5-0.8,0.7c0,0.3-0.1,0.7-0.3,1c0,0.1-0.1,0.1-0.2,0.1c-0.1,0-0.1-0.1-0.2-0.1c-0.1-0.3-0.5-0.5-0.8-0.4
		c0.4,0.4,0.9,0.7,1.4,0.7c0.8-0.1,1.5-0.6,1.9-1.3c0-0.1,0.1-0.1,0.2-0.1c0.1,0,0.2,0.1,0.2,0.1c0.3,0.7,0.9,1.2,1.7,1.3
		c0.6,0,1.2-0.3,1.6-0.8C24.3,14,24.2,14,24,14c-0.2,0.1-0.4,0.2-0.5,0.4c0,0.1-0.1,0.1-0.2,0.1c-0.1,0-0.1,0-0.2-0.1
		c-0.3-0.3-0.4-0.6-0.3-1c-0.3-0.1-0.8-0.3-0.8-0.7s0.5-0.5,0.8-0.7c-0.1-0.4,0-0.7,0.2-1c0-0.1,0.1-0.1,0.2-0.1
		c0.1,0,0.1,0.1,0.2,0.1c0.1,0.3,0.3,0.4,0.3,0.4c0-0.1,0-0.1,0-0.2c-0.1-0.2-0.2-0.4-0.4-0.6c0,0-0.1-0.1-0.1-0.2
		c0-0.1,0-0.1,0.1-0.2c0.2-0.2,0.6-0.3,0.9-0.3c0.1-0.3,0.4-0.8,0.7-0.8c0.3,0,0.6,0.5,0.7,0.8c0.3-0.1,0.7,0.1,0.9,0.3
		c0,0,0.1,0.1,0.1,0.2c0,0.1,0,0.1-0.1,0.2c-0.2,0.1-0.4,0.3-0.4,0.6c0,0.1,0,0.1,0,0.2c0.1,0,0.2-0.1,0.3-0.4
		c0-0.1,0.1-0.1,0.2-0.1c0.1,0,0.2,0,0.2,0.1c0.2,0.3,0.3,0.7,0.2,1c0.4,0.1,0.8,0.3,0.8,0.7c0,0.3-0.5,0.6-0.8,0.7
		c0.1,0.4-0.1,0.8-0.3,1c0,0-0.1,0.1-0.2,0.1c-0.1,0-0.1-0.1-0.2-0.1c-0.1-0.2-0.2-0.4-0.4-0.5c-0.2,0-0.3,0-0.5,0.1
		c0.3,0.5,1,0.9,1.6,0.8c0.8-0.1,1.4-0.5,1.7-1.3c0-0.1,0.1-0.1,0.2-0.1c0.1,0,0.2,0,0.2,0.1c0.4,0.7,1,1.2,1.8,1.3
		c0.6,0,1.1-0.2,1.5-0.7c-0.3-0.1-0.7,0.1-0.8,0.4c0,0.1-0.1,0.1-0.2,0.1c-0.1,0-0.2,0-0.2-0.1c-0.2-0.3-0.3-0.6-0.3-1
		c-0.3-0.1-0.8-0.3-0.8-0.7c0-0.3,0.4-0.6,0.8-0.7c-0.1-0.6,0.2-0.8,0.4-0.9c0.1,0,0.2,0,0.2,0.1c0.1,0.1,0.4,0.4,0.6,0.4
		c0.1,0,0.2,0,0.3-0.1c-0.1-0.1-0.2-0.2-0.4-0.2c-0.1-0.1-0.1-0.1-0.1-0.2c0.1-0.3,0.3-0.6,0.5-0.8c0.2-0.1,0.5-0.2,0.8-0.2
		c0.2-0.4,0.7-0.6,1.2-0.5c0.5,0.1,0.9,0.6,0.9,1.1c0,0.1-0.1,0.2-0.2,0.2c-0.2,0-0.4,0.1-0.5,0.2c-0.1,0.1-0.1,0.3-0.2,0.4
		c0,0.2-0.1,0.3-0.2,0.5c-0.1,0.2-0.2,0.3-0.4,0.4L33.5,14c0,0.5-0.1,1-0.3,1.4c0.1,0.1,0.2,0.3,0.2,0.4c0,0.1,0,0.3-0.1,0.4
		c0.2,0.2,0.3,0.5,0.3,0.7c0,0.3-0.1,0.6-0.3,0.7c0.1,0.1,0.1,0.2,0.1,0.4C33.5,18.3,33.3,18.5,33,18.6L33,18.6z M17.1,18.1H33
		c0,0,0.1-0.1,0.1-0.1c0-0.1-0.1-0.2-0.1-0.2c-0.1,0-0.1-0.1-0.1-0.2c0-0.1,0.1-0.1,0.1-0.2c0.2-0.1,0.3-0.3,0.3-0.5
		c0-0.2-0.1-0.4-0.3-0.5c-0.1,0-0.1-0.1-0.1-0.2c0-0.1,0.1-0.2,0.1-0.2c0.1,0,0.1-0.1,0.1-0.2c0-0.1-0.1-0.2-0.1-0.2
		c-0.1,0-0.1-0.1-0.1-0.2c0-0.1,0-0.1,0-0.2c0.2-0.3,0.3-0.6,0.3-0.9c-0.4,0.7-1.1,1.1-1.9,1c-0.8,0-1.6-0.5-2-1.2
		c-0.4,0.7-1.1,1.2-1.9,1.2c-0.9,0-1.7-0.5-2.1-1.2c0-0.1,0-0.2,0.1-0.3c0.3-0.2,0.6-0.3,1-0.3c0.2,0.1,0.4,0.2,0.6,0.4
		c0.1-0.2,0.1-0.4,0-0.6c0-0.1,0-0.2,0.1-0.3c0,0,0,0,0,0c0.2-0.1,0.5-0.2,0.6-0.3c-0.2-0.2-0.5-0.3-0.7-0.3c-0.1,0-0.2-0.1-0.2-0.2
		c0,0,0,0,0-0.1c0.1-0.2,0.1-0.3,0-0.5c-0.2,0.2-0.4,0.4-0.7,0.3c0,0-0.1,0-0.1-0.1c-0.1-0.2-0.2-0.4-0.1-0.6
		c0.1-0.2,0.2-0.5,0.4-0.6c-0.2,0-0.3,0-0.5,0c-0.1,0-0.2,0-0.3-0.1c-0.1-0.3-0.2-0.5-0.4-0.7c-0.2,0.2-0.3,0.4-0.4,0.7
		c0,0.1-0.2,0.2-0.3,0.1c-0.2-0.1-0.3-0.1-0.5,0c0.2,0.2,0.3,0.4,0.4,0.6c0,0.2,0,0.4-0.1,0.6c0,0-0.1,0.1-0.1,0.1
		c-0.3,0.1-0.5-0.1-0.7-0.3c-0.1,0.2-0.1,0.3,0,0.5c0,0.1,0,0.1,0,0.2c0,0.1-0.1,0.1-0.1,0.1c-0.3,0.1-0.5,0.2-0.7,0.3
		c0.2,0.1,0.4,0.3,0.6,0.3c0.1,0,0.2,0.1,0.2,0.3c0,0.2,0,0.4,0.1,0.6c0.1-0.2,0.3-0.3,0.6-0.4c0.4-0.1,0.7,0,1,0.3
		C25,14,25,14.1,25,14.2c-0.4,0.8-1.2,1.3-2.1,1.2c-0.8,0-1.6-0.5-1.9-1.2c-0.4,0.7-1.2,1.1-2,1.2c-0.8,0-1.5-0.4-1.9-1
		c0,0.3,0.1,0.6,0.3,0.9c0.1,0.1,0.1,0.2,0,0.3c0,0,0,0,0,0l0,0c0,0-0.1,0.1-0.1,0.2c0,0.1,0,0.1,0.1,0.2c0.1,0,0.1,0.1,0.1,0.2
		c0,0.1-0.1,0.2-0.1,0.2c-0.2,0.1-0.3,0.3-0.3,0.5c0,0.2,0.1,0.4,0.3,0.5c0.1,0,0.1,0.1,0.1,0.2c0,0.1,0,0.2-0.1,0.2l0,0
		c0,0-0.1,0.1-0.1,0.2S17.1,18.1,17.1,18.1z M30.8,13.1c0.2,0.2,0.4,0.3,0.7,0.3c0.1,0,0.1,0.1,0.1,0.1c0,0.1,0,0.1,0,0.2
		c-0.1,0.1-0.1,0.3,0,0.5c0.4-0.4,0.9-0.5,1.4-0.2l0.1,0.1v-0.1c0,0,0-0.1,0-0.1l0.6-1.3c0-0.1,0.1-0.1,0.2-0.1
		c0.1,0,0.2-0.1,0.2-0.2c0.1-0.1,0.1-0.2,0.1-0.4c0-0.2,0.1-0.4,0.2-0.6c0.1-0.2,0.4-0.3,0.6-0.4c0-0.3-0.2-0.5-0.5-0.5
		c-0.3,0-0.6,0.1-0.8,0.4c0,0.1-0.1,0.1-0.2,0.1c-0.2,0-0.4,0-0.6,0.1c-0.1,0.1-0.2,0.3-0.3,0.4c0.2,0.1,0.4,0.3,0.5,0.5
		c0.1,0.1,0.1,0.2,0,0.3c-0.2,0.2-0.5,0.3-0.8,0.3c-0.3,0-0.6-0.2-0.8-0.4c-0.1,0.2-0.1,0.3,0,0.5c0,0.1,0,0.2-0.1,0.3
		C31.2,12.8,31,12.9,30.8,13.1L30.8,13.1z M17.7,13.8c0.3,0,0.6,0.1,0.8,0.3c0.1-0.1,0.1-0.3,0-0.5c0-0.1,0-0.1,0-0.2
		c0-0.1,0.1-0.1,0.1-0.1c0.2-0.1,0.5-0.2,0.7-0.3c-0.2-0.2-0.4-0.3-0.7-0.4c-0.1,0-0.2-0.2-0.1-0.3c0,0,0,0,0,0
		c0.1-0.2,0.1-0.3,0-0.5c-0.2,0.2-0.5,0.4-0.8,0.4c-0.3,0-0.6-0.1-0.8-0.3c-0.1-0.1-0.1-0.2,0-0.3l0,0c0.2-0.2,0.4-0.3,0.6-0.4
		c-0.1-0.2-0.2-0.3-0.3-0.4c-0.2-0.1-0.4-0.1-0.6-0.1c-0.1,0-0.2,0-0.3-0.1c-0.1-0.3-0.5-0.5-0.8-0.4c-0.3,0-0.5,0.2-0.5,0.5
		c0.2,0.1,0.5,0.2,0.6,0.4c0.1,0.2,0.2,0.4,0.2,0.6c0,0.1,0.1,0.3,0.1,0.4c0,0.1,0.1,0.2,0.2,0.2c0.1,0,0.1,0.1,0.2,0.1l0.6,1.3
		c0,0,0,0.1,0,0.1c0,0,0,0.1,0,0.1c0,0,0.1-0.1,0.1-0.1C17.2,13.9,17.5,13.9,17.7,13.8L17.7,13.8z"/>
	<path class="st1" d="M32.4,15.9H17.8c-0.1,0-0.2-0.1-0.2-0.2c0-0.1,0.1-0.2,0.2-0.2c0,0,0,0,0,0h14.6c0.1,0,0.2,0.1,0.2,0.2
		C32.6,15.9,32.5,15.9,32.4,15.9z"/>
	<path id="path3121" class="st3" d="M17.7,13.1c0,0.5-0.4,0.9-0.9,0.9c-0.5,0-0.9-0.4-0.9-0.9c0-0.5,0.4-0.9,0.9-0.9
		C17.2,12.2,17.6,12.5,17.7,13.1"/>
	<path class="st1" d="M16.8,14.2c-0.6,0-1.1-0.5-1.1-1.1c0-0.6,0.5-1.1,1.1-1.1c0,0,0,0,0,0l0,0c0.6,0,1.1,0.5,1.1,1l0,0l0,0
		C17.9,13.6,17.4,14.2,16.8,14.2C16.8,14.2,16.8,14.2,16.8,14.2z M16.8,12.3c-0.2,0-0.4,0.1-0.5,0.2c-0.1,0.1-0.2,0.3-0.2,0.5
		c0,0.4,0.3,0.8,0.8,0.8c0.4,0,0.8-0.3,0.8-0.8v-0.1C17.5,12.7,17.2,12.3,16.8,12.3L16.8,12.3z"/>
	<path id="path3123" class="st3" d="M21.8,13.1c0,0.5-0.4,0.9-0.9,0.9c-0.5,0-0.9-0.4-0.9-0.9c0-0.5,0.4-0.9,0.9-0.9
		C21.4,12.2,21.8,12.5,21.8,13.1"/>
	<path class="st1" d="M20.9,14.2c-0.6,0-1.1-0.5-1.1-1.1c0-0.6,0.5-1.1,1.1-1.1c0.6,0,1.1,0.5,1.1,1l0,0l0,0
		C22,13.6,21.6,14.2,20.9,14.2C20.9,14.2,20.9,14.2,20.9,14.2z M20.9,12.3c-0.4,0-0.8,0.3-0.8,0.8s0.3,0.8,0.8,0.8s0.8-0.3,0.8-0.8
		c0,0,0,0,0,0v-0.1C21.6,12.7,21.3,12.4,20.9,12.3L20.9,12.3z"/>
	<path id="path3125" class="st3" d="M26,12.7c0,0.5-0.4,0.9-0.9,0.9c-0.5,0-0.9-0.4-0.9-0.9c0-0.5,0.4-0.9,0.9-0.9
		C25.6,11.8,25.9,12.2,26,12.7"/>
	<path class="st1" d="M25,13.8c-0.6,0-1.1-0.5-1.1-1.1s0.5-1.1,1.1-1.1c0.6,0,1.1,0.5,1.1,1v0.1C26.1,13.3,25.6,13.8,25,13.8z
		 M25,11.9c-0.4,0-0.8,0.3-0.8,0.8c0,0.4,0.3,0.8,0.8,0.8c0.4,0,0.8-0.3,0.8-0.8c0,0,0,0,0,0v0C25.7,12.2,25.4,11.9,25,11.9z"/>
	<path id="path3127" class="st3" d="M30.1,13.1c0,0.5-0.4,0.9-0.9,0.9c-0.5,0-0.9-0.4-0.9-0.9s0.4-0.9,0.9-0.9
		C29.7,12.2,30,12.6,30.1,13.1"/>
	<path class="st1" d="M29.2,14.2c-0.6,0.1-1.1-0.4-1.2-1c-0.1-0.6,0.4-1.1,1-1.2c0.1,0,0.1,0,0.2,0c0.6,0,1.1,0.5,1.1,1l0,0l0,0
		C30.3,13.6,29.8,14.2,29.2,14.2C29.2,14.2,29.2,14.2,29.2,14.2z M29.2,12.3c-0.4,0-0.8,0.3-0.8,0.8s0.3,0.8,0.8,0.8
		s0.8-0.3,0.8-0.8c0,0,0,0,0,0v-0.1C29.9,12.7,29.6,12.4,29.2,12.3L29.2,12.3z"/>
	<path id="path3129" class="st3" d="M34.3,13.1c0,0.5-0.4,0.9-0.9,0.9c-0.5,0-0.9-0.4-0.9-0.9c0-0.5,0.4-0.9,0.9-0.9
		C33.9,12.2,34.3,12.6,34.3,13.1"/>
	<path class="st1" d="M33.3,14.2c-0.6,0-1.1-0.5-1.1-1.1c0-0.6,0.5-1.1,1.1-1.1c0.6,0,1.1,0.5,1.1,1v0.1
		C34.4,13.7,33.9,14.2,33.3,14.2z M33.3,12.3c-0.4,0-0.8,0.3-0.8,0.8c0,0.4,0.3,0.8,0.8,0.8s0.8-0.3,0.8-0.8v-0.1
		C34,12.7,33.7,12.4,33.3,12.3L33.3,12.3z"/>
	<path id="path3131" class="st3" d="M19.2,16.9L18,16.3c-0.2,0.1-0.3,0.4-0.3,0.6c0,0.2,0.1,0.4,0.3,0.6L19.2,16.9z"/>
	<path class="st1" d="M18,17.7c0,0-0.1,0-0.1-0.1c-0.2-0.2-0.3-0.4-0.4-0.7c0-0.3,0.1-0.5,0.4-0.7c0.1,0,0.1,0,0.2,0l1.3,0.6
		c0.1,0,0.1,0.1,0.1,0.2c0,0.1,0,0.1-0.1,0.2L18,17.7L18,17.7z M18,16.6c-0.1,0.1-0.1,0.2-0.1,0.3c0,0.1,0.1,0.3,0.1,0.3l0.7-0.3
		L18,16.6z"/>
	<path id="path4879" class="st3" d="M26.7,16.9L25,16.2l-1.6,0.7l1.6,0.7L26.7,16.9z"/>
	<path class="st1" d="M25,17.8L25,17.8l-1.8-0.7c-0.1,0-0.1-0.1-0.1-0.2c0-0.1,0-0.1,0.1-0.2l1.7-0.7c0,0,0.1,0,0.2,0l1.6,0.7
		c0.1,0,0.1,0.1,0.1,0.2c0,0.1,0,0.1-0.1,0.2L25,17.8L25,17.8z M23.9,16.9l1.1,0.5l1.2-0.5L25,16.4L23.9,16.9z"/>
	<path id="path4881" class="st3" d="M31.1,17l1.3-0.6c0.3,0.2,0.4,0.7,0.1,1c0,0.1-0.1,0.1-0.1,0.1L31.1,17z"/>
	<path class="st1" d="M32.3,17.7C32.3,17.7,32.3,17.7,32.3,17.7L31,17.2c-0.1,0-0.1-0.2-0.1-0.3c0,0,0.1-0.1,0.1-0.1l1.2-0.6
		c0.1,0,0.1,0,0.2,0c0.4,0.3,0.5,0.9,0.2,1.3c0,0.1-0.1,0.1-0.2,0.2C32.4,17.7,32.4,17.7,32.3,17.7z M31.5,17l0.7,0.3
		c0.2-0.2,0.2-0.5,0-0.7L31.5,17z"/>
	<path id="path4883" class="st0" d="M30.1,16.9c0,0.3-0.4,0.6-0.9,0.6c-0.5,0-0.9-0.3-0.9-0.6c0-0.3,0.4-0.6,0.9-0.6
		C29.7,16.3,30,16.6,30.1,16.9"/>
	<path class="st1" d="M29.2,17.7c-0.6,0-1.1-0.3-1.1-0.8s0.5-0.8,1.1-0.8c0.6,0,1,0.3,1.1,0.7v0.1C30.2,17.4,29.8,17.7,29.2,17.7z
		 M29.2,16.5c-0.4,0-0.7,0.2-0.7,0.4s0.3,0.4,0.7,0.4c0.4,0,0.7-0.2,0.7-0.4l0,0C29.8,16.7,29.6,16.6,29.2,16.5L29.2,16.5z"/>
	<path id="path4885" class="st0" d="M21.8,16.9c0,0.3-0.4,0.6-0.9,0.6S20,17.2,20,16.9c0-0.3,0.4-0.6,0.9-0.6
		C21.4,16.3,21.7,16.6,21.8,16.9"/>
	<path class="st1" d="M20.9,17.7c-0.6,0-1.1-0.3-1.1-0.8s0.5-0.8,1.1-0.8c0.6,0,1,0.3,1.1,0.7v0.1C22,17.4,21.5,17.7,20.9,17.7z
		 M20.9,16.5c-0.4,0-0.7,0.2-0.7,0.4s0.3,0.4,0.7,0.4c0.4,0,0.7-0.2,0.7-0.4l0,0C21.6,16.7,21.3,16.6,20.9,16.5L20.9,16.5z"/>
	<path id="path2234" class="st2" d="M10.4,19.4l1.7,0.9c0,4.3,2.2,8.4,5.8,10.8l-2.5,0.4C15.3,31.5,9.8,26.8,10.4,19.4z"/>
	<path class="st1" d="M15.3,31.9c-0.1,0-0.2,0-0.2-0.1c-1.1-1-2-2.1-2.7-3.4c-1.7-2.7-2.5-5.8-2.4-9c0-0.2,0.2-0.3,0.4-0.3
		c0.1,0,0.1,0,0.1,0l1.7,0.9c0.1,0.1,0.2,0.2,0.2,0.3c0.1,2.9,1.1,5.7,2.9,8c0.8,1,1.7,1.8,2.7,2.5c0.1,0.1,0.2,0.2,0.2,0.4
		c0,0.1-0.1,0.3-0.3,0.3L15.3,31.9L15.3,31.9z M10.7,19.9c-0.1,2.8,0.7,5.7,2.2,8.1c0.7,1.1,1.6,2.2,2.5,3.1l1.5-0.3
		c-0.8-0.6-1.5-1.3-2.2-2.1c-1.9-2.3-2.9-5.2-3-8.2L10.7,19.9z"/>
	<path id="path3984" class="st2" d="M39.7,19.4L38,20.3c0,4.3-2.2,8.4-5.8,10.8l2.5,0.4C34.7,31.5,40.2,26.8,39.7,19.4z"/>
	<path class="st1" d="M34.7,31.9L34.7,31.9l-2.6-0.4c-0.1,0-0.3-0.1-0.3-0.3c0-0.1,0-0.3,0.2-0.4c1-0.7,2-1.5,2.7-2.5
		c1.8-2.3,2.9-5.1,2.9-8c0-0.1,0.1-0.2,0.2-0.3l1.7-0.9c0.1-0.1,0.2-0.1,0.3,0c0.1,0.1,0.2,0.2,0.2,0.3c0.2,3.2-0.7,6.4-2.4,9.1
		c-0.8,1.2-1.7,2.4-2.7,3.4C34.8,31.8,34.8,31.9,34.7,31.9z M33.1,30.9l1.5,0.3c1-0.9,1.8-2,2.5-3.1c1.5-2.4,2.3-5.2,2.2-8.1l-1,0.5
		c-0.1,3-1.2,5.9-3,8.2C34.6,29.6,33.9,30.3,33.1,30.9z"/>
	<path id="path5746" class="st2" d="M12.2,21.6c1.7,0.9,3.5,1.6,5.4,2.2v1.9c2.4,0.7,4.9,1,7.4,1.1c2.5-0.1,5-0.4,7.5-1.1v-1.9
		c1.8-0.6,3.6-1.3,5.3-2.2c-0.1,4.6-5.1,9.5-5.1,9.5l-7.8,3.7l-7.2-3.6C17.6,31.2,12.7,27.6,12.2,21.6z"/>
	<path class="st1" d="M24.9,35.1c-0.1,0-0.1,0-0.2,0l-7.2-3.6h-0.1c-1-0.7-1.9-1.6-2.6-2.6c-1.7-2.1-2.7-4.6-3-7.3
		c0-0.1,0-0.3,0.2-0.3c0.1-0.1,0.3-0.1,0.4,0c1.7,0.8,3.5,1.6,5.3,2.1c0.1,0,0.3,0.2,0.3,0.3v1.6c2.3,0.6,4.7,1,7.1,1.1
		c2.4-0.1,4.8-0.4,7.1-1v-1.6c0-0.2,0.1-0.3,0.2-0.3c1.8-0.6,3.6-1.3,5.3-2.2c0.1-0.1,0.3-0.1,0.4,0c0.1,0.1,0.2,0.2,0.2,0.3
		c-0.1,4.7-5,9.6-5.2,9.8c0,0-0.1,0.1-0.1,0.1L25,35.1C25,35.1,24.9,35.1,24.9,35.1z M17.9,30.9l7,3.5l7.6-3.6
		c0.5-0.5,4.5-4.6,4.9-8.6c-1.5,0.7-3,1.3-4.6,1.8v1.6c0,0.2-0.1,0.3-0.3,0.3c-2.5,0.7-5,1.1-7.6,1.1c-2.6-0.1-5.1-0.4-7.6-1.1
		c-0.2,0-0.3-0.2-0.3-0.3v-1.6c-1.6-0.5-3.1-1.1-4.6-1.8c0.4,2.2,1.3,4.3,2.8,6.1C16.1,29.3,16.9,30.2,17.9,30.9z"/>
	<path id="path2229" class="st3" d="M7.2,31.7c0,0,0.4-0.8,1.8-0.8s2.1,1.2,4.1,1.3c2,0,1.9-1.2,3.8-1.2s2.1,1.2,4.1,1.2
		S23,31,25,31c2,0,2,1.2,4,1.2s1.8-1.2,3.8-1.2s2,1.2,3.9,1.2c2,0,2.5-1.3,3.9-1.3c0.8-0.1,1.5,0.2,2.1,0.8v6.4
		c-0.1,1.4-0.6,2.8-1.6,3.8c-1.6,1.9-4.6,2.2-4.6,2.2h-9.5c-0.9,0.1-1.7,0.7-2.1,1.5c-0.5-0.8-1.3-1.4-2.3-1.5h-9.4
		c-1.6-0.2-3.1-0.9-4.3-2c-1-1.1-1.6-2.5-1.7-4L7.2,31.7z"/>
	<path class="st1" d="M25,46c-0.1,0-0.2-0.1-0.3-0.2c-0.4-0.7-1.2-1.2-2-1.3h-9.4c-1.7-0.2-3.3-0.9-4.6-2.1
		c-1.1-1.2-1.7-2.7-1.8-4.3v-6.4c0-0.1,0-0.1,0-0.2c0,0,0.5-1,2.1-1c0.7,0,1.3,0.2,1.9,0.6c0.7,0.4,1.4,0.6,2.2,0.7l0,0
		c0.6,0,1.2-0.2,1.7-0.5c0.6-0.4,1.3-0.7,2.1-0.7l0,0c0.8,0,1.5,0.2,2.2,0.6c0.6,0.4,1.2,0.6,1.9,0.6c0.6,0,1.2-0.2,1.8-0.5
		c0.6-0.4,1.4-0.7,2.2-0.7c0.8,0,1.5,0.2,2.2,0.7c0.5,0.4,1.2,0.6,1.8,0.5c0.6,0,1.2-0.2,1.7-0.5c0.6-0.4,1.3-0.7,2.1-0.7
		c0.8,0,1.5,0.2,2.2,0.7c0.5,0.4,1.1,0.6,1.8,0.5c0.7,0,1.5-0.2,2.1-0.6c0.5-0.4,1.2-0.6,1.9-0.6c0.9-0.1,1.8,0.3,2.4,0.9
		c0,0.1,0.1,0.1,0.1,0.2v6.4c-0.1,1.5-0.7,3-1.7,4.1c-1.7,2-4.7,2.3-4.9,2.3h-9.4c-0.8,0.1-1.4,0.6-1.8,1.3C25.3,45.9,25.1,46,25,46
		z M13.4,43.7h9.4c0.9,0.1,1.7,0.5,2.3,1.2c0.5-0.7,1.2-1.1,2.1-1.2h9.5c0.2,0,2.9-0.3,4.4-2c0.9-1,1.4-2.3,1.5-3.6v-6.2
		c-0.5-0.4-1.1-0.6-1.7-0.5c-0.5,0-1.1,0.2-1.5,0.5c-0.7,0.5-1.6,0.7-2.4,0.7l0,0c-0.8,0-1.5-0.2-2.1-0.7c-0.5-0.4-1.1-0.6-1.8-0.5
		l0,0c-0.6,0-1.2,0.2-1.7,0.5c-0.6,0.5-1.4,0.7-2.1,0.7c-0.8,0-1.5-0.2-2.2-0.6c-0.6-0.4-1.2-0.6-1.9-0.6l0,0
		c-0.6,0-1.3,0.2-1.8,0.5c-0.6,0.4-1.4,0.7-2.1,0.7c-0.8,0-1.6-0.2-2.2-0.7c-0.5-0.4-1.2-0.6-1.9-0.5c-0.6,0-1.2,0.2-1.7,0.5
		c-0.6,0.5-1.4,0.7-2.1,0.7c-0.9,0-1.8-0.3-2.5-0.7c-0.5-0.3-1-0.5-1.5-0.5c-0.5-0.1-1.1,0.1-1.5,0.5v6.2c0.1,1.4,0.7,2.7,1.6,3.8
		C10.4,42.9,11.8,43.5,13.4,43.7z"/>
	<path class="st1" d="M17.5,26c-1.7-0.5-3.4-1.2-5.1-2l0.4-0.6c1.6,0.8,3.2,1.4,4.9,1.9L17.5,26z"/>
	<path class="st1" d="M32.6,26l-0.2-0.7c1.7-0.5,3.3-1.2,4.9-1.9l0.4,0.6C36,24.8,34.3,25.5,32.6,26z"/>
	<path class="st1" d="M25,29.1c-4-0.1-8-1-11.7-2.7l0.3-0.6c3.6,1.6,7.5,2.5,11.4,2.6c3.9-0.1,7.8-1,11.4-2.6l0.3,0.6
		C33.1,28.1,29.1,29,25,29.1z"/>
	<path class="st1" d="M24.9,30.9c-3.4,0.1-6.9-0.6-10-2.1l0.3-0.6c3,1.4,6.3,2,9.7,2c3.4,0,6.8-0.6,10-2l0.3,0.6
		C32,30.3,28.4,31,24.9,30.9z"/>
</g>
</svg>
