<?xml version="1.0" encoding="utf-8"?>
<!-- Generator: Adobe Illustrator 24.1.2, SVG Export Plug-In . SVG Version: 6.00 Build 0)  -->
<svg version="1.1" id="Слой_1" xmlns="http://www.w3.org/2000/svg" xmlns:xlink="http://www.w3.org/1999/xlink" x="0px" y="0px"
	 viewBox="0 0 208.3 208.3" style="enable-background:new 0 0 208.3 208.3;" xml:space="preserve">
<style type="text/css">
	.st0{fill:#FFFFFF;}
</style>
<path class="st0" d="M207.7,61.2c-0.5-11.1-2.3-18.7-4.8-25.3c-5.4-14-16.5-25.1-30.5-30.5c-6.6-2.6-14.2-4.4-25.3-4.8
	S132.4,0,104.1,0S72.3,0.1,61.2,0.6S42.5,2.9,35.9,5.4c-7,2.6-13.3,6.7-18.5,12c-5.3,5.2-9.4,11.5-12,18.4
	c-2.6,6.6-4.4,14.2-4.8,25.3S0,75.8,0,104.2c0,28.3,0.1,31.8,0.6,42.9s2.3,18.7,4.8,25.3c5.4,14,16.5,25.1,30.5,30.5
	c6.6,2.6,14.2,4.4,25.3,4.8s14.6,0.6,42.9,0.6s31.8-0.1,42.9-0.6s18.7-2.3,25.3-4.8c14-5.4,25.1-16.5,30.5-30.5
	c2.6-6.6,4.4-14.2,4.8-25.3s0.6-14.7,0.6-42.9S208.3,72.4,207.7,61.2L207.7,61.2z M189,146.3c-0.5,10.2-2.2,15.7-3.6,19.3
	c-3.5,9.1-10.7,16.3-19.8,19.8c-3.7,1.4-9.2,3.1-19.3,3.6c-11,0.5-14.3,0.6-42.1,0.6s-31.1-0.1-42.1-0.6
	c-10.2-0.4-15.7-2.2-19.3-3.6c-4.5-1.7-8.6-4.3-12-7.8c-3.5-3.4-6.1-7.5-7.8-12c-1.4-3.7-3.1-9.2-3.6-19.3
	c-0.5-11-0.6-14.3-0.6-42.1s0.1-31.1,0.6-42.1C19.9,52,21.6,46.5,23,42.8c1.7-4.5,4.3-8.6,7.8-12c3.4-3.5,7.5-6.1,12-7.8
	c3.7-1.4,9.2-3.1,19.3-3.6c11-0.5,14.3-0.6,42.1-0.6s31.1,0.1,42.1,0.6c10.2,0.5,15.7,2.2,19.3,3.6c9.1,3.5,16.2,10.7,19.7,19.7
	c1.4,3.7,3.1,9.2,3.6,19.3c0.5,11,0.6,14.3,0.6,42.1s-0.1,31-0.6,42L189,146.3z"/>
<path class="st0" d="M104.1,50.7c-29.6,0-53.5,24-53.5,53.5c0,29.6,24,53.5,53.6,53.5c29.5,0,53.5-24,53.5-53.5
	C157.7,74.6,133.7,50.6,104.1,50.7z M104.1,138.9c-19.2,0-34.7-15.6-34.7-34.8S85,69.4,104.2,69.5c19.1,0,34.7,15.5,34.7,34.7
	C138.9,123.3,123.3,138.9,104.1,138.9C104.2,138.9,104.1,138.9,104.1,138.9z"/>
<path class="st0" d="M172.3,48.5c0,6.9-5.6,12.5-12.5,12.5c-6.9,0-12.5-5.6-12.5-12.5c0-6.9,5.6-12.5,12.5-12.5l0,0
	C166.7,36.1,172.3,41.6,172.3,48.5z"/>
</svg>
