<svg id="Слой_1" data-name="Слой 1" xmlns="http://www.w3.org/2000/svg" viewBox="0 0 510.9 511"><defs><style>.cls-1{fill:#374dff;}</style></defs><path class="cls-1" d="M793.6,434.23c-1.19-27.14-5.58-45.81-11.88-62A130.86,130.86,0,0,0,707,297.48c-16.27-6.29-34.83-10.68-62-11.88-27.35-1.3-36-1.6-105.41-1.6s-78.06.3-105.32,1.5-45.81,5.59-62,11.88a124.54,124.54,0,0,0-45.33,29.55,125.84,125.84,0,0,0-29.44,45.21c-6.29,16.28-10.68,34.84-11.88,62-1.3,27.36-1.6,36-1.6,105.42s.3,78.06,1.5,105.31,5.59,45.82,11.88,62a130.86,130.86,0,0,0,74.76,74.77c16.28,6.28,34.84,10.68,62,11.87s35.93,1.5,105.31,1.5,78.06-.3,105.32-1.5,45.81-5.59,62-11.87a130.67,130.67,0,0,0,74.77-74.77c6.29-16.27,10.69-34.84,11.88-62s1.5-35.93,1.5-105.31-.1-78.06-1.3-105.32Zm-46,208.64c-1.11,25-5.3,38.43-8.79,47.42a84.75,84.75,0,0,1-48.51,48.51c-9,3.49-22.56,7.68-47.42,8.78-27,1.2-35,1.5-103.22,1.5s-76.36-.3-103.22-1.5c-25-1.1-38.43-5.29-47.42-8.78a78.44,78.44,0,0,1-29.34-19.07,79.32,79.32,0,0,1-19.07-29.34c-3.49-9-7.69-22.57-8.78-47.42-1.2-27-1.5-35-1.5-103.22s.3-76.37,1.5-103.22c1.09-25,5.29-38.43,8.78-47.41a77.52,77.52,0,0,1,19.17-29.35,79.24,79.24,0,0,1,29.34-19.07c9-3.49,22.57-7.68,47.42-8.79,27-1.19,35-1.49,103.22-1.49s76.36.3,103.22,1.49c25,1.11,38.43,5.3,47.42,8.79a84.29,84.29,0,0,1,48.41,48.42c3.49,9,7.68,22.55,8.79,47.41,1.19,27,1.49,35,1.49,103.22s-.3,76.16-1.49,103.12Zm0,0" transform="translate(-284 -284)"/><path class="cls-1" d="M539.55,408.28A131.27,131.27,0,1,0,670.82,539.55,131.3,131.3,0,0,0,539.55,408.28Zm0,216.42a85.15,85.15,0,1,1,85.15-85.15,85.17,85.17,0,0,1-85.15,85.15Zm0,0" transform="translate(-284 -284)"/><path class="cls-1" d="M706.66,403.09A30.65,30.65,0,1,1,676,372.45a30.64,30.64,0,0,1,30.65,30.64Zm0,0" transform="translate(-284 -284)"/></svg>