<svg id="Слой_1" data-name="Слой 1" xmlns="http://www.w3.org/2000/svg" viewBox="0 0 50 50"><defs><style>.cls-1{fill:#cf9329;}.cls-1,.cls-2,.cls-3,.cls-4,.cls-5{fill-rule:evenodd;}.cls-2{fill:#da251d;}.cls-3{fill:#00923f;}.cls-4{fill:#0093dd;}.cls-5{fill:#1f1a17;}</style></defs><g id="layer1"><g id="g11"><path id="_130156232" data-name=" 130156232" class="cls-1" d="M11,6.44h3V8.59l3.9,2.22v2.37H35.11l-3-1.54v-3l4,2V6.72h3.1v3.88l3.76-2.07v3L39,13.66V15l3.84-2.12v3L39,18.07v1.38l3.84-2.11v2.89L39,22.34v1.38l3.84-2.11v3L39,26.7v1.38L42.88,26V29L39,31.14v1.39l3.84-2.11v3L39,35.5v1.38l3.84-2.1v2.91l-4.24,2.4c-2.72,5.72-7.18,9.5-13.7,9.57A14.21,14.21,0,0,1,11.05,38L7.12,40.09v-3L11,35V33.57L7.12,35.7v-3L11,30.6V29.22L7.12,31.34V28.27L11,26.15V24.77L7.12,26.89v-3L11,21.79V20.41L7.12,22.52V19.63L11,17.53V16.14L7.12,18.25v-3L11,13.11V11.73L7.12,13.82V10.75L11,8.64ZM22.69.34,25,2.58,27.31.34v4h4l-2.24,2.3L31.3,8.94h-4v4L25,10.69l-2.3,2.23v-4h-4L21,6.62,18.7,4.32h4Zm.76,6.29L25,5.09l1.55,1.54L25,8.18Zm-9.47,5V13.2h2.82Z"/><polygon id="_129680408" data-name=" 129680408" class="cls-2" points="36.06 15.28 36.05 30.39 13.95 30.39 13.94 15.28 36.06 15.28"/><path id="_129678200" data-name=" 129678200" class="cls-3" d="M36,35.26v.1a11,11,0,0,1-11,11.36A11.28,11.28,0,0,1,14,35.26V30.38H36Z"/><path id="_129677872" data-name=" 129677872" class="cls-4" d="M36.05,25.5l0,9.78H14V25.5Z"/><g id="g17"><path id="_129674264" data-name=" 129674264" class="cls-1" d="M23.06,20.21a7.7,7.7,0,0,0,.54,1.22c.3,0,.15,0,.46,0a2.29,2.29,0,0,1-.86.17c-.63-.14-1.06-.52-1.77-.65a5,5,0,0,0,1.27,1.6A10,10,0,0,1,24,22a3.61,3.61,0,0,0,.26.62c.35,0,.9-.08,1.46-.12v.21a21.42,21.42,0,0,0-2.82,1c-.62-.32-1.24-.61-1.87-.93a2,2,0,0,1,.38-.59c-.26-.35-.52-.6-.77-1l.37-.28-.85-.53L20,20.9l-.57-.32-.12.6-.52-.33-.21.64L18,21.15v.62l-.39.57.87.23.14.36a2.17,2.17,0,0,0-.46,2.29,1.88,1.88,0,0,1,.85-.66,3.34,3.34,0,0,0,.1,2.4c.14-.39.35-.73.76-.75.16.37.32.73.47,1.09a8.22,8.22,0,0,1-.82.6c-.13-.27-.25-.55-.38-.82a9.67,9.67,0,0,1-1.62.33l0-.42c-.29.13-.6.29-.89.41.09.13.22.22.31.35-.16.09-.32.23-.49.33.11.14.23.25.34.4l-.43.38c.1.12.25.25.35.38-.09.14-.34.15-.43.3a3.63,3.63,0,0,0,.55.38c.11.18.19.41.31.63l.62-.6a3.6,3.6,0,0,0,.86,1.91,2.58,2.58,0,0,1,.61-1.05A5.21,5.21,0,0,0,20.72,32c-.08-.75.11-1.26.66-1.31a5.66,5.66,0,0,0,.45.93c-2,2.25-3.68,4.56-2.9,7.59a2.19,2.19,0,0,1,.75-.24,2.66,2.66,0,0,1,.07.45,3.11,3.11,0,0,0-.77-.16l-.87.18.17.37-.55.4.48.38-.5.47.5.25-.35.55.57.21-.22.46.8.13a11.62,11.62,0,0,0,1.75-.9c.66.13,1.34.26,2,.45A13.93,13.93,0,0,1,23,40.56a.61.61,0,0,1,.47.53,2.57,2.57,0,0,0,.3-1.63.78.78,0,0,1,.66.52,3.78,3.78,0,0,0,.35-2,4.18,4.18,0,0,0,.44-.4,6.2,6.2,0,0,0,2.6,2.6,1.25,1.25,0,0,1,.63-.74,1,1,0,0,1,.45.37L28,40l-.44.64c.15.07.3.1.45.17l-.29.63.52.16c-.05.2-.09.41-.14.61.23,0,.48,0,.7-.06.11.25.19.49.3.74l.56-.3c.08.18.19.37.27.55.28-.13.52-.26.8-.38.34-.71.67-1.45,1-2.21.45-.23.9-.48,1.35-.74l-1.41-1.94a1.62,1.62,0,0,1,1-.15,3.34,3.34,0,0,0-1.48-1.93,2,2,0,0,1,1-.29,7.76,7.76,0,0,0-2.41-2.4A2.83,2.83,0,0,0,31,31.91a2.35,2.35,0,0,1-1.35-.22c-.6-.33-.6-.87-1.51-1.78a6.17,6.17,0,0,0,.59-1.05,1.37,1.37,0,0,1,.82.73A5.36,5.36,0,0,0,30,27a1.56,1.56,0,0,1,.89.47,5.66,5.66,0,0,0,0-2.8,1.42,1.42,0,0,1,.91,0,4.07,4.07,0,0,0-.71-2.06.89.89,0,0,1,1,.15,1.47,1.47,0,0,0-.85-1.33,2,2,0,0,0,.9-.76,1.6,1.6,0,0,1-1.3-.58.59.59,0,0,1,.62-.07,1.78,1.78,0,0,0-1.35-1.57,3.67,3.67,0,0,0-.3-.86,2.64,2.64,0,0,0-1.82.67,2.24,2.24,0,0,0-.71-.14,8.85,8.85,0,0,0-1.62.49c-.26.35-.54.67-.71.95a12,12,0,0,0-1.92.6Zm1.58,1.12c.29,0,.75.28,1,.17a.77.77,0,0,0,.08-.35,1.94,1.94,0,0,0-.73-.22c-.16,0-.23.28-.34.4Zm-.16.45a.87.87,0,0,1,.31-.07c.12,0,.27.06.42.08-.06,0-.12.09-.18.09a3.53,3.53,0,0,1-.55-.1Z"/><path id="_129686928" data-name=" 129686928" class="cls-5" d="M21.89,31.79l.54.78a3.21,3.21,0,0,0-.34,2.62c.81-.7,1.06-.84,1.34-.69a2.19,2.19,0,0,0,.4,2.47,2.07,2.07,0,0,1,.69-.85l.55,1.29-.53.47a3.3,3.3,0,0,1-.18,1.75,1.22,1.22,0,0,0-.84-.35,4,4,0,0,1,0,1.47.8.8,0,0,0-.69-.36A9.47,9.47,0,0,0,22.65,42c-.63-.12-1.26-.3-1.89-.42a11.28,11.28,0,0,1-1.74.84l-.46-1.64L19,39.41a3.79,3.79,0,0,1,.93.27c0-.27-.11-.58-.11-.85a1.28,1.28,0,0,0-.73.25c-.74-2.46.66-4.88,2.82-7.29Zm-3.51-9.74,2-.81a5,5,0,0,1,.78.9,3.28,3.28,0,0,0-.32.7l1.82.92c-1.27.47-1.64.88-1.76,1.27.78.07,1.21.19,1.27.37a3,3,0,0,0-1.8.73,1.51,1.51,0,0,1,.89.53l-.8.56-.59-1.12a.81.81,0,0,0-.84.54,5,5,0,0,1,.05-2.22,1.13,1.13,0,0,0-.91.51,2,2,0,0,1,.53-2c-.12-.28-.21-.57-.34-.85Zm4.87-1.79a10.63,10.63,0,0,1,1.8-.5c.23-.3.5-.66.75-1a8.1,8.1,0,0,1,1.56-.44,2.31,2.31,0,0,1,.68.15,2.51,2.51,0,0,1,1.71-.66,2.42,2.42,0,0,1,.29.82,1.4,1.4,0,0,1,1.23,1.2.56.56,0,0,0-.57.24,1.68,1.68,0,0,0,1.17.77,3.24,3.24,0,0,1-.84.59,1.68,1.68,0,0,1,.91,1c-.51-.12-.87-.09-1,.16a5.36,5.36,0,0,1,.74,1.86.92.92,0,0,0-.9.13,7,7,0,0,1,.06,2.61,1.27,1.27,0,0,0-.91-.45,8.56,8.56,0,0,1-.39,2.43,1.25,1.25,0,0,0-.8-.64A5.7,5.7,0,0,1,27.94,30c.57.35.76,1,1.13,1.46a1.74,1.74,0,0,0,1.65.6,5.75,5.75,0,0,1-1.25,1,9.75,9.75,0,0,1,2.38,2.24,1.57,1.57,0,0,0-1,.45,3.86,3.86,0,0,1,1.57,1.76,1.76,1.76,0,0,0-1,.24c.47.64.94,1.32,1.42,2l-1.32.76c-.33.67-.58,1.38-.91,2l-1.76-.79c-.26-.54-.51-1.13-.77-1.66.33-.1.66-.14,1-.24a1.48,1.48,0,0,0-.7-.64,1.6,1.6,0,0,0-.67.64c-1.57-.67-2.41-2.28-3.15-4a1.62,1.62,0,0,0-.77.89,2.08,2.08,0,0,1-.13-2.38c-.31-.19-.68-.26-1.53.59a3.32,3.32,0,0,1,.46-2.35,20.3,20.3,0,0,1-1.18-2.11c-.5.09-.84.46-.93,1.23a7.15,7.15,0,0,1-1.28-1.09,1.54,1.54,0,0,0-.72,1,3.84,3.84,0,0,1-.64-1.82,1.69,1.69,0,0,1-.81-.18c.14-.67.27-1.34.41-2,.51-.18,1.18-.15,1.54-.29.12.27.29.57.4.84.71-.46,1.37-1,2.11-1.45a1.76,1.76,0,0,0-.8-.62,3.83,3.83,0,0,1,1.74-.56c-.11-.37-.55-.54-1.23-.56a1.14,1.14,0,0,1,.53-.53,33.27,33.27,0,0,1,4-1.65.47.47,0,0,0,0-.43,13.73,13.73,0,0,1-1.39.08,1.61,1.61,0,0,1-.22-.51,6.16,6.16,0,0,0,.94.16,1.43,1.43,0,0,0,.48-.16,1.93,1.93,0,0,0,.27-.85,2.16,2.16,0,0,0-.87-.25c-.23,0-.34.3-.46.44s-.58,0-.84,0a3.91,3.91,0,0,1-.45-1Zm2.31-.38a.08.08,0,0,0-.08.09.33.33,0,0,0,.25.16c.07,0,.19-.07.27-.05s.26.21.35.21.12-.19.06-.28-.08,0-.13,0-.1-.08-.17-.09-.19.05-.31.05-.16-.09-.24-.08Zm.39.23c.09,0,.16.1.16.21s-.07.21-.16.21-.15-.09-.15-.21S25.87,20.11,26,20.11Z"/><path id="_129685976" data-name=" 129685976" class="cls-2" d="M21.63,21.11a8.37,8.37,0,0,0,1.67.58c.3,0,.86-.29,1.28-.27s.5.2,1,.19l-.11.13c-.28,0-.58-.12-.73-.09a13.62,13.62,0,0,0-2,.73,8.22,8.22,0,0,1-1.09-1.27Z"/><path id="_129675424" data-name=" 129675424" class="cls-2" d="M28,40.07l.82,1.78,1.85.85-.75.37-.27-.55-.56.28-.29-.72-.62.06.09-.58-.5-.16.28-.63-.42-.14.37-.56Zm-9.76-.55.68-.16-.42,1.42L19,42.59l-.68-.11.17-.42-.5-.23.32-.54-.43-.24.44-.44-.43-.4.46-.37-.12-.32Zm2-18.92.61.35L18.28,22l.17.45-.69-.19.3-.44,0-.5.62.32.2-.65.52.34.15-.6.55.3Zm-2.85,6.55A23.44,23.44,0,0,1,17,29.64a1.89,1.89,0,0,0,.73.25l-.53.45c-.09-.16-.17-.36-.26-.52a1.68,1.68,0,0,1-.46-.27c.1-.1.29-.13.39-.32-.1-.13-.23-.24-.33-.37.12-.12.25-.26.38-.37-.09-.14-.23-.27-.32-.4.15-.12.36-.24.52-.35l-.31-.32c.19-.1.44-.17.63-.27Z"/></g></g></g></svg>