<?xml version="1.0" encoding="utf-8"?>
<!-- Generator: Adobe Illustrator 24.1.2, SVG Export Plug-In . SVG Version: 6.00 Build 0)  -->
<svg version="1.1" id="Слой_1" xmlns="http://www.w3.org/2000/svg" xmlns:xlink="http://www.w3.org/1999/xlink" x="0px" y="0px"
	 viewBox="0 0 616.1 139.3" style="enable-background:new 0 0 616.1 139.3;" xml:space="preserve">
<style type="text/css">
	.st0{fill:#FFFFFF;}
</style>
<path class="st0" d="M254.3,84.6l-19.4-57.7h12.4l14.1,44.4l14-44.4h12.5l-19.4,57.7H254.3z"/>
<path class="st0" d="M296.9,67.3c1.4,5.2,5.3,7.8,11.6,7.8c4.1,0,7.1-1.4,9.2-4.1l8.6,4.9c-4.1,5.9-10.1,8.8-18,8.8
	c-6.8,0-12.3-2.1-16.4-6.2c-4.1-4.1-6.4-9.8-6.2-15.6c-0.2-5.8,2-11.4,6.1-15.5c4.1-4.2,9.3-6.2,15.7-6.2c5.7-0.2,11.1,2.1,15,6.3
	c3.9,4.2,6.1,9.8,5.9,15.5c0,1.5-0.1,2.9-0.4,4.4H296.9z M296.7,59h21c-0.4-2.5-1.8-4.7-3.8-6.3c-1.9-1.4-4.1-2.1-6.5-2.1
	c-2.5-0.1-5.1,0.7-7.1,2.2C298.5,54.4,297.2,56.6,296.7,59z"/>
<path class="st0" d="M346.5,50.5c0.9-2.5,2.6-4.6,4.9-5.9c2.3-1.3,5-2,7.6-2v11.9c-3-0.4-6.1,0.3-8.7,2c-2.6,1.7-3.8,4.5-3.8,8.5
	v19.7h-10.6V43.4h10.6V50.5z"/>
<path class="st0" d="M388.1,42.3c4.2-0.1,8.2,1.5,11.2,4.5c2.9,3,4.4,7.2,4.4,12.5v25.3h-10.6v-24c0.2-2.3-0.7-4.6-2.2-6.3
	c-1.6-1.5-3.7-2.3-5.9-2.2c-2.5-0.1-4.9,0.8-6.6,2.5c-1.7,1.7-2.5,4.3-2.5,7.7v22.3h-10.7V26.9h10.6V48
	C378.4,44.2,382.5,42.3,388.1,42.3z"/>
<path class="st0" d="M447.9,78.4c-8.5,8.6-22.5,8.7-31.1,0.2s-8.7-22.5-0.2-31.1c8.5-8.6,22.5-8.7,31.1-0.2
	c4.2,4.1,6.5,9.8,6.5,15.7C454.3,68.7,452,74.3,447.9,78.4z M424.4,71.1c2.1,2.1,5,3.3,8,3.2c3,0.1,5.9-1.1,8-3.2
	c4.3-4.6,4.3-11.7,0-16.3c-2.1-2.1-5-3.3-8-3.2c-3-0.1-5.9,1.1-8,3.2C420.2,59.3,420.2,66.4,424.4,71.1z"/>
<path class="st0" d="M498.1,26.9v10.9h-15.6v46.8h-11.4V37.8h-15.5V26.9H498.1z"/>
<path class="st0" d="M531.5,78.4c-8.5,8.6-22.5,8.7-31.1,0.2s-8.7-22.5-0.2-31.1c8.5-8.6,22.5-8.7,31.1-0.2
	c4.2,4.1,6.5,9.8,6.5,15.7C538,68.7,535.7,74.3,531.5,78.4z M508.1,71.1c2.1,2.1,5,3.3,8,3.2c3,0.1,5.9-1.1,8-3.2
	c4.3-4.6,4.3-11.7,0-16.3c-2.1-2.1-5-3.3-8-3.2c-3-0.1-5.9,1.1-8,3.2C503.8,59.3,503.8,66.4,508.1,71.1z"/>
<path class="st0" d="M572.6,42.3h10.6v41.2h-10.6v-4.6c-2.6,3.8-6.7,5.7-12.3,5.7c-4.2,0.1-8.3-1.5-11.2-4.5
	c-2.9-3-4.4-7.1-4.4-12.5V42.3h10.6v24c-0.2,2.3,0.6,4.6,2.2,6.3c1.6,1.5,3.7,2.3,5.9,2.2c2.5,0.1,4.9-0.8,6.6-2.5
	c1.7-1.7,2.5-4.3,2.5-7.7L572.6,42.3z"/>
<path class="st0" d="M603.6,50.5c0.9-2.5,2.6-4.6,4.9-5.9c2.3-1.3,5-2,7.6-2v11.9c-3-0.4-6.1,0.3-8.7,2c-2.6,1.7-3.8,4.5-3.8,8.5
	v19.7H593V43.4h10.6V50.5z"/>
<path class="st0" d="M303.4,99.4h2v9.2h-2v-1.3c-0.7,1-2,1.6-3.2,1.6c-1.2,0-2.4-0.5-3.2-1.4c-1.8-1.9-1.8-4.9,0-6.9
	c0.8-0.9,2-1.4,3.2-1.4c1.3-0.1,2.5,0.5,3.2,1.5V99.4z M298.4,106.2c1.2,1.1,3,1.1,4.2,0c1.1-1.2,1.1-3,0-4.2c-1.2-1.1-3-1.1-4.2,0
	C297.3,103.1,297.3,105,298.4,106.2z"/>
<path class="st0" d="M317.8,103.9c0.9,0.3,1.4,1.2,1.4,2.1c0,0.7-0.3,1.4-0.8,1.9c-0.6,0.5-1.5,0.8-2.3,0.7h-4.7v-9.2h4.3
	c0.8,0,1.6,0.2,2.2,0.7c0.5,0.5,0.8,1.1,0.8,1.8C318.8,102.7,318.4,103.5,317.8,103.9z M315.6,101.1h-2.3v2h2.3c0.8,0,1.2-0.3,1.2-1
	S316.4,101.1,315.6,101.1z M315.9,106.9c0.8,0,1.3-0.4,1.3-1.1c0-0.3-0.1-0.6-0.3-0.7c-0.3-0.2-0.6-0.3-0.9-0.3h-2.6v2.1
	L315.9,106.9z"/>
<path class="st0" d="M331.2,99.4v1.9h-3v7.3h-2v-7.3h-3v-1.9H331.2z"/>
<path class="st0" d="M340.2,108.9c-2.7,0-4.8-2.1-4.9-4.8c0,0,0-0.1,0-0.1c0-1.3,0.5-2.5,1.4-3.4c1.9-1.9,5-2,6.9-0.1
	c1.9,1.9,2,5,0.1,6.9C342.8,108.4,341.6,108.9,340.2,108.9z M338.2,106.1c1.1,1.1,3,1.1,4.1,0c1.1-1.2,1.1-3,0-4.2
	c-1.1-1.1-2.9-1.1-4.1,0c-0.6,0.6-0.9,1.3-0.8,2.1C337.4,104.8,337.7,105.6,338.2,106.1L338.2,106.1z"/>
<path class="st0" d="M355.8,99.2c1.2,0,2.4,0.5,3.3,1.5c1.8,1.9,1.8,4.9,0,6.9c-0.8,0.9-2,1.4-3.2,1.4c-1.3,0.1-2.5-0.5-3.2-1.5v5
	h-2v-13h2v1.3C353.3,99.7,354.5,99.1,355.8,99.2z M353.4,106.2c1.2,1.1,3,1.1,4.2,0c1.1-1.2,1.1-3,0-4.2c-1.2-1.1-3-1.1-4.2,0
	C352.3,103.1,352.3,105,353.4,106.2z"/>
<path class="st0" d="M370.3,108.9c-2.7,0-4.9-2.2-4.9-4.8c0-2.7,2.2-4.9,4.9-4.9c0.9,0,1.7,0.2,2.5,0.7c0.7,0.4,1.3,1,1.7,1.7
	l-1.7,1c-0.2-0.4-0.6-0.8-1-1c-1.1-0.6-2.6-0.4-3.5,0.5c-1.1,1.2-1.1,3,0,4.1c0.5,0.5,1.2,0.8,2,0.8c0.5,0,1-0.1,1.5-0.4
	c0.4-0.2,0.8-0.6,1-1l1.7,1c-0.4,0.7-1,1.3-1.7,1.8C371.9,108.7,371.1,108.9,370.3,108.9z"/>
<path class="st0" d="M387.7,108.6h-2.4l-3.8-4.3v4.3h-2v-9.2h2v4.1l3.6-4.1h2.4l-4.1,4.5L387.7,108.6z"/>
<path class="st0" d="M399.5,99.4h1.5v9.2h-2v-5.9l-4.7,5.9h-1.5v-9.2h2v5.8L399.5,99.4z"/>
<path class="st0" d="M408.5,104.9c0.1,0.6,0.5,1.2,1,1.6c0.6,0.4,1.3,0.6,1.9,0.6c0.9,0.1,1.8-0.4,2.4-1.2l1.6,1
	c-0.9,1.3-2.4,2.1-4,2c-1.3,0.1-2.7-0.4-3.6-1.4c-0.9-0.9-1.4-2.2-1.4-3.5c-0.1-2.6,2-4.8,4.6-4.9c0.1,0,0.2,0,0.3,0
	c1.3,0,2.5,0.5,3.3,1.4c0.9,0.9,1.3,2.2,1.3,3.5c0,0.3,0,0.6-0.1,0.8L408.5,104.9z M408.5,103.3h5.4c-0.1-0.7-0.4-1.3-0.9-1.7
	c-0.5-0.4-1.1-0.6-1.7-0.6c-0.7,0-1.3,0.2-1.8,0.6C409,102,408.6,102.6,408.5,103.3L408.5,103.3z"/>
<path class="st0" d="M437.8,108.6h-2.4l-3.8-4.3v4.3h-2v-9.2h2v4.1l3.6-4.1h2.4l-4.1,4.5L437.8,108.6z"/>
<path class="st0" d="M449.3,103.9c0.9,0.3,1.4,1.2,1.4,2.1c0,0.7-0.3,1.4-0.8,1.9c-0.6,0.5-1.4,0.8-2.2,0.7h-4.7v-9.2h4.3
	c0.8,0,1.6,0.2,2.2,0.7c0.5,0.5,0.8,1.1,0.8,1.8C450.3,102.7,449.9,103.5,449.3,103.9z M447.1,101.1h-2.3v2h2.3c0.8,0,1.2-0.3,1.2-1
	S447.9,101.1,447.1,101.1z M447.4,106.9c0.8,0,1.3-0.4,1.3-1.1c0-0.3-0.1-0.6-0.3-0.7c-0.3-0.2-0.6-0.3-0.9-0.3h-2.6v2.1
	L447.4,106.9z"/>
<path class="st0" d="M457.5,104.9c0.1,0.6,0.5,1.2,1,1.6c0.6,0.4,1.3,0.6,1.9,0.6c0.9,0.1,1.8-0.4,2.4-1.2l1.6,1
	c-0.9,1.3-2.4,2.1-4,2c-1.3,0.1-2.7-0.4-3.6-1.4c-0.9-0.9-1.4-2.2-1.4-3.5c0-1.3,0.5-2.5,1.4-3.5c0.9-0.9,2.2-1.4,3.5-1.4
	c1.3,0,2.5,0.5,3.3,1.4c0.9,0.9,1.3,2.2,1.3,3.5c0,0.3,0,0.6-0.1,0.8L457.5,104.9z M457.5,103.3h5.4c-0.2-1.3-1.3-2.3-2.6-2.3
	C458.9,100.9,457.7,101.9,457.5,103.3L457.5,103.3z"/>
<path class="st0" d="M474.7,108.9c-2.7,0-4.9-2.2-4.9-4.8c0-2.7,2.2-4.9,4.9-4.9c0.9,0,1.7,0.2,2.5,0.7c0.7,0.4,1.3,1,1.7,1.7
	l-1.7,1c-0.2-0.4-0.6-0.8-1-1c-0.4-0.3-0.9-0.4-1.5-0.4c-1.6,0-2.8,1.2-2.9,2.8c0,0,0,0.1,0,0.1c0,0.8,0.3,1.5,0.8,2.1
	c0.9,0.9,2.4,1.1,3.5,0.4c0.4-0.2,0.8-0.6,1-1l1.7,1c-0.4,0.7-1,1.3-1.7,1.8C476.3,108.7,475.5,108.9,474.7,108.9z"/>
<path class="st0" d="M490.9,99.4v1.9h-3v7.3h-2v-7.3h-3v-1.9H490.9z"/>
<path class="st0" d="M511.3,99.4v1.9h-3v7.3h-2v-7.3h-3v-1.9H511.3z"/>
<path class="st0" d="M522.6,99.4h2.1l-3.5,9.5c-0.3,1-1,1.9-1.8,2.6c-0.8,0.6-1.7,0.9-2.7,0.8v-1.9c0.5,0.1,1.1-0.1,1.5-0.4
	c0.4-0.4,0.8-0.8,0.9-1.4l0.1-0.1l-3.9-9.2h2.1l2.8,6.7L522.6,99.4z"/>
<path class="st0" d="M534.9,99.2c1.2,0,2.4,0.5,3.3,1.4c1.8,1.9,1.8,4.9,0,6.9c-0.8,0.9-2,1.4-3.3,1.4c-1.3,0.1-2.5-0.5-3.2-1.5v5
	h-2V99.4h2v1.3C532.4,99.7,533.6,99.1,534.9,99.2z M532.5,106.2c1.3,1,3.2,0.7,4.2-0.6c0.8-1.1,0.8-2.5,0-3.6c-1.2-1.1-3-1.1-4.2,0
	C531.4,103.1,531.4,105,532.5,106.2z"/>
<path class="st0" d="M549,102.6c0.9,0,1.7,0.3,2.4,0.8c0.6,0.6,1,1.4,1,2.2c0,0.8-0.3,1.6-1,2.2c-0.7,0.6-1.5,0.9-2.4,0.8h-4v-9.2h2
	v3.1L549,102.6z M549,106.9c0.4,0,0.7-0.1,1-0.4c0.5-0.5,0.5-1.2,0.1-1.7c0,0-0.1-0.1-0.1-0.1c-0.3-0.2-0.6-0.4-1-0.3h-2v2.5H549z
	 M553.4,99.4h2v9.2h-2V99.4z"/>
<path class="st0" d="M213.7,97.4c-7.6,0.6-15.3-0.2-22.6-2.4c11.8-19.2,14.7-35.8,15.5-45.3c1-11.3-0.6-17.1-1.2-19.1
	c-0.8-2.6-6.8-22-26.2-28.6c-13.7-4.6-25.5-0.1-28.6,1.2c-0.9,0.4-19,8-25,27.4c-2.5,7.9-1.8,14.4-1.2,20.3
	c3,28.3,20.9,47,22.6,48.9l0.7,0.7c-23.1,13.9-52,13.6-74.9-0.7c1.8-1.9,19.6-20.6,22.6-48.9c0.6-5.8,1.3-12.3-1.2-20.3
	c-6-19.4-24.1-27.1-25-27.4C66.1,2,54.3-2.6,40.6,2C21.2,8.6,15.1,28,14.3,30.6c-0.6,1.9-2.1,7.8-1.2,19.1
	c0.8,9.5,3.7,26.1,15.5,45.3c-7.3,2.1-15,3-22.6,2.4l-6,26.2c16.6,2.4,33.6,0,48.9-7c9.1,7.6,30.2,22.3,60.4,22.7
	c31.6,0.4,53.7-15,62.4-22.3c15.1,6.7,31.7,9,48,6.6L213.7,97.4z M53.7,79.8L52.5,81c-6.1-8.5-10.2-18.3-11.9-28.6
	c-2-12.5,1.2-17.4,2.4-19.1c1.5-2.1,3.6-3.8,6-4.8c4.8-1.9,10.3-1,14.3,2.4c3.8,3.3,4.4,7.9,4.8,10.7C70.1,57.9,57.4,75,53.7,79.8
	L53.7,79.8z M167.8,79.7l-1.1,1.3c-6.8-8-11.7-17.4-14.2-27.5c-3-12.3-0.2-17.5,0.8-19.2c3.9-6.5,12.3-8.7,18.8-4.8
	c0.4,0.2,0.8,0.5,1.2,0.8c4,3,5,7.5,5.6,10.3C182.3,56.6,171.1,74.6,167.8,79.7L167.8,79.7z"/>
<path class="st0" d="M500.5,103.3v1.6h-6v-1.6H500.5z"/>
</svg>
