<svg id="Слой_1" data-name="Слой 1" xmlns="http://www.w3.org/2000/svg" viewBox="0 0 616.13 139.29"><defs><style>.cls-1{fill:#374dff;}</style></defs><path class="cls-1" d="M486.18,555,466.8,497.3h12.37l14.1,44.37,14-44.37h12.46L500.28,555Z" transform="translate(-231.93 -470.36)"/><path class="cls-1" d="M528.82,537.63q2.14,7.75,11.63,7.75,6.09,0,9.23-4.12l8.58,4.94q-6.1,8.84-18,8.83-10.23,0-16.41-6.19a21.1,21.1,0,0,1-6.19-15.58,21.32,21.32,0,0,1,6.11-15.55q6.09-6.23,15.67-6.23a19.65,19.65,0,0,1,15,6.27,21.74,21.74,0,0,1,5.9,15.51,25.41,25.41,0,0,1-.41,4.37Zm-.17-8.25h21a10,10,0,0,0-3.75-6.27,10.8,10.8,0,0,0-6.47-2.06,11.2,11.2,0,0,0-7.1,2.19A10.43,10.43,0,0,0,528.65,529.38Z" transform="translate(-231.93 -470.36)"/><path class="cls-1" d="M578.38,520.89a11.13,11.13,0,0,1,4.91-5.94,14.94,14.94,0,0,1,7.63-2v11.87a12.56,12.56,0,0,0-8.7,2q-3.84,2.56-3.84,8.5V555H567.74V513.79h10.64Z" transform="translate(-231.93 -470.36)"/><path class="cls-1" d="M620,512.64a14.92,14.92,0,0,1,11.17,4.53q4.41,4.55,4.42,12.54V555H625V531a8.47,8.47,0,0,0-2.23-6.31,8.08,8.08,0,0,0-5.94-2.18,8.74,8.74,0,0,0-6.59,2.55c-1.66,1.71-2.48,4.26-2.48,7.67V555H597.1V497.3h10.64v21.11Q611.61,512.64,620,512.64Z" transform="translate(-231.93 -470.36)"/><path class="cls-1" d="M679.82,548.72a22,22,0,1,1,6.35-15.46A21.14,21.14,0,0,1,679.82,548.72Zm-23.46-7.3a10.7,10.7,0,0,0,8,3.22,10.86,10.86,0,0,0,8-3.22,12,12,0,0,0,0-16.33,10.89,10.89,0,0,0-8-3.21,10.73,10.73,0,0,0-8,3.21,12.07,12.07,0,0,0,0,16.33Z" transform="translate(-231.93 -470.36)"/><path class="cls-1" d="M730,497.3v10.89H714.38V555H703V508.19H687.49V497.3Z" transform="translate(-231.93 -470.36)"/><path class="cls-1" d="M763.45,548.72a22,22,0,1,1,6.35-15.46A21.14,21.14,0,0,1,763.45,548.72ZM740,541.42a10.7,10.7,0,0,0,8,3.22,10.86,10.86,0,0,0,8-3.22,12,12,0,0,0,0-16.33,10.89,10.89,0,0,0-8-3.21,10.73,10.73,0,0,0-8,3.21,12.07,12.07,0,0,0,0,16.33Z" transform="translate(-231.93 -470.36)"/><path class="cls-1" d="M804.52,512.64h10.64v41.23H804.52v-4.61Q800.65,555,792.23,555a14.89,14.89,0,0,1-11.17-4.54Q776.65,546,776.65,538V512.64h10.64v24a8.47,8.47,0,0,0,2.22,6.31,8.16,8.16,0,0,0,5.94,2.18,8.78,8.78,0,0,0,6.6-2.55q2.48-2.57,2.47-7.67Z" transform="translate(-231.93 -470.36)"/><path class="cls-1" d="M835.53,520.89a11.13,11.13,0,0,1,4.91-5.94,14.94,14.94,0,0,1,7.63-2v11.87a12.56,12.56,0,0,0-8.7,2q-3.84,2.56-3.84,8.5V555H824.89V513.79h10.64Z" transform="translate(-231.93 -470.36)"/><path class="cls-1" d="M535.32,569.78h2V579h-2v-1.32a3.74,3.74,0,0,1-3.23,1.56,4.31,4.31,0,0,1-3.24-1.41,5.06,5.06,0,0,1,0-6.88,4.31,4.31,0,0,1,3.24-1.41,3.76,3.76,0,0,1,3.23,1.55Zm-5,6.73a3,3,0,0,0,4.17,0,3.11,3.11,0,0,0,0-4.23,3,3,0,0,0-4.17,0,3.11,3.11,0,0,0,0,4.23Z" transform="translate(-231.93 -470.36)"/><path class="cls-1" d="M549.7,574.26a2.18,2.18,0,0,1,1.37,2.13,2.45,2.45,0,0,1-.79,1.89A3.19,3.19,0,0,1,548,579h-4.72v-9.22h4.35a3.19,3.19,0,0,1,2.21.71,2.39,2.39,0,0,1,.78,1.84A2.13,2.13,0,0,1,549.7,574.26Zm-2.17-2.78h-2.31v2h2.31c.81,0,1.21-.35,1.21-1S548.34,571.48,547.53,571.48Zm.33,5.79c.84,0,1.25-.36,1.25-1.09a.88.88,0,0,0-.33-.74,1.42,1.42,0,0,0-.92-.27h-2.64v2.1Z" transform="translate(-231.93 -470.36)"/><path class="cls-1" d="M563.15,569.78v1.92h-3V579h-2v-7.3h-3v-1.92Z" transform="translate(-231.93 -470.36)"/><path class="cls-1" d="M572.16,579.24a4.81,4.81,0,0,1-4.86-4.85,4.62,4.62,0,0,1,1.42-3.44,4.88,4.88,0,1,1,3.44,8.29Zm-2-2.76a2.93,2.93,0,0,0,4.09,0,3,3,0,0,0,0-4.17,2.88,2.88,0,0,0-4.92,2.08A2.82,2.82,0,0,0,570.12,576.48Z" transform="translate(-231.93 -470.36)"/><path class="cls-1" d="M587.75,569.54A4.33,4.33,0,0,1,591,571a5.07,5.07,0,0,1,0,6.89,4.32,4.32,0,0,1-3.24,1.4,3.72,3.72,0,0,1-3.23-1.55v5h-2V569.78h2v1.33A3.74,3.74,0,0,1,587.75,569.54Zm-2.4,7a3,3,0,0,0,4.17,0,3.11,3.11,0,0,0,0-4.23,3,3,0,0,0-4.17,0,3.11,3.11,0,0,0,0,4.23Z" transform="translate(-231.93 -470.36)"/><path class="cls-1" d="M602.18,579.24a4.85,4.85,0,1,1,0-9.7,4.81,4.81,0,0,1,2.46.65,4.25,4.25,0,0,1,1.66,1.73l-1.72,1a2.33,2.33,0,0,0-1-1,3,3,0,0,0-3.5.45,3,3,0,0,0,0,4.13,2.74,2.74,0,0,0,2,.83,2.77,2.77,0,0,0,1.46-.39,2.51,2.51,0,0,0,1-1l1.71,1a4.44,4.44,0,0,1-1.69,1.75A4.8,4.8,0,0,1,602.18,579.24Z" transform="translate(-231.93 -470.36)"/><path class="cls-1" d="M619.67,579h-2.38l-3.78-4.26V579h-2v-9.22h2v4.08l3.57-4.08h2.44l-4.06,4.52Z" transform="translate(-231.93 -470.36)"/><path class="cls-1" d="M631.38,569.78h1.53V579h-2v-5.86L626.23,579H624.7v-9.22h2v5.85Z" transform="translate(-231.93 -470.36)"/><path class="cls-1" d="M640.47,575.24a2.52,2.52,0,0,0,1,1.62,3.31,3.31,0,0,0,1.94.56,2.7,2.7,0,0,0,2.38-1.15l1.64,1a4.57,4.57,0,0,1-4,2,4.9,4.9,0,0,1-3.63-1.37,4.67,4.67,0,0,1-1.39-3.48,4.73,4.73,0,0,1,4.87-4.85,4.35,4.35,0,0,1,3.33,1.42,4.92,4.92,0,0,1,1.3,3.45,5.87,5.87,0,0,1-.07.83Zm0-1.62h5.42a2.66,2.66,0,0,0-.93-1.7,2.71,2.71,0,0,0-1.71-.57,2.78,2.78,0,0,0-1.84.61A2.74,2.74,0,0,0,640.45,573.62Z" transform="translate(-231.93 -470.36)"/><path class="cls-1" d="M669.77,579h-2.38l-3.78-4.26V579h-2v-9.22h2v4.08l3.58-4.08h2.43l-4.06,4.52Z" transform="translate(-231.93 -470.36)"/><path class="cls-1" d="M681.18,574.26a2.18,2.18,0,0,1,1.37,2.13,2.45,2.45,0,0,1-.79,1.89,3.19,3.19,0,0,1-2.24.72H674.8v-9.22h4.35a3.19,3.19,0,0,1,2.21.71,2.39,2.39,0,0,1,.78,1.84A2.13,2.13,0,0,1,681.18,574.26ZM679,571.48H676.7v2H679c.81,0,1.21-.35,1.21-1S679.82,571.48,679,571.48Zm.33,5.79c.84,0,1.25-.36,1.25-1.09a.88.88,0,0,0-.33-.74,1.42,1.42,0,0,0-.92-.27H676.7v2.1Z" transform="translate(-231.93 -470.36)"/><path class="cls-1" d="M689.43,575.24a2.52,2.52,0,0,0,1,1.62,3.29,3.29,0,0,0,1.94.56,2.7,2.7,0,0,0,2.38-1.15l1.64,1a4.57,4.57,0,0,1-4,2,4.9,4.9,0,0,1-3.63-1.37,4.67,4.67,0,0,1-1.39-3.48,4.73,4.73,0,0,1,1.37-3.45,4.68,4.68,0,0,1,3.5-1.4,4.35,4.35,0,0,1,3.33,1.42,4.92,4.92,0,0,1,1.3,3.45,7.88,7.88,0,0,1-.07.83Zm0-1.62h5.42a2.56,2.56,0,0,0-2.64-2.27,2.67,2.67,0,0,0-2.78,2.27Z" transform="translate(-231.93 -470.36)"/><path class="cls-1" d="M706.58,579.24a4.85,4.85,0,1,1,0-9.7,4.8,4.8,0,0,1,2.45.65,4.18,4.18,0,0,1,1.66,1.73l-1.72,1a2.33,2.33,0,0,0-1-1,2.72,2.72,0,0,0-1.46-.38,2.82,2.82,0,0,0-2.86,2.89,2.8,2.8,0,0,0,.82,2.07,2.92,2.92,0,0,0,3.5.44,2.51,2.51,0,0,0,1-1l1.72,1a4.47,4.47,0,0,1-1.7,1.75A4.79,4.79,0,0,1,706.58,579.24Z" transform="translate(-231.93 -470.36)"/><path class="cls-1" d="M722.8,569.78v1.92h-3V579h-2v-7.3h-3v-1.92Z" transform="translate(-231.93 -470.36)"/><path class="cls-1" d="M743.18,569.78v1.92h-3V579h-2v-7.3h-3v-1.92Z" transform="translate(-231.93 -470.36)"/><path class="cls-1" d="M754.52,569.78h2.12l-3.54,9.52a5.52,5.52,0,0,1-1.81,2.62,3.94,3.94,0,0,1-2.69.77v-1.86a2.21,2.21,0,0,0,1.52-.38,2.88,2.88,0,0,0,.93-1.39l.06-.13-3.87-9.15h2.12l2.8,6.72Z" transform="translate(-231.93 -470.36)"/><path class="cls-1" d="M766.8,569.54a4.33,4.33,0,0,1,3.25,1.41,5.1,5.1,0,0,1,0,6.89,4.32,4.32,0,0,1-3.25,1.4,3.72,3.72,0,0,1-3.22-1.55v5h-2V569.78h2v1.33A3.73,3.73,0,0,1,766.8,569.54Zm-2.4,7a3,3,0,0,0,4.17-4.23,3,3,0,0,0-4.17,0,3.14,3.14,0,0,0,0,4.23Z" transform="translate(-231.93 -470.36)"/><path class="cls-1" d="M780.91,572.92a3.47,3.47,0,0,1,2.41.84,2.8,2.8,0,0,1,.95,2.2,2.83,2.83,0,0,1-.95,2.2,3.47,3.47,0,0,1-2.41.84h-4v-9.22h2v3.14Zm0,4.3a1.39,1.39,0,0,0,1-.36,1.22,1.22,0,0,0,0-1.81,1.43,1.43,0,0,0-1-.34h-2v2.51Zm4.44-7.44h2V579h-2Z" transform="translate(-231.93 -470.36)"/><path class="cls-1" d="M445.64,567.77A63.75,63.75,0,0,1,423,565.39c11.81-19.24,14.69-35.85,15.5-45.31.95-11.25-.63-17.14-1.2-19.07-.78-2.65-6.84-22-26.23-28.62-13.66-4.64-25.5-.06-28.61,1.19-.9.37-19.05,8.05-25,27.43-2.45,7.92-1.82,14.42-1.19,20.26,3,28.26,20.86,47,22.65,48.89l.67.67a71.56,71.56,0,0,1-74.88-.68c1.82-1.86,19.62-20.63,22.65-48.88.63-5.84,1.26-12.34-1.19-20.26-6-19.38-24.14-27.06-25-27.43-3.1-1.25-14.94-5.83-28.61-1.19C253.08,479,247,498.36,246.24,501c-.57,1.93-2.15,7.82-1.19,19.07.8,9.46,3.68,26.07,15.5,45.31a63.8,63.8,0,0,1-22.65,2.38l-6,26.23a87.36,87.36,0,0,0,48.87-7c9.11,7.64,30.21,22.26,60.37,22.66,31.57.4,53.66-15,62.4-22.28a87.37,87.37,0,0,0,48,6.64Zm-160.06-17.6-1.19,1.19a68.2,68.2,0,0,1-11.92-28.62c-2-12.46,1.19-17.44,2.38-19.07a14.09,14.09,0,0,1,6-4.77,14.27,14.27,0,0,1,14.3,2.38c3.76,3.28,4.42,7.94,4.77,10.73C302,528.3,289.29,545.41,285.58,550.17Zm114.15-.1-1.09,1.28a68,68,0,0,1-14.21-27.54c-3-12.26-.24-17.49.81-19.21a13.71,13.71,0,0,1,20-4c4,3,5.05,7.55,5.63,10.31C414.26,526.94,403,545,399.73,550.07Z" transform="translate(-231.93 -470.36)"/><path class="cls-1" d="M732.4,573.68v1.59h-6v-1.59Z" transform="translate(-231.93 -470.36)"/></svg>