<svg id="Слой_1" data-name="Слой 1" xmlns="http://www.w3.org/2000/svg" viewBox="0 0 497.42 604.94"><defs><style>.cls-1{fill:#374dff;}</style></defs><path class="cls-1" d="M1072.65,587.62l15.18,9.8a8.85,8.85,0,0,0,10.78-.9l36-32.82a8.86,8.86,0,0,0-11.94-13.1l-30.94,28.22-9.45-6.09a8.86,8.86,0,1,0-9.61,14.89Z" transform="translate(-964.65 -380.06)"/><path class="cls-1" d="M1166.29,582.42h125.84a8.86,8.86,0,0,0,0-17.72H1166.29a8.86,8.86,0,1,0,0,17.72Z" transform="translate(-964.65 -380.06)"/><path class="cls-1" d="M1166.29,661.46h125.84a8.87,8.87,0,0,0,0-17.73H1166.29a8.87,8.87,0,0,0,0,17.73Z" transform="translate(-964.65 -380.06)"/><path class="cls-1" d="M1166.29,740.49h102.79a8.86,8.86,0,1,0,0-17.72H1166.29a8.86,8.86,0,1,0,0,17.72Z" transform="translate(-964.65 -380.06)"/><path class="cls-1" d="M1166.29,819.56H1205a8.86,8.86,0,0,0,0-17.72h-38.67a8.86,8.86,0,1,0,0,17.72Z" transform="translate(-964.65 -380.06)"/><path class="cls-1" d="M1122.65,623.53l-31,28.22-9.45-6.08a8.86,8.86,0,0,0-9.58,14.91l15.18,9.77a8.84,8.84,0,0,0,10.76-.91l36-32.82a8.86,8.86,0,0,0-11.94-13.09Z" transform="translate(-964.65 -380.06)"/><path class="cls-1" d="M1072.65,733.49l15.18,9.81a9,9,0,0,0,4.81,1.41,8.8,8.8,0,0,0,6-2.32l36-32.82a8.86,8.86,0,0,0-11.94-13.09l-30.94,28.22-9.45-6.1a8.86,8.86,0,1,0-9.61,14.89Z" transform="translate(-964.65 -380.06)"/><path class="cls-1" d="M1122.65,769.4l-30.94,28.22-9.45-6.09a8.86,8.86,0,0,0-9.61,14.89l15.18,9.79a8.85,8.85,0,0,0,10.78-.9l36-32.81a8.86,8.86,0,1,0-11.94-13.1Z" transform="translate(-964.65 -380.06)"/><path class="cls-1" d="M1395.44,837.25h-19.67V817.57a12.52,12.52,0,0,0-12.52-12.51h-36.4a12.52,12.52,0,0,0-12.52,12.51v19.68h-19.67a12.56,12.56,0,0,0-12.55,12.55v36.38a12.56,12.56,0,0,0,12.55,12.54h19.67V918.4a12.52,12.52,0,0,0,12.52,12.51h36.4a12.52,12.52,0,0,0,12.52-12.51V898.72h19.67A12.56,12.56,0,0,0,1408,886.18V849.8A12.57,12.57,0,0,0,1395.44,837.25ZM1390.27,881h-18.14a14.08,14.08,0,0,0-14.08,14v18.15h-26V895A14.07,14.07,0,0,0,1318,881h-18.15V855H1318a14.07,14.07,0,0,0,14.08-14V822.78h26v18.15a14.07,14.07,0,0,0,14.08,14h18.14Z" transform="translate(-964.65 -380.06)"/><path class="cls-1" d="M1413.47,773.11V453.83a26.34,26.34,0,0,0-26.33-26.3h-88.68a15.19,15.19,0,0,0-14.23-10H1253a73.39,73.39,0,0,0-128,0H1093.9a15.21,15.21,0,0,0-14.26,10H991a26.33,26.33,0,0,0-26.3,26.3V923.65A26.33,26.33,0,0,0,991,950h270.67a117,117,0,1,0,151.85-176.84ZM1299.39,445.26h87.75a8.6,8.6,0,0,1,8.61,8.57v308.7A115.92,115.92,0,0,0,1366.6,753V489A14.6,14.6,0,0,0,1352,474.41h-52.6Zm-203-10h33.09a9.49,9.49,0,0,0,9.36-5.86l.09-.19a55.63,55.63,0,0,1,100.17,0l.06.11.13.26a9.36,9.36,0,0,0,9.28,5.68h33.07v52.68H1096.42Zm-2.52,70.4h190.33a15.18,15.18,0,0,0,15.07-13.52h49.58V751c-1.27,0-2.55-.07-3.83-.07a117,117,0,0,0-115.73,134.38H1029.25V492.13h49.54A15.22,15.22,0,0,0,1093.9,505.65ZM991,932.23a8.58,8.58,0,0,1-8.57-8.58V453.83a8.58,8.58,0,0,1,8.57-8.58h87.75v29.16h-52.6A14.58,14.58,0,0,0,1011.53,489V888.5a14.58,14.58,0,0,0,14.57,14.57h207.31a116.89,116.89,0,0,0,13.88,29.16Zm354.1,35a99.3,99.3,0,1,1,99.3-99.31A99.41,99.41,0,0,1,1345.05,967.28Z" transform="translate(-964.65 -380.06)"/></svg>