<svg id="Слой_1" data-name="Слой 1" xmlns="http://www.w3.org/2000/svg" viewBox="0 0 331.78 347.45"><defs><style>.cls-1{fill:#374dff;}</style></defs><rect class="cls-1" x="1146.8" y="684.33" width="23.7" height="11.85" transform="translate(-715.66 1145.14) rotate(-75)"/><rect class="cls-1" x="1097.25" y="758.7" width="82.94" height="11.85" transform="translate(-802.17 1181.11) rotate(-75)"/><path class="cls-1" d="M1221.82,523.16l-137.35-36.8a23.68,23.68,0,0,0-29,16.76l-12.39,46.23H919.46a11.85,11.85,0,0,0-11.85,11.85v237A11.86,11.86,0,0,0,919.46,810h136.86L1139,832.19a23.69,23.69,0,0,0,29-16.76l70.54-263.25A23.71,23.71,0,0,0,1221.82,523.16Zm-302.36,275v-237H1097.2a11.86,11.86,0,0,1,11.85,11.85V786.33a11.87,11.87,0,0,1-11.85,11.85Zm307.67-249.06-70.54,263.24a11.84,11.84,0,0,1-11.43,8.79,12,12,0,0,1-3.08-.41l-41.32-11.07a23.63,23.63,0,0,0,20.14-23.34V692.39L1127,694l6.13-22.89-11.45-3.07-.75,2.83V576.73L1133,580l14,45.81,9.81,2.63-.93-42.3,17.33,4.64,7.62,13.43,6.54,1.75-1.12-18.7,10.32-15.63-6.54-1.75-13.31,7.82L1159.39,573l22-36.18-9.81-2.63-35,32.67L1118,561.94a23.59,23.59,0,0,0-20.81-12.59h-41.87l11.56-43.17a11.89,11.89,0,0,1,11.44-8.79,12,12,0,0,1,3.08.41l137.34,36.81a11.84,11.84,0,0,1,8.38,14.51Z" transform="translate(-907.61 -485.55)"/><rect class="cls-1" x="1151.1" y="647.35" width="11.85" height="11.65" transform="translate(-678 1119.07) rotate(-75.18)"/><rect class="cls-1" x="1173.59" y="653.32" width="11.85" height="11.65" transform="translate(-667.04 1145.25) rotate(-75.18)"/><rect class="cls-1" x="1128.61" y="641.39" width="11.85" height="11.65" transform="translate(-688.98 1092.9) rotate(-75.18)"/><path class="cls-1" d="M960.19,758.17c0-2.75-.75-4.83-2.25-6.16a8.5,8.5,0,0,0-5.84-2h-6.55a2.18,2.18,0,0,0-1.48.52,1.76,1.76,0,0,0-.64,1.36v22.22a1.7,1.7,0,0,0,.91,1.5,3.13,3.13,0,0,0,1.62.42,3,3,0,0,0,1.64-.43,1.71,1.71,0,0,0,.88-1.49V766.6h3.42a8.82,8.82,0,0,0,6-2c1.54-1.34,2.32-3.42,2.32-6.19Zm-8.29,4.13h-3.42v-7.61h3.42a3.2,3.2,0,0,1,2.42.84,3.87,3.87,0,0,1,.83,2.74v.41a3.93,3.93,0,0,1-.83,2.76A3.18,3.18,0,0,1,951.9,762.3Z" transform="translate(-907.61 -485.55)"/><path class="cls-1" d="M971.66,751.45c-.4-1.06-1.45-1.6-3.11-1.6-2,0-2.81.92-3.1,1.73l-6.66,21.73a1.71,1.71,0,0,0-.07.55,1.94,1.94,0,0,0,1,1.67,3.6,3.6,0,0,0,1.9.54,1.82,1.82,0,0,0,2-1.28l1.22-4.26H972l1.25,4.31a1.9,1.9,0,0,0,2,1.23,3.93,3.93,0,0,0,2-.56,2,2,0,0,0,1.15-1.73,1.63,1.63,0,0,0-.1-.53Zm-.89,14.78h-4.7l2.33-8.12Z" transform="translate(-907.61 -485.55)"/><path class="cls-1" d="M992.2,762.54a12.69,12.69,0,0,0-2.25-1.48,22.32,22.32,0,0,0-2.4-1.1c-.75-.29-1.45-.6-2.08-.9a4,4,0,0,1-1.32-1,2.12,2.12,0,0,1,.38-2.95,4.81,4.81,0,0,1,2.65-.64,6.43,6.43,0,0,1,2,.28,8.66,8.66,0,0,1,1.4.59,2.72,2.72,0,0,0,1.27.42,2,2,0,0,0,1.7-1,3.17,3.17,0,0,0,.52-1.67,2.12,2.12,0,0,0-.93-1.71,5.43,5.43,0,0,0-1.87-.9,14.28,14.28,0,0,0-2.07-.4,13.57,13.57,0,0,0-4.89.22,9.84,9.84,0,0,0-2.67,1.1,5.8,5.8,0,0,0-2.14,2.3,7.23,7.23,0,0,0-.78,3.43,6.71,6.71,0,0,0,1.28,4.16,7.89,7.89,0,0,0,3,2.45c1,.49,2.14,1,3.24,1.4a7.67,7.67,0,0,1,2.49,1.57,2.87,2.87,0,0,1,.89,2.17,2.46,2.46,0,0,1-.87,2.08,4.15,4.15,0,0,1-2.61.75,5.16,5.16,0,0,1-2-.37,4.31,4.31,0,0,1-1.29-.77,13.59,13.59,0,0,0-1.07-1,2.18,2.18,0,0,0-1.37-.61,2,2,0,0,0-1.66.94,2.86,2.86,0,0,0-.62,1.72c0,1.19.85,2.3,2.52,3.3a10.85,10.85,0,0,0,5.64,1.4,9,9,0,0,0,6-2,7.34,7.34,0,0,0,2.35-5.84A8.62,8.62,0,0,0,994,765,6.5,6.5,0,0,0,992.2,762.54Z" transform="translate(-907.61 -485.55)"/><path class="cls-1" d="M1009.39,762.54a13.26,13.26,0,0,0-2.25-1.48,21.61,21.61,0,0,0-2.41-1.1q-1.14-.45-2.07-.9a4.13,4.13,0,0,1-1.32-1,1.92,1.92,0,0,1-.43-1.27,1.86,1.86,0,0,1,.81-1.69,4.81,4.81,0,0,1,2.65-.64,6.43,6.43,0,0,1,2,.28,8.66,8.66,0,0,1,1.4.59,2.72,2.72,0,0,0,1.27.42,2,2,0,0,0,1.7-1,3.14,3.14,0,0,0,.52-1.66,2.12,2.12,0,0,0-.93-1.71,5.43,5.43,0,0,0-1.87-.9,14.82,14.82,0,0,0-2.07-.4,13.58,13.58,0,0,0-4.89.22,9.9,9.9,0,0,0-2.68,1.1,5.71,5.71,0,0,0-2.13,2.3,7.23,7.23,0,0,0-.78,3.43,6.73,6.73,0,0,0,1.27,4.16,8,8,0,0,0,3,2.45c1.06.49,2.15,1,3.24,1.4a7.78,7.78,0,0,1,2.49,1.57,2.87,2.87,0,0,1,.89,2.17,2.45,2.45,0,0,1-.87,2.08,4.16,4.16,0,0,1-2.62.75,5.14,5.14,0,0,1-2-.37,4.19,4.19,0,0,1-1.29-.77,13.69,13.69,0,0,0-1.08-1,2.14,2.14,0,0,0-1.36-.61,2.06,2.06,0,0,0-1.67.94,2.87,2.87,0,0,0-.61,1.72c0,1.19.85,2.3,2.52,3.3a10.81,10.81,0,0,0,5.63,1.4,8.91,8.91,0,0,0,6-2,7.32,7.32,0,0,0,2.36-5.84,8.62,8.62,0,0,0-.67-3.51A6.5,6.5,0,0,0,1009.39,762.54Z" transform="translate(-907.61 -485.55)"/><path class="cls-1" d="M1022.36,750.05h-6.54a2.18,2.18,0,0,0-1.49.52,1.77,1.77,0,0,0-.63,1.36v22.22a1.71,1.71,0,0,0,.9,1.5,3.16,3.16,0,0,0,1.62.42,3.05,3.05,0,0,0,1.65-.43,1.72,1.72,0,0,0,.87-1.49V766.6h3.42a8.83,8.83,0,0,0,6-2c1.54-1.34,2.32-3.42,2.32-6.19v-.27c0-2.75-.76-4.83-2.25-6.16A8.55,8.55,0,0,0,1022.36,750.05Zm3.05,8.22v.41a3.93,3.93,0,0,1-.83,2.76,3.18,3.18,0,0,1-2.42.86h-3.42v-7.61h3.42a3.2,3.2,0,0,1,2.42.84A3.87,3.87,0,0,1,1025.41,758.27Z" transform="translate(-907.61 -485.55)"/><path class="cls-1" d="M1040,750.05a8.7,8.7,0,0,0-6,2c-1.52,1.35-2.29,3.44-2.29,6.22V768c0,2.79.77,4.89,2.3,6.23a8.66,8.66,0,0,0,6,2,8.75,8.75,0,0,0,6-2c1.54-1.35,2.31-3.44,2.31-6.23v-9.77c0-2.78-.77-4.87-2.31-6.22A8.75,8.75,0,0,0,1040,750.05Zm3.25,18a3.88,3.88,0,0,1-.83,2.75,3.18,3.18,0,0,1-2.42.84c-2.23,0-3.22-1.1-3.22-3.59v-9.77c0-2.48,1-3.58,3.22-3.58a3.15,3.15,0,0,1,2.42.85,3.84,3.84,0,0,1,.83,2.73Z" transform="translate(-907.61 -485.55)"/><path class="cls-1" d="M1063.35,764.7a6.7,6.7,0,0,0,3-2.14,7.78,7.78,0,0,0,1.43-4.92c0-3.46-1.47-7.59-8.46-7.59h-6.38a2,2,0,0,0-1.37.55,1.91,1.91,0,0,0-.54,1.33v22.22a1.71,1.71,0,0,0,.87,1.49,3.32,3.32,0,0,0,3.26,0,1.71,1.71,0,0,0,.87-1.49V765.5h2.2l4.69,9.22a2.29,2.29,0,0,0,2.07,1.45,3,3,0,0,0,1.94-.74,2.35,2.35,0,0,0,.95-1.82,1.73,1.73,0,0,0-.22-.85Zm-.64-6.76c0,2.25-1,3.25-3.42,3.25H1056v-6.5h3.29C1061.66,754.69,1062.71,755.69,1062.71,757.94Z" transform="translate(-907.61 -485.55)"/><path class="cls-1" d="M1085.06,750.86a1.74,1.74,0,0,0-1.5-.81h-13.93a1.7,1.7,0,0,0-1.5.84,3,3,0,0,0,0,3.1,1.72,1.72,0,0,0,1.48.83h4.46v19.34a1.7,1.7,0,0,0,.87,1.48,3.36,3.36,0,0,0,3.27,0,1.69,1.69,0,0,0,.9-1.49V754.82h4.43A1.72,1.72,0,0,0,1085,754a3.06,3.06,0,0,0,0-3.13Z" transform="translate(-907.61 -485.55)"/><path class="cls-1" d="M1027.63,586.58c-55.46-10.86-103.13,47.2-77,100.94,19.25,39.55,68.45,51.37,103.22,28.16C1106.45,681.11,1090.66,598.23,1027.63,586.58Zm-32.25,13.51a77.55,77.55,0,0,0-11.65,15.7,63.53,63.53,0,0,1-7.49-4.71A56.4,56.4,0,0,1,995.38,600.09Zm-27.27,19.37a76.64,76.64,0,0,0,10.66,6.81,83.09,83.09,0,0,0-5.46,24.4H955.17A58.87,58.87,0,0,1,968.11,619.46Zm-12.9,42.79h18.1a83.08,83.08,0,0,0,5.35,24.27A77.1,77.1,0,0,0,968,693.41,60.51,60.51,0,0,1,955.21,662.25Zm20.85,39.53a63.59,63.59,0,0,1,7.53-4.76,75.92,75.92,0,0,0,11.62,15.64A59.23,59.23,0,0,1,976.06,701.78Zm32.68,7.64a63.66,63.66,0,0,1-14.45-17,64.73,64.73,0,0,1,14.45-3Zm0-31.59a76.7,76.7,0,0,0-19.46,4.06,71.92,71.92,0,0,1-4.36-19.64h23.82Zm0-27.16H984.92a72.32,72.32,0,0,1,4.46-19.78,76.5,76.5,0,0,0,19.36,4Zm0-27.38a64.66,64.66,0,0,1-14.32-2.91,63.7,63.7,0,0,1,14.32-16.91ZM1052.92,611a64,64,0,0,1-7.38,4.66,74.31,74.31,0,0,0-11.5-15.37A58,58,0,0,1,1052.92,611Zm-32.59-7.58a62.58,62.58,0,0,1,14.49,16.88,64.65,64.65,0,0,1-14.49,3Zm0,31.47a76.43,76.43,0,0,0,19.51-4.08,72.25,72.25,0,0,1,4.29,19.84h-23.8Zm0,27.34h23.78a72.33,72.33,0,0,1-4.25,19.66,76.92,76.92,0,0,0-19.53-4.08Zm0,47.21v-20a65.08,65.08,0,0,1,14.55,3A62.46,62.46,0,0,1,1020.33,709.46Zm13.66,3.18a74.12,74.12,0,0,0,11.6-15.55,63.57,63.57,0,0,1,7.43,4.7A58.34,58.34,0,0,1,1034,712.64Zm27.22-19.16a76.32,76.32,0,0,0-10.71-6.91,84.14,84.14,0,0,0,5.22-24.32h18A58.29,58.29,0,0,1,1061.21,693.48Zm-5.48-42.81a83.42,83.42,0,0,0-5.26-24.49,75.23,75.23,0,0,0,10.64-6.85,59.07,59.07,0,0,1,12.52,31.34Z" transform="translate(-907.61 -485.55)"/></svg>