<svg id="Слой_1" data-name="Слой 1" xmlns="http://www.w3.org/2000/svg" viewBox="0 0 315.4 275.2"><defs><style>.cls-1{fill:#374dff;}</style></defs><path class="cls-1" d="M593.59,456A53.59,53.59,0,1,1,577.9,418.1,53.59,53.59,0,0,1,593.59,456Zm0,0" transform="translate(-382.3 -402.4)"/><path class="cls-1" d="M682.3,475.71a33.88,33.88,0,1,1-33.88-33.88,33.88,33.88,0,0,1,33.88,33.88Zm0,0" transform="translate(-382.3 -402.4)"/><path class="cls-1" d="M465.46,475.71a33.88,33.88,0,1,1-33.88-33.88,33.88,33.88,0,0,1,33.88,33.88Zm0,0" transform="translate(-382.3 -402.4)"/><path class="cls-1" d="M465,540c-13.33-10.92-25.41-9.48-40.83-9.48a41.75,41.75,0,0,0-41.83,41.58v67.27a18.1,18.1,0,0,0,18.12,18c43.14,0,37.94.78,37.94-1.86,0-47.67-5.65-82.63,26.6-115.56Zm0,0" transform="translate(-382.3 -402.4)"/><path class="cls-1" d="M554.67,530.78c-26.94-2.25-50.35,0-70.54,16.69-33.8,27.07-27.29,63.52-27.29,108.1a21.6,21.6,0,0,0,21.57,21.57c130,0,135.21,4.2,142.92-12.88,2.53-5.77,1.83-3.94,1.83-59.18,0-43.88-38-74.3-68.49-74.3Zm0,0" transform="translate(-382.3 -402.4)"/><path class="cls-1" d="M655.87,530.53c-15.5,0-27.51-1.43-40.83,9.48,32,32.69,26.6,65.26,26.6,115.56,0,2.66-4.31,1.86,37.3,1.86a18.75,18.75,0,0,0,18.76-18.69V572.11a41.75,41.75,0,0,0-41.83-41.58Zm0,0" transform="translate(-382.3 -402.4)"/></svg>