<svg id="Слой_1" data-name="Слой 1" xmlns="http://www.w3.org/2000/svg" viewBox="0 0 272.24 272.21"><defs><style>.cls-1{fill:#374dff;}</style></defs><path class="cls-1" d="M243.2,203.6l-.19,1.59C196.63,182.07,191.78,179,185.78,188c-4.15,6.22-16.26,20.33-19.9,24.5s-7.37,4.43-13.63,1.59c-6.33-3.17-26.64-9.81-50.68-31.32-18.73-16.77-31.3-37.33-35-43.66-6.18-10.68,6.74-12.2,18.51-34.47,2.11-4.42,1-7.91-.52-11.05S70.37,59.4,65.11,47.05C60.05,34.73,54.84,36.29,50.94,36.29c-12.15-1.06-21-.89-28.86,7.25-34,37.42-25.46,76,3.67,117.06C83,235.52,113.49,249.31,169.26,268.46c15.06,4.79,28.79,4.11,39.65,2.55,12.11-1.91,37.27-15.2,42.52-30.08s5.38-27.2,3.79-30-5.69-4.43-12-7.28Z" transform="translate(-0.02 0.04)"/><path class="cls-1" d="M194.64,137.66,216,134a95.71,95.71,0,0,0-81-78.54l-3,21.44a74,74,0,0,1,62.65,60.74Z" transform="translate(-0.02 0.04)"/><path class="cls-1" d="M228,45A157.29,157.29,0,0,0,137.83,0l-3,21.44a137.23,137.23,0,0,1,116.1,112.52l21.33-3.64A158.48,158.48,0,0,0,228,44.92Z" transform="translate(-0.02 0.04)"/></svg>