<svg id="Слой_1" data-name="Слой 1" xmlns="http://www.w3.org/2000/svg" viewBox="0 0 272.25 272.17"><defs><style>.cls-1{fill:#fff;}</style></defs><path class="cls-1" d="M1068.09,728.43l-.19,1.59c-46.38-23.12-51.23-26.2-57.23-17.21-4.15,6.22-16.26,20.33-19.9,24.5s-7.37,4.43-13.63,1.59c-6.33-3.17-26.64-9.81-50.68-31.32-18.73-16.77-31.3-37.33-35-43.66-6.18-10.68,6.74-12.2,18.51-34.47,2.11-4.42,1-7.91-.52-11.05S895.26,584.23,890,571.88c-5.06-12.32-10.27-10.76-14.17-10.76-12.15-1.06-21-.89-28.86,7.25-34,37.42-25.46,76,3.67,117.06,57.24,74.92,87.74,88.71,143.51,107.86,15.06,4.79,28.79,4.11,39.65,2.55,12.11-1.91,37.27-15.2,42.52-30.08s5.38-27.2,3.79-30-5.69-4.43-12-7.28Zm0,0" transform="translate(-824.89 -524.83)"/><path class="cls-1" d="M1019.53,662.49l21.32-3.64a95.7,95.7,0,0,0-81-78.54l-3,21.44a74,74,0,0,1,62.65,60.74Zm0,0" transform="translate(-824.89 -524.83)"/><path class="cls-1" d="M1052.87,569.79a157.26,157.26,0,0,0-90.15-45l-3,21.44a137.22,137.22,0,0,1,116.1,112.52l21.33-3.64a158.43,158.43,0,0,0-44.27-85.36Zm0,0" transform="translate(-824.89 -524.83)"/></svg>