<svg id="Слой_1" data-name="Слой 1" xmlns="http://www.w3.org/2000/svg" viewBox="0 0 310.2 310.2"><defs><style>.cls-1{fill:#374dff;}</style></defs><path class="cls-1" d="M524.59,674.55a67.79,67.79,0,1,0-67.79-67.79A67.87,67.87,0,0,0,524.59,674.55Zm0-123.25a55.47,55.47,0,1,1-55.46,55.46A55.53,55.53,0,0,1,524.59,551.3Z" transform="translate(-384.9 -384.9)"/><path class="cls-1" d="M457.83,555.41a15.41,15.41,0,1,0-15.41,15.4A15.41,15.41,0,0,0,457.83,555.41Zm-20.54,0a5.14,5.14,0,1,1,5.13,5.13A5.14,5.14,0,0,1,437.29,555.41Z" transform="translate(-384.9 -384.9)"/><path class="cls-1" d="M678.66,384.9H483.51a16.45,16.45,0,0,0-16.44,16.44V518.43H448.58v-4.11a16.45,16.45,0,0,0-16.43-16.43H421.88a16.46,16.46,0,0,0-16.44,16.43v4.11h-4.1a16.45,16.45,0,0,0-16.44,16.44V678.66a16.45,16.45,0,0,0,16.44,16.44H606.76a16.45,16.45,0,0,0,16.44-16.44V571.84h55.46a16.45,16.45,0,0,0,16.44-16.43V401.34A16.45,16.45,0,0,0,678.66,384.9ZM421.88,510.22h10.27a4.11,4.11,0,0,1,4.11,4.1v4.11H417.77v-4.11A4.11,4.11,0,0,1,421.88,510.22Zm10.27,64.7a6.17,6.17,0,0,0-6.16,6.17V682.77H401.34a4.11,4.11,0,0,1-4.11-4.11V534.87a4.11,4.11,0,0,1,4.11-4.11H606.76a4.11,4.11,0,0,1,4.11,4.11V678.66a4.11,4.11,0,0,1-4.11,4.11H438.31V581.09A6.17,6.17,0,0,0,432.15,574.92ZM637.46,415.71a6.21,6.21,0,0,0-4.4,2l-41.59,45-26.73-24.82a6.16,6.16,0,0,0-8.27-.11l-77.07,68V401.34a4.11,4.11,0,0,1,4.11-4.11H678.66a4.11,4.11,0,0,1,4.11,4.11v57l-40.88-40.89A7.15,7.15,0,0,0,637.46,415.71ZM522.14,512.48a4,4,0,0,1,3.64-2.26h38.71a4,4,0,0,1,3.65,2.27l3,5.94h-52Zm62.76,5.95L579.16,507a16.24,16.24,0,0,0-14.65-9.08H525.76A16.26,16.26,0,0,0,511.11,507l-5.74,11.46H483.71l76.72-67.7,67.8,62.95a6.14,6.14,0,0,0,4.29,1.74,6.27,6.27,0,0,0,1.77-.26,6.16,6.16,0,0,0,2.35-10.49l-36.13-33.55,37.25-40.34,45,45V528.7H621.94a16.5,16.5,0,0,0-15.18-10.27ZM623.2,541h59.57v14.38a4.12,4.12,0,0,1-4.11,4.11H623.2Z" transform="translate(-384.9 -384.9)"/><path class="cls-1" d="M519.46,406.47A20.55,20.55,0,1,0,540,427,20.54,20.54,0,0,0,519.46,406.47Zm0,30.82A10.28,10.28,0,1,1,529.73,427,10.27,10.27,0,0,1,519.46,437.29Z" transform="translate(-384.9 -384.9)"/><path class="cls-1" d="M524.59,648.88A42.19,42.19,0,0,0,565.89,615c.12-.59.22-1.18.33-1.84a42.12,42.12,0,0,0-77.54-28.52,42.61,42.61,0,0,0-6.2,22.1A42.17,42.17,0,0,0,524.59,648.88Zm25.46-26.73a2.64,2.64,0,0,0-.3.55,29.86,29.86,0,0,1-39.64,10.13,6.21,6.21,0,0,0-1-.79,29.79,29.79,0,0,1,14.31-55.18,6,6,0,0,0,1.19.12,29.82,29.82,0,0,1,29.79,29.78,30.4,30.4,0,0,1-.58,5.86A29.91,29.91,0,0,1,550.05,622.15Z" transform="translate(-384.9 -384.9)"/></svg>