<?xml version="1.0" encoding="utf-8"?>
<!-- Generator: Adobe Illustrator 24.1.2, SVG Export Plug-In . SVG Version: 6.00 Build 0)  -->
<svg version="1.1" id="Слой_1" xmlns="http://www.w3.org/2000/svg" xmlns:xlink="http://www.w3.org/1999/xlink" x="0px" y="0px"
	 viewBox="0 0 346.9 462.6" style="enable-background:new 0 0 346.9 462.6;" xml:space="preserve">
<style type="text/css">
	.st0{fill:#FFFFFF;}
</style>
<path class="st0" d="M173.5,0C77.9,0,0,78.4,0,174.7C0,311.6,157.2,453,163.9,458.9c5.5,4.9,13.7,4.9,19.2,0
	c6.7-6,163.9-147.3,163.9-284.2C347,78.4,269.1,0,173.5,0L173.5,0z M173.5,269.8c-53.2,0-96.4-43.1-96.4-96.3
	c0-53.2,43.1-96.4,96.3-96.4c53.2,0,96.4,43.1,96.4,96.3c0,0,0,0,0,0C269.8,226.6,226.7,269.8,173.5,269.8z"/>
</svg>
