<svg id="Слой_1" data-name="Слой 1" xmlns="http://www.w3.org/2000/svg" viewBox="0 0 518.88 94.44"><defs><style>.cls-1{fill:#ffd400;}.cls-2{fill:#bcbcbc;}</style></defs><path class="cls-1" d="M1026.22,570.51l-35.64-2.3-13.45-33.74-13.45,33.74-35.56,2.3,27.28,23.22-9,35.18,30.69-19.43,30.7,19.43-9-35.18Z" transform="translate(-928.12 -534.47)"/><path class="cls-1" d="M1131.42,570.51l-35.64-2.3-13.45-33.74-13.45,33.74-35.56,2.3,27.28,23.22-9,35.18,30.7-19.43L1113,628.91l-9-35.18Z" transform="translate(-928.12 -534.47)"/><path class="cls-1" d="M1236.61,570.51l-35.64-2.3-13.45-33.74-13.45,33.74-35.56,2.3,27.28,23.22-9,35.18,30.69-19.43,30.7,19.43-9-35.18Z" transform="translate(-928.12 -534.47)"/><path class="cls-1" d="M1341.81,570.51l-35.64-2.3-13.45-33.74-13.45,33.74-35.56,2.3L1271,593.73l-9,35.18,30.7-19.43,30.69,19.43-9-35.18Z" transform="translate(-928.12 -534.47)"/><polygon class="cls-1" points="456.34 33.74 420.78 36.04 448.06 59.26 439.1 94.44 469.26 75.35 469.26 1.33 456.34 33.74"/><polygon class="cls-2" points="500.49 94.44 491.52 59.26 518.88 36.04 483.24 33.74 469.79 0 469.26 1.33 469.26 75.35 469.79 75.01 500.49 94.44"/></svg>