<svg id="Слой_1" data-name="Слой 1" xmlns="http://www.w3.org/2000/svg" viewBox="0 0 50 50"><defs><style>.cls-1{fill:#0581ed;}.cls-1,.cls-2,.cls-3,.cls-4,.cls-8{fill-rule:evenodd;}.cls-3,.cls-6{fill:#ccc;}.cls-4,.cls-5{fill:#bf9f4f;}.cls-7{fill:#fff;}.cls-8{fill:#e61b4e;}</style></defs><g id="Layer_1"><g id="g1678"><path id="path1588" class="cls-1" d="M40.2,37.91l.06-27.09H9.74V37.91Z"/><path id="path1608" class="cls-2" d="M9.74,37.91l0,6.27c0,2.49,1.26,4.41,3.81,4.64l9.65,0a2.1,2.1,0,0,1,1.77,1,2.1,2.1,0,0,1,1.77-1l9.65,0c2.55-.23,3.81-2.15,3.81-4.64l0-6.27Z"/><path id="path1937_4" data-name="path1937 4" class="cls-3" d="M12.23,35.7a10.41,10.41,0,0,0-2.47.67v3.11a10.54,10.54,0,0,1,2.47-.67c1.1,0,2.1.77,3.2.77s2.09-.77,3.19-.77,2.1.77,3.2.77,2.1-.77,3.2-.77,2.1.76,3.19.77,2.11-.67,3.2-.67,2.1.67,3.19.67,2.11-.67,3.2-.67a11.13,11.13,0,0,1,2.44.59V36.39a11,11,0,0,0-2.44-.59c-1.09,0-2.1.67-3.2.67s-2.1-.67-3.19-.67-2.1.69-3.2.67S26.12,35.7,25,35.7s-2.1.77-3.2.77-2.1-.77-3.2-.77-2.09.77-3.19.77S13.33,35.7,12.23,35.7Z"/><g id="g1135"><g id="g1320"><g id="use1162"><path id="path1449" class="cls-4" d="M31.49,28.27,31.77,19H37l.28,9.27Z"/><path d="M37.4,28.4h-6l.29-9.53h5.46Zm-5.78-.25h5.53l-.28-9h-5Z"/><path id="path1451" class="cls-4" d="M31.22,17.56,31.77,19H37l.55-1.44-3.16-1.34Z"/><path d="M37.08,19.12h-5.4l-.61-1.63,3.31-1.4,3.31,1.4Zm-5.23-.25h5.06l.47-1.24-3-1.28-3,1.28Z"/><g id="g1463"><circle id="circle1453" cx="36.37" cy="18.31" r="0.27"/><circle id="circle1455" cx="35.37" cy="18.31" r="0.27"/><circle id="circle1457" cx="34.38" cy="18.31" r="0.27"/><circle id="circle1459" cx="33.39" cy="18.31" r="0.27"/><circle id="circle1461" cx="32.39" cy="18.31" r="0.27"/></g><rect x="31.3" y="17.63" width="6.16" height="0.24"/><path id="path1467" class="cls-2" d="M34.2,16.22l0-.49c-.34,0-.38-.7,0-.73l0-.83h.22l0,.83c.4,0,.36.76,0,.73l0,.49Z"/><path id="path1469" class="cls-2" d="M33.9,22.26h.75c0-.43.1-1.39-.38-1.39S33.9,21.83,33.9,22.26Z"/></g><path id="use1213" class="cls-4" d="M29.9,28.26h7.35l.37.58L37.77,32H29.92Z"/><path d="M37.89,32.11H29.8l0-4h7.54l.42.67Zm-7.84-.25h7.59l-.14-3-.31-.5H30Z"/><g id="_58109216" data-name=" 58109216"><path id="path1246" class="cls-4" d="M18.51,28.27,18.23,19H13l-.28,9.27Z"/><path d="M18.64,28.4h-6l.29-9.53h5.46Zm-5.79-.25h5.53l-.27-9h-5Z"/><path id="_58068840" data-name=" 58068840" class="cls-4" d="M18.78,17.56,18.23,19H13l-.55-1.44,3.16-1.34Z"/><path d="M18.32,19.12h-5.4l-.61-1.63,3.31-1.4,3.31,1.4Zm-5.23-.25h5.06l.47-1.24-3-1.28-3,1.28Z"/><g id="g1160"><circle id="_107610784" data-name=" 107610784" cx="13.63" cy="18.31" r="0.27"/><circle id="_57803216" data-name=" 57803216" cx="14.63" cy="18.31" r="0.27"/><circle id="_58035832" data-name=" 58035832" cx="15.62" cy="18.31" r="0.27"/><circle id="_57714224" data-name=" 57714224" cx="16.61" cy="18.31" r="0.27"/><circle id="_56738632" data-name=" 56738632" cx="17.61" cy="18.31" r="0.27"/></g><rect x="12.54" y="17.63" width="6.16" height="0.24"/><path id="path1153" class="cls-2" d="M15.8,16.22l0-.49c.34,0,.38-.7,0-.73l0-.83h-.22l0,.83c-.4,0-.36.76,0,.73l0,.49Z"/><path id="path1332" class="cls-2" d="M16.1,22.26h-.75c0-.43-.1-1.39.38-1.39S16.1,21.83,16.1,22.26Z"/></g><path id="_57718848" data-name=" 57718848" class="cls-4" d="M20.1,28.26H12.75l-.37.58L12.23,32h7.85Z"/><path d="M20.2,32.11H12.11l.15-3.3.42-.67h7.54Zm-7.84-.25H20l0-3.48H12.81l-.31.5Z"/></g><g id="g1303"><g id="_58111576" data-name=" 58111576"><polygon id="_58101968" data-name=" 58101968" class="cls-4" points="16.49 29.26 16.71 25.63 24.12 25.63 24.12 29.26 16.49 29.26"/><path d="M24.24,29.38H16.36l.24-3.87h7.64Zm-7.62-.24H24V25.75H16.82Z"/><polygon id="_56614664" data-name=" 56614664" class="cls-4" points="19.51 24.23 19.51 23.74 18.21 23.74 18.21 24.23 17.41 24.23 17.41 23.74 16.06 23.74 16.06 25.65 21.72 25.65 21.7 23.74 20.48 23.74 20.48 24.23 19.51 24.23"/><path d="M21.84,25.78h-5.9V23.62h1.59v.49h.56v-.49h1.54v.49h.73v-.49h1.46Zm-5.66-.25H21.6l0-1.67h-1v.49H19.38v-.49H18.33v.49h-1v-.49H16.18Z"/><polygon id="_58117560" data-name=" 58117560" class="cls-4" points="16.04 32.83 24.12 32.83 24.12 29.23 16.49 29.23 16.24 29.74 16.04 32.83"/><path d="M24.24,33H15.91l.21-3.25.3-.59h7.82Zm-8.07-.24H24V29.36H16.57l-.21.41Z"/><path id="path1332-3" class="cls-2" d="M19.11,28.53h-.76c0-.43-.1-1.39.38-1.39s.38,1,.38,1.39Z"/></g><g id="_57212280" data-name=" 57212280"><polygon id="_58034640" data-name=" 58034640" class="cls-4" points="33.51 29.26 33.29 25.63 25.88 25.63 25.88 29.26 33.51 29.26"/><path d="M33.64,29.38H25.76V25.51H33.4ZM26,29.14h7.38l-.2-3.39H26Z"/><polygon id="_58051464" data-name=" 58051464" class="cls-4" points="30.49 24.23 30.49 23.74 31.79 23.74 31.79 24.23 32.59 24.23 32.59 23.74 33.94 23.74 33.94 25.65 28.28 25.65 28.3 23.74 29.52 23.74 29.52 24.23 30.49 24.23"/><path d="M34.06,25.78h-5.9l0-2.16h1.46v.49h.73v-.49h1.54v.49h.56v-.49h1.59Zm-5.66-.25h5.42V23.86H32.71v.49h-1v-.49H30.62v.49H29.4v-.49h-1Z"/><polygon id="_58496600" data-name=" 58496600" class="cls-4" points="33.96 32.83 25.88 32.83 25.88 29.23 33.51 29.23 33.76 29.74 33.96 32.83"/><path d="M34.09,33H25.76V29.11h7.82l.3.59v0ZM26,32.71h7.83l-.19-2.94-.21-.41H26Z"/><path id="path1332-3-5" class="cls-2" d="M31.65,28.53h-.76c0-.43-.1-1.39.38-1.39S31.65,28.1,31.65,28.53Z"/></g></g><g id="use1248"><path id="path1269" class="cls-4" d="M21.68,26.17l.71-9.28h5.22l.71,9.28Z"/><path d="M28.45,26.29h-6.9l.72-9.52h5.46ZM21.82,26h6.36l-.68-9h-5Z"/><path id="path1271" class="cls-2" d="M25.38,20.15c0-.45.1-1.39-.38-1.39s-.35.94-.38,1.39Z"/><path id="path1273" class="cls-4" d="M21.84,15.45l.55,1.44h5.22l.55-1.44L25,14.11Z"/><path d="M27.7,17H22.3l-.61-1.62L25,14l3.31,1.41Zm-5.23-.24h5.06L28,15.52l-3-1.28-3,1.28Z"/><g id="g1285"><circle id="circle1275" cx="26.99" cy="16.21" r="0.27"/><circle id="circle1277" cx="25.99" cy="16.21" r="0.27"/><circle id="circle1279" cx="25" cy="16.21" r="0.27"/><circle id="circle1281" cx="24.01" cy="16.21" r="0.27"/><circle id="circle1283" cx="23.01" cy="16.21" r="0.27"/></g><rect x="21.92" y="15.52" width="6.16" height="0.24"/><path id="path1289" class="cls-2" d="M24.82,14.11l0-.48c-.34,0-.38-.71,0-.74l0-.82h.22l0,.82c.4,0,.36.76,0,.74l0,.48Z"/></g><g id="_58132856" data-name=" 58132856"><path id="_56620248" data-name=" 56620248" class="cls-4" d="M23.41,23.24H22.35v.48H21.29v-.48H20.23v1.85h9.54V23.24H28.71v.48H27.65v-.48H26.59v.48H25.53v-.48H24.47v.48H23.41Z"/><path d="M29.89,25.22H20.11v-2.1h1.3v.47h.82v-.47h1.3v.47h.82v-.47h1.3v.47h.82v-.47h1.3v.47h.82v-.47h1.3ZM20.35,25h9.3v-1.6h-.82v.47h-1.3v-.47h-.82v.47h-1.3v-.47h-.82v.47h-1.3v-.47h-.82v.47h-1.3v-.47h-.82Z"/><rect id="_57797016" data-name=" 57797016" class="cls-5" x="20.63" y="25.09" width="8.74" height="4.89"/><path d="M29.49,30.11h-9V25h9Zm-8.74-.24h8.5V25.22h-8.5Z"/><polygon id="_58085296" data-name=" 58085296" class="cls-4" points="20.64 29.99 20.15 30.5 20.15 33.52 29.85 33.52 29.85 30.5 29.38 29.99 20.64 29.99"/><path d="M30,33.64H20V30.45l.55-.58h8.85l.54.58Zm-9.7-.24h9.46V30.55l-.41-.44H20.69l-.42.44Z"/><path id="path1332-8" class="cls-2" d="M23.39,29.33h-.75c0-.43-.1-1.39.38-1.39s.37,1,.37,1.39Z"/><path id="path1412" class="cls-2" d="M27.35,29.33h-.76c0-.43-.1-1.39.38-1.39S27.35,28.9,27.35,29.33Z"/></g></g><path d="M25,50l-.11-.18a1.93,1.93,0,0,0-1.65-.91h0l-9.66,0h0a4.06,4.06,0,0,1-3-1.52,5.27,5.27,0,0,1-1-3.24l0-33.48H40.39l0,33.48a5.27,5.27,0,0,1-1,3.24,4.06,4.06,0,0,1-3,1.52h0l-9.65,0h0a1.93,1.93,0,0,0-1.65.91Zm-1.76-1.33a2.2,2.2,0,0,1,1.76.87,2.2,2.2,0,0,1,1.76-.87h0l9.65,0c2.31-.21,3.69-1.89,3.69-4.51l0-33.24H9.86l0,33.24c0,2.62,1.38,4.3,3.69,4.51l9.65,0Z"/><g id="g1065"><path id="path83" class="cls-4" d="M23.53,42.12c0-1.1-.91-1.17-1.51-.81-1,.61-1.93,2.7-2.73,3.14-.53.42-.94-.18-.72-.4s.42-.14.36,0,0,.4.19.1c1.12-1.33,1.21-2.46,2.18-3.34a1.69,1.69,0,0,1,2.91.54h1.58a1.69,1.69,0,0,1,2.91-.54c1,.88,1.06,2,2.18,3.34.19.3.27.06.19-.1s.21-.15.36,0-.19.82-.72.4C29.91,44,29,41.92,28,41.31c-.6-.36-1.48-.29-1.51.81Z"/><path id="path87" class="cls-3" d="M19.07,43.91c-.12,0-.25.22-.12.28l.35.27c.08.1.35-.12.21-.24l-.37-.28A.11.11,0,0,0,19.07,43.91Zm11.84,0s0,0-.05,0l-.37.28c-.14.12.13.34.21.24l.35-.27c.14-.06,0-.29-.14-.28Z"/><path d="M30.64,44.53h0a.28.28,0,0,1-.19-.19.18.18,0,0,1,.05-.16l.37-.28a.15.15,0,0,1,.07,0h0a.26.26,0,0,1,.24.19.13.13,0,0,1-.06.17l-.35.26A.1.1,0,0,1,30.64,44.53Zm.27-.57h0l-.37.28a.06.06,0,0,0,0,.07.2.2,0,0,0,.12.12h.05l.36-.27s0,0,0-.06S31,44,30.91,44Zm-11.55.57a.1.1,0,0,1-.09,0l-.35-.26a.13.13,0,0,1-.07-.14.29.29,0,0,1,.21-.22h0a.14.14,0,0,1,.11,0l.36.28a.17.17,0,0,1,.06.16.28.28,0,0,1-.19.19ZM19.07,44a.2.2,0,0,0-.13.14s0,0,0,0h0l.36.27h.05a.2.2,0,0,0,.12-.12.06.06,0,0,0,0-.07L19.11,44Z"/><polygon id="polygon102" class="cls-3" points="24.99 44.56 25.75 45.18 25.75 47.43 24.99 46.92 24.28 47.42 24.25 45.15 24.99 44.56"/><path id="path104" class="cls-3" d="M25,39.22a14.91,14.91,0,0,0-.71,1.86,2,2,0,0,1,.48-.27v.31h.51v-.3a2.91,2.91,0,0,1,.5.25A18.2,18.2,0,0,0,25,39.22Z"/><path id="path106" class="cls-4" d="M24.74,41.18a1.3,1.3,0,0,1,.52,0v6.59a.36.36,0,0,1-.52,0Z"/><path d="M25,47.92a.46.46,0,0,1-.29-.12h0V41.14h0a1.63,1.63,0,0,1,.54,0h0v6.65h0A.46.46,0,0,1,25,47.92Zm-.22-.17a.33.33,0,0,0,.44,0V41.21a1.62,1.62,0,0,0-.44,0Z"/><path id="path85" class="cls-3" d="M19.18,44a.17.17,0,1,1,.22-.26c4.28,3.22,5.4,4.21,5.6,4.21s1.32-1,5.6-4.21a.17.17,0,1,1,.22.26c-2,1.49-5.54,4.35-5.82,4.35S21.18,45.46,19.18,44Z"/><path d="M25,48.36a25.68,25.68,0,0,1-3.36-2.45c-.87-.67-1.78-1.38-2.49-1.9h0a.21.21,0,0,1,0-.31.23.23,0,0,1,.31,0c1.82,1.38,3.08,2.36,3.92,3A10.23,10.23,0,0,0,25,47.87a10.23,10.23,0,0,0,1.65-1.2c.84-.64,2.1-1.62,3.93-3a.21.21,0,1,1,.27.33h0c-.71.52-1.62,1.23-2.49,1.9A25.68,25.68,0,0,1,25,48.36Zm-5.79-4.42c.71.53,1.61,1.23,2.49,1.91A35.34,35.34,0,0,0,25,48.27a35.34,35.34,0,0,0,3.3-2.42c.88-.68,1.78-1.38,2.49-1.91.07-.07.08-.14,0-.19a.14.14,0,0,0-.19,0c-1.83,1.38-3.09,2.35-3.93,3C25.49,47.68,25.13,48,25,48s-.49-.28-1.7-1.22c-.84-.65-2.1-1.62-3.93-3a.14.14,0,0,0-.19,0C19.13,43.8,19.14,43.87,19.21,43.94Z"/></g></g><g id="g2007"><g id="g1861"><g id="g1811"><circle id="path1741-9-6" class="cls-6" cx="25" cy="2.22" r="1.72"/><path d="M25,4.06a1.84,1.84,0,1,1,1.84-1.84A1.84,1.84,0,0,1,25,4.06ZM25,.62a1.6,1.6,0,1,0,1.6,1.6A1.6,1.6,0,0,0,25,.62Z"/><circle id="circle1807" class="cls-7" cx="24.41" cy="1.7" r="0.47"/></g><g id="g1817"><circle id="circle1813" class="cls-6" cx="23.18" cy="5.25" r="1.72"/><path d="M23.18,7.09A1.85,1.85,0,1,1,25,5.25,1.85,1.85,0,0,1,23.18,7.09Zm0-3.44a1.6,1.6,0,1,0,1.6,1.6A1.6,1.6,0,0,0,23.18,3.65Z"/><circle id="circle1815" class="cls-7" cx="22.59" cy="4.72" r="0.47"/></g><g id="g1823"><circle id="circle1819" class="cls-6" cx="19.53" cy="5.25" r="1.72"/><path d="M19.53,7.09a1.85,1.85,0,1,1,1.84-1.84A1.85,1.85,0,0,1,19.53,7.09Zm0-3.44a1.6,1.6,0,1,0,1.6,1.6A1.59,1.59,0,0,0,19.53,3.65Z"/><circle id="circle1821" class="cls-7" cx="18.94" cy="4.72" r="0.47"/></g><g id="g1829"><circle id="circle1825" class="cls-6" cx="15.88" cy="5.25" r="1.72"/><path d="M15.88,7.09a1.85,1.85,0,1,1,1.84-1.84A1.85,1.85,0,0,1,15.88,7.09Zm0-3.44a1.6,1.6,0,1,0,1.6,1.6A1.59,1.59,0,0,0,15.88,3.65Z"/><circle id="circle1827" class="cls-7" cx="15.29" cy="4.72" r="0.47"/></g><g id="g1841"><circle id="circle1837" class="cls-6" cx="11.46" cy="1.84" r="1.72"/><path d="M11.46,3.69A1.85,1.85,0,1,1,13.3,1.84,1.85,1.85,0,0,1,11.46,3.69Zm0-3.45a1.61,1.61,0,1,0,1.6,1.6A1.6,1.6,0,0,0,11.46.24Z"/><circle id="circle1839" class="cls-7" cx="10.87" cy="1.32" r="0.47"/></g><g id="g1835"><circle id="circle1831" class="cls-6" cx="12.23" cy="5.25" r="1.72"/><path d="M12.23,7.09a1.85,1.85,0,1,1,1.84-1.84A1.85,1.85,0,0,1,12.23,7.09Zm0-3.44a1.6,1.6,0,1,0,1.6,1.6A1.6,1.6,0,0,0,12.23,3.65Z"/><circle id="circle1833" class="cls-7" cx="11.64" cy="4.72" r="0.47"/></g><g id="g1905"><circle id="circle1901" class="cls-6" cx="26.82" cy="5.25" r="1.72"/><path d="M26.82,7.09a1.85,1.85,0,1,1,1.85-1.84A1.85,1.85,0,0,1,26.82,7.09Zm0-3.44a1.6,1.6,0,1,0,1.61,1.6A1.6,1.6,0,0,0,26.82,3.65Z"/><circle id="circle1903" class="cls-7" cx="26.24" cy="4.72" r="0.47"/></g><g id="g1911"><circle id="circle1907" class="cls-6" cx="30.47" cy="5.25" r="1.72"/><path d="M30.47,7.09a1.85,1.85,0,1,1,1.85-1.84A1.85,1.85,0,0,1,30.47,7.09Zm0-3.44a1.6,1.6,0,1,0,1.6,1.6A1.6,1.6,0,0,0,30.47,3.65Z"/><circle id="circle1909" class="cls-7" cx="29.89" cy="4.72" r="0.47"/></g><g id="g1917"><circle id="circle1913" class="cls-6" cx="34.12" cy="5.25" r="1.72"/><path d="M34.12,7.09A1.85,1.85,0,1,1,36,5.25,1.85,1.85,0,0,1,34.12,7.09Zm0-3.44a1.6,1.6,0,1,0,1.6,1.6A1.6,1.6,0,0,0,34.12,3.65Z"/><circle id="circle1915" class="cls-7" cx="33.54" cy="4.72" r="0.47"/></g><g id="g1923"><circle id="circle1919" class="cls-6" cx="38.54" cy="1.84" r="1.72"/><path d="M38.54,3.69a1.85,1.85,0,1,1,1.85-1.85A1.85,1.85,0,0,1,38.54,3.69Zm0-3.45a1.61,1.61,0,1,0,1.6,1.6A1.6,1.6,0,0,0,38.54.24Z"/><circle id="circle1921" class="cls-7" cx="37.95" cy="1.32" r="0.47"/></g><g id="g1929"><circle id="circle1925" class="cls-6" cx="37.77" cy="5.25" r="1.72"/><path d="M37.77,7.09a1.85,1.85,0,1,1,1.85-1.84A1.84,1.84,0,0,1,37.77,7.09Zm0-3.44a1.6,1.6,0,1,0,1.6,1.6A1.6,1.6,0,0,0,37.77,3.65Z"/><circle id="circle1927" class="cls-7" cx="37.18" cy="4.72" r="0.47"/></g></g><g id="g1893"><path id="path1685" class="cls-4" d="M38.22,10.41H11.78v-3H38.22Z"/><path d="M38.22,10.53H11.78a.12.12,0,0,1-.12-.12v-3a.12.12,0,0,1,.12-.12H38.22a.12.12,0,0,1,.12.12v3A.12.12,0,0,1,38.22,10.53ZM11.9,10.29H38.1V7.5H11.9Z"/><path id="rect1680" class="cls-4" d="M11.24,7H38.76a.2.2,0,0,1,.2.2V7.6a.2.2,0,0,1-.2.2H11.24a.2.2,0,0,1-.2-.2V7.17A.2.2,0,0,1,11.24,7Z"/><path d="M38.76,7.92H11.24a.32.32,0,0,1-.32-.32V7.17a.32.32,0,0,1,.32-.32H38.76a.32.32,0,0,1,.32.32V7.6A.32.32,0,0,1,38.76,7.92ZM11.24,7.1a.08.08,0,0,0-.08.07V7.6a.08.08,0,0,0,.08.07H38.76a.08.08,0,0,0,.08-.07V7.17a.08.08,0,0,0-.08-.07Z"/><path id="path1683" class="cls-4" d="M11.24,10H38.76a.2.2,0,0,1,.2.21v.42a.2.2,0,0,1-.2.2H11.24a.2.2,0,0,1-.2-.2v-.42A.2.2,0,0,1,11.24,10Z"/><path d="M38.76,10.93H11.24a.32.32,0,0,1-.32-.32v-.42a.32.32,0,0,1,.32-.33H38.76a.32.32,0,0,1,.32.33v.42A.32.32,0,0,1,38.76,10.93Zm-27.52-.82a.08.08,0,0,0-.08.08v.42a.08.08,0,0,0,.08.07H38.76a.08.08,0,0,0,.08-.07v-.42a.08.08,0,0,0-.08-.08Z"/><path id="rect1687" class="cls-8" d="M22.33,8.89,25,8.06l2.67.83L25,9.72Z"/><path d="M25,9.81l-3-.92L25,8l3,.92Zm-2.36-.92L25,9.62l2.36-.73L25,8.16Z"/><path id="rect1689" class="cls-2" d="M25,8.18l-.06.65-2.14.06L24.94,9,25,9.6,25.06,9l2.14-.06-2.14-.06Z"/><path id="rect1700" class="cls-8" d="M11.75,8.06l-.51.83.51.83,2.68-.83Z"/><path d="M11.71,9.83l-.58-.94L11.71,8l3,.93Zm-.36-.94.45.72,2.32-.72L11.8,8.17Z"/><path id="path1702" class="cls-2" d="M11.34,8.89l.41.06L14,8.89l-2.2-.06Z"/><path id="path1711" class="cls-8" d="M38.25,8.06l.51.83-.51.83-2.68-.83Z"/><path d="M38.29,9.83l-3-.94,3-.93.58.93Zm-2.41-.94,2.32.72.45-.72-.45-.72Z"/><path id="path1713" class="cls-2" d="M38.66,8.89,38.25,9l-2.2-.06,2.2-.06Z"/><path id="rect1687-7" class="cls-1" d="M16.89,8.87c0-.65,1-.69,1.53-.69s1.52,0,1.52.69-1,.68-1.52.68S16.89,9.51,16.89,8.87Z"/><path d="M18.42,9.64c-.45,0-1.62,0-1.62-.77s1.17-.78,1.62-.78,1.61,0,1.61.78S18.86,9.64,18.42,9.64Zm0-1.36c-.62,0-1.44.06-1.44.59s.82.59,1.44.59,1.43-.06,1.43-.59S19,8.28,18.42,8.28Z"/><circle id="path1741" class="cls-7" cx="17.62" cy="8.72" r="0.31"/><path id="path1747" class="cls-1" d="M30.06,8.87c0-.65,1-.69,1.52-.69s1.53,0,1.53.69-1,.68-1.53.68S30.06,9.51,30.06,8.87Z"/><path d="M31.58,9.64c-.44,0-1.61,0-1.61-.77s1.17-.78,1.61-.78,1.62,0,1.62.78S32,9.64,31.58,9.64Zm0-1.36c-.61,0-1.43.06-1.43.59s.82.59,1.43.59S33,9.4,33,8.87,32.2,8.28,31.58,8.28Z"/><circle id="circle1749" class="cls-7" cx="30.79" cy="8.72" r="0.31"/><g id="g1772"><circle id="path1741-9" class="cls-6" cx="21.06" cy="8.43" r="0.31"/><path d="M21.06,8.82a.39.39,0,1,1,.39-.39A.39.39,0,0,1,21.06,8.82Zm0-.63a.23.23,0,0,0-.23.24.23.23,0,0,0,.23.23.23.23,0,0,0,.24-.23A.24.24,0,0,0,21.06,8.19Z"/><circle id="circle1768" class="cls-6" cx="21.06" cy="9.35" r="0.31"/><path d="M21.06,9.74a.38.38,0,0,1-.38-.39.39.39,0,1,1,.77,0A.38.38,0,0,1,21.06,9.74Zm0-.62a.23.23,0,0,0-.23.23.23.23,0,0,0,.23.24.24.24,0,0,0,.24-.24A.23.23,0,0,0,21.06,9.12Z"/></g><g id="g1778"><circle id="circle1774" class="cls-6" cx="15.77" cy="8.43" r="0.31"/><path d="M15.77,8.82a.39.39,0,1,1,.38-.39A.39.39,0,0,1,15.77,8.82Zm0-.63a.24.24,0,0,0-.24.24.23.23,0,0,0,.24.23A.23.23,0,0,0,16,8.43.23.23,0,0,0,15.77,8.19Z"/><circle id="circle1776" class="cls-6" cx="15.77" cy="9.35" r="0.31"/><path d="M15.77,9.74a.38.38,0,0,1-.39-.39.39.39,0,1,1,.77,0A.38.38,0,0,1,15.77,9.74Zm0-.62a.23.23,0,0,0-.24.23.24.24,0,0,0,.24.24A.23.23,0,0,0,16,9.35.23.23,0,0,0,15.77,9.12Z"/></g><g id="g1784"><circle id="circle1780" class="cls-6" cx="34.23" cy="8.43" r="0.31"/><path d="M34.23,8.82a.39.39,0,1,1,.39-.39A.39.39,0,0,1,34.23,8.82Zm0-.63a.23.23,0,0,0-.23.24.23.23,0,0,0,.23.23.23.23,0,0,0,.24-.23A.24.24,0,0,0,34.23,8.19Z"/><circle id="circle1782" class="cls-6" cx="34.23" cy="9.35" r="0.31"/><path d="M34.23,9.74a.38.38,0,0,1-.38-.39.39.39,0,1,1,.77,0A.38.38,0,0,1,34.23,9.74Zm0-.62a.23.23,0,0,0-.23.23.23.23,0,0,0,.23.24.24.24,0,0,0,.24-.24A.23.23,0,0,0,34.23,9.12Z"/></g><g id="g1790"><circle id="circle1786" class="cls-6" cx="28.94" cy="8.43" r="0.31"/><path d="M28.94,8.82a.39.39,0,1,1,.38-.39A.39.39,0,0,1,28.94,8.82Zm0-.63a.24.24,0,0,0-.24.24.23.23,0,0,0,.24.23.23.23,0,0,0,.23-.23A.23.23,0,0,0,28.94,8.19Z"/><circle id="circle1788" class="cls-6" cx="28.94" cy="9.35" r="0.31"/><path d="M28.94,9.74a.38.38,0,0,1-.39-.39.39.39,0,1,1,.77,0A.38.38,0,0,1,28.94,9.74Zm0-.62a.23.23,0,0,0-.24.23.24.24,0,0,0,.24.24.23.23,0,0,0,.23-.24A.23.23,0,0,0,28.94,9.12Z"/></g></g></g></g></svg>