<svg id="Слой_1" data-name="Слой 1" xmlns="http://www.w3.org/2000/svg" viewBox="0 0 428.38 428.37"><defs><style>.cls-1{fill:#374dff;}</style></defs><path class="cls-1" d="M517.24,497.73A8.54,8.54,0,0,0,507,503.64a26.81,26.81,0,0,1-44.84,12,8.37,8.37,0,0,0-11.83,11.83,43.68,43.68,0,0,0,30.84,12.74,43,43,0,0,0,11.21-1.48,43.56,43.56,0,0,0,27.1-21.65,42.76,42.76,0,0,0,3.68-9.13A8.35,8.35,0,0,0,517.24,497.73Z" transform="translate(-325.81 -325.81)"/><path class="cls-1" d="M751.74,549.65c-26.73-26.72-76-46.86-110-56a336.75,336.75,0,0,0-64.28-10.59c6-45.8,2.28-101.25-9.9-146.71a8.85,8.85,0,0,0-5.91-5.92c-11.48-3.08-25.44-4.64-41.5-4.64a299.44,299.44,0,0,0-35.94,2.45A339.33,339.33,0,0,0,438.31,337c-34.07,9.13-83.33,29.27-110,56a8.38,8.38,0,0,0-2.16,8.08c11.87,44.3,35.26,92.56,62.59,129.11,23,30.73,59.13,67.34,101,67.35h0a69.37,69.37,0,0,0,10.08-.75c.23,35.76,5.26,67.87,14.71,93.38,12.41,33.53,32.48,54.86,58,61.71a69,69,0,0,0,17.8,2.34h0c18.94,0,36.69-7.53,52.6-18.59,19.26-13.38,35.82-31.93,48.39-48.76,5.49-7.33,10.76-15.25,15.87-23.41,20.33-32.46,37.23-70.29,46.72-105.7A8.35,8.35,0,0,0,751.74,549.65ZM505.63,578.26l-.08,0c-.79.26-1.59.5-2.39.72a52.32,52.32,0,0,1-13.47,1.77h0c-27.25,0-58.36-21.54-87.59-60.64-25.14-33.62-46.8-77.62-58.51-118.64,20.85-18.73,59.79-37.83,99.06-48.35,4.43-1.19,9-2.17,13.63-3.17,21.42-4.69,44-7.43,63.83-7.43a158.54,158.54,0,0,1,32.5,2.94c11.25,44.95,14,99,7.21,142.46-.07.5-.16,1-.24,1.51,0,.06,0,.11,0,.17-2.38,14.55-7.08,34.65-16,52.29C535.13,558.35,523.08,572.65,505.63,578.26Zm172.28,98.56c-14.2,19-28.85,33.82-43.28,44.06-15.27,10.85-30.3,16.57-44.31,16.57a51.91,51.91,0,0,1-13.48-1.77c-45-12.06-60.64-81-60.36-143.61l.28-.12c.77-.33,1.53-.67,2.28-1l.65-.31c.78-.38,1.56-.77,2.33-1.18l.35-.19a71.28,71.28,0,0,0,8.51-5.4,43.52,43.52,0,0,0,71-6.27,8.37,8.37,0,0,0-14.49-8.37,26.79,26.79,0,0,1-44.19,3.26c1.18-1.34,2.35-2.72,3.48-4.16l.06-.08c.58-.74,1.16-1.5,1.72-2.27l.57-.76c.53-.73,1.05-1.48,1.56-2.22l.63-.94c.51-.75,1-1.52,1.5-2.29.2-.3.38-.61.57-.91.36-.58.73-1.15,1.08-1.73,9.17-15.33,16-34.62,20.38-57.42a319.59,319.59,0,0,1,59.58,9.42c1,.26,2,.46,3,.73,39.27,10.52,78.21,29.62,99.06,48.35C724.7,599.2,703,643.21,677.91,676.82Z" transform="translate(-325.81 -325.81)"/><path class="cls-1" d="M453.29,466.94a8.37,8.37,0,0,0,3.06-11.43,43.55,43.55,0,0,0-75.41,0,8.37,8.37,0,0,0,14.5,8.37,26.8,26.8,0,0,1,46.42,0,8.36,8.36,0,0,0,7.26,4.19,8.26,8.26,0,0,0,4.17-1.13Zm0,0" transform="translate(-325.81 -325.81)"/><path class="cls-1" d="M491.76,455.25a8.37,8.37,0,0,0,8.37-8.37,26.81,26.81,0,0,1,40.21-23.21,8.36,8.36,0,0,0,8.36-14.49,43.54,43.54,0,0,0-65.31,37.7,8.37,8.37,0,0,0,8.37,8.37Zm0,0" transform="translate(-325.81 -325.81)"/><path class="cls-1" d="M634.22,586.23a43.57,43.57,0,0,0,65.31,37.71,8.37,8.37,0,0,0-8.37-14.5A26.81,26.81,0,0,1,651,586.23a8.37,8.37,0,0,0-16.73,0Zm0,0" transform="translate(-325.81 -325.81)"/><path class="cls-1" d="M596.51,662.28a43.66,43.66,0,0,0-42,11.27,8.37,8.37,0,1,0,11.83,11.84,26.8,26.8,0,0,1,44.84,12,8.38,8.38,0,0,0,8.08,6.21,8.64,8.64,0,0,0,2.17-.29,8.36,8.36,0,0,0,5.91-10.25,43.65,43.65,0,0,0-30.78-30.79Zm0,0" transform="translate(-325.81 -325.81)"/></svg>