<?xml version="1.0" encoding="utf-8"?>
<!-- Generator: Adobe Illustrator 24.1.2, SVG Export Plug-In . SVG Version: 6.00 Build 0)  -->
<svg version="1.1" id="Capa_1" xmlns="http://www.w3.org/2000/svg" xmlns:xlink="http://www.w3.org/1999/xlink" x="0px" y="0px"
	 viewBox="0 0 512 512" style="enable-background:new 0 0 512 512;" xml:space="preserve">
<style type="text/css">
	.st0{fill:#374DFF;}
</style>
<g>
	<path class="st0" d="M345.7,56.1L166.5,26.4l-0.8-0.1L-4.5,60v429.8l170.8-33.9l179.2,29.9l0.8,0.1L516.5,452V22.2L345.7,56.1z
		 M365.5,338.5l7.1,23.9l4.3-1.3c23.5-6.9,44.2-21.7,58.3-41.6l2.6-3.7l-31.7-22.6l-2.6,3.7c-9.2,12.9-22.6,22.4-37.6,26.8l-0.3,0.1
		V92l112-22.2V420l-112,22.2V338.5z M270.9,335.8l3.4,2.9c14.9,12.9,32.9,21.5,52.3,24.9V443l-141-23.5V69l141,23.5v231.3
		c-9.8-2.8-18.7-7.6-26.6-14.5l-3.4-3L270.9,335.8z M146.5,148.3c-14.2,2.5-27.5,7.8-39.7,15.7l-3.8,2.4l21.1,32.8l3.8-2.4
		c5.7-3.7,12-6.5,18.6-8.4V420l-112,22.2V92l112.1-22.2V148.3z"/>
	<path class="st0" d="M263.3,205.8c-11.2-21.8-29.6-39.3-51.8-49.4l-4.1-1.9L191.1,190l4.1,1.9c14.3,6.6,26.2,17.9,33.4,31.9l2.1,4
		l34.7-17.9L263.3,205.8z"/>
	<path class="st0" d="M95.5,256c0-16,5.2-31.1,15-43.6l2.8-3.5l-30.7-24.2l-2.8,3.6c-15.3,19.6-23.4,43-23.4,67.8v4.5h39V256z"/>
	<path class="st0" d="M416.5,256c0,6.8-0.9,13.5-2.8,19.8l-1.3,4.3l37.4,10.9l1.3-4.3c2.9-9.9,4.4-20.2,4.4-30.8v-34.5h-39V256z"/>
	<path class="st0" d="M275.5,256c0-5-0.4-10.2-1.1-15.5l-0.6-4.4l-38.6,5.5l0.6,4.5c0.5,3.5,0.8,6.9,0.8,10.1
		c0,19.2,5.1,38.1,14.7,54.8l2.3,3.9l33.8-19.5l-2.3-3.9C278.8,280.6,275.5,268.4,275.5,256z"/>
</g>
</svg>
