<svg id="Слой_1" data-name="Слой 1" xmlns="http://www.w3.org/2000/svg" viewBox="0 0 704.43 708.1"><defs><style>.cls-1{fill:none;}.cls-2{fill:#374dff;}</style></defs><path class="cls-1" d="M930.37,391.71l-15.44,30.9a10.52,10.52,0,0,1-18.81-9.43l50.49-101a10.61,10.61,0,0,1,1.09-1.69V260.58a27.68,27.68,0,0,1,27.64-27.64H1146v-19a6.68,6.68,0,0,0-6.68-6.68H635.44a6.69,6.69,0,0,0-6.68,6.68V529.82H947.7V390.55H932.26A2.12,2.12,0,0,0,930.37,391.71Zm-201.53,36.7H703.57a10.53,10.53,0,0,1-10.52-10.52V329.54a2.1,2.1,0,0,0-2.1-2.1,10.52,10.52,0,0,1,0-21h12.62a10.53,10.53,0,0,1,10.52,10.52v88.35a2.1,2.1,0,0,0,2.1,2.11h3.87a2.12,2.12,0,0,0,2-1.37l34.81-92.8a10.54,10.54,0,0,1,13.56-6.15,10.54,10.54,0,0,1,6.15,13.56l-37.87,101A10.56,10.56,0,0,1,728.84,428.41Zm50.46,0a10.52,10.52,0,0,1-10.51-10.52,10.33,10.33,0,0,1,.31-2.54l25.25-101a10.52,10.52,0,0,1,20.39,5.14L789.5,420.44A10.5,10.5,0,0,1,779.3,428.41Zm68.7-87c1.36,5.47,9.4,10.88,16.25,15,21.08,12.57,30,27,26,41.88a40.32,40.32,0,0,1-19.79,24.82,47.17,47.17,0,0,1-21.69,5.31h-.69a83.28,83.28,0,0,1-26.68-4.92,10.53,10.53,0,0,1,2.9-20.64,10.38,10.38,0,0,1,3,.45c.25.07.5.16.75.25a41.89,41.89,0,0,0,17.53,3.79,42.33,42.33,0,0,0,14.69-2.62,1.11,1.11,0,0,0,.27-.12,19.18,19.18,0,0,0,9.36-11.77c1.24-4.48-5-11.45-16.3-18.17a51,51,0,0,1-26.06-28.16,30.18,30.18,0,0,1,4.39-23.36c8.64-14,24.67-16.91,36.61-16.91a82.79,82.79,0,0,1,19.38,2.33A10.52,10.52,0,0,1,885,329.17a10.25,10.25,0,0,1-2.27-.25,61.84,61.84,0,0,0-14-1.58c-6.69,0-15.39,1.17-18.86,6.77C847.59,337.88,847.71,340.09,848,341.43Z" transform="translate(-607.79 -186.25)"/><path class="cls-1" d="M671.14,819h12.5c2.27-45,18.75-72.91,29.5-86.53a58.45,58.45,0,0,1,36.5-104.12c55.2,0,79.42,69.76,36.51,104.12,10.74,13.61,27.23,41.55,29.5,86.53h12.5V605.15h-157Z" transform="translate(-607.79 -186.25)"/><path class="cls-1" d="M943,366.46a2.11,2.11,0,0,0,1.88,3.05h2.82V357.06Z" transform="translate(-607.79 -186.25)"/><path class="cls-1" d="M731.93,742.57C724,751.52,707,775.64,704.63,819h90c-2.42-43.28-19.49-67.49-27.33-76.44A58.59,58.59,0,0,1,731.93,742.57Z" transform="translate(-607.79 -186.25)"/><path class="cls-1" d="M787.15,686.83a37.51,37.51,0,1,0-55,33.18C756.91,733.14,787.15,715.09,787.15,686.83Z" transform="translate(-607.79 -186.25)"/><path class="cls-1" d="M947.7,764.42V550.78H628.76V866.7a6.69,6.69,0,0,0,6.68,6.68h503.83a6.68,6.68,0,0,0,6.68-6.68V792.06H975.34A27.67,27.67,0,0,1,947.7,764.42ZM882.35,584.19h32.5a10.48,10.48,0,1,1,0,21h-32.5a10.48,10.48,0,0,1,0-21Zm0,58.71h32.5a10.48,10.48,0,0,1,0,21h-32.5a10.48,10.48,0,0,1,0-21Zm0,58.7h32.5a10.48,10.48,0,1,1,0,21h-32.5a10.48,10.48,0,0,1,0-21ZM849.12,821A19,19,0,0,1,830.18,840H669.11A19,19,0,0,1,650.17,821V603.13a19,19,0,0,1,18.94-18.94H830.18a19,19,0,0,1,18.94,18.94Zm192.57-2h64.65a10.49,10.49,0,0,1,0,21h-64.65a10.49,10.49,0,0,1,0-21Zm-31.44,10.48A10.49,10.49,0,0,1,999.76,840H882.35a10.49,10.49,0,0,1,0-21H999.76A10.49,10.49,0,0,1,1010.25,829.49Z" transform="translate(-607.79 -186.25)"/><path class="cls-2" d="M1155.49,329.09c-107-21-199.07,91.11-148.67,194.84,37.14,76.35,132.12,99.17,199.24,54.37C1307.63,511.57,1277.16,351.58,1155.49,329.09Zm-62.26,26.09a149.06,149.06,0,0,0-22.49,30.3,123.68,123.68,0,0,1-14.45-9.09A108.64,108.64,0,0,1,1093.23,355.18Zm-52.63,37.38a147.36,147.36,0,0,0,20.56,13.15,161,161,0,0,0-10.52,47.1h-35A113.47,113.47,0,0,1,1040.6,392.56Zm-24.9,82.61h34.93A161,161,0,0,0,1061,522a147.9,147.9,0,0,0-20.67,13.29A116.83,116.83,0,0,1,1015.7,475.17Zm40.24,76.3a124.61,124.61,0,0,1,14.53-9.19,147.43,147.43,0,0,0,22.43,30.19A114.57,114.57,0,0,1,1055.94,551.47ZM1119,566.21a122.59,122.59,0,0,1-27.89-32.84,125.27,125.27,0,0,1,27.89-5.71Zm0-61a147.82,147.82,0,0,0-37.56,7.83,138.69,138.69,0,0,1-8.41-37.9h46Zm0-52.43h-46a138.84,138.84,0,0,1,8.61-38.19,147.6,147.6,0,0,0,37.36,7.76Zm0-52.85a125.25,125.25,0,0,1-27.64-5.63A123,123,0,0,1,1119,361.7Zm85.28-23.69a126.62,126.62,0,0,1-14.23,9,144.51,144.51,0,0,0-22.2-29.68A111.77,111.77,0,0,1,1204.3,376.27Zm-62.91-14.64a120.81,120.81,0,0,1,28,32.59,124.85,124.85,0,0,1-28,5.74Zm0,60.75a147.85,147.85,0,0,0,37.66-7.86,138.41,138.41,0,0,1,8.28,38.28h-45.94Zm0,52.79h45.91a139.6,139.6,0,0,1-8.2,37.95,147.74,147.74,0,0,0-37.71-7.88Zm0,91.12V527.66a126,126,0,0,1,28.1,5.78A120.5,120.5,0,0,1,1141.39,566.29Zm26.38,6.15a143.92,143.92,0,0,0,22.39-30,123.48,123.48,0,0,1,14.33,9.08A113.11,113.11,0,0,1,1167.77,572.44Zm52.54-37a148.28,148.28,0,0,0-20.68-13.33,162.43,162.43,0,0,0,10.08-46.94h34.66A112.55,112.55,0,0,1,1220.31,535.44Zm-10.58-82.63a160.54,160.54,0,0,0-10.15-47.27,148.89,148.89,0,0,0,20.54-13.22,114.07,114.07,0,0,1,24.17,60.49Z" transform="translate(-607.79 -186.25)"/><path class="cls-2" d="M830.18,584.19H669.11a19,19,0,0,0-18.94,18.94V821A19,19,0,0,0,669.11,840H830.18A19,19,0,0,0,849.12,821V603.13A19,19,0,0,0,830.18,584.19ZM704.63,819c2.41-43.37,19.41-67.49,27.3-76.44a58.59,58.59,0,0,0,35.4,0c7.84,8.95,24.91,33.16,27.33,76.44Zm7.5-132.18a37.51,37.51,0,0,1,75,0c0,28.26-30.24,46.31-55,33.18A37.56,37.56,0,0,1,712.13,686.83ZM828.15,819h-12.5c-2.27-45-18.76-72.92-29.5-86.53,42.91-34.36,18.69-104.12-36.51-104.12a58.45,58.45,0,0,0-36.5,104.12C702.39,746.1,685.91,774,683.64,819h-12.5V605.15h157Z" transform="translate(-607.79 -186.25)"/><path class="cls-2" d="M882.35,605.15h32.5a10.48,10.48,0,1,0,0-21h-32.5a10.48,10.48,0,0,0,0,21Z" transform="translate(-607.79 -186.25)"/><path class="cls-2" d="M882.35,663.86h32.5a10.48,10.48,0,0,0,0-21h-32.5a10.48,10.48,0,0,0,0,21Z" transform="translate(-607.79 -186.25)"/><path class="cls-2" d="M882.35,722.56h32.5a10.48,10.48,0,1,0,0-21h-32.5a10.48,10.48,0,0,0,0,21Z" transform="translate(-607.79 -186.25)"/><path class="cls-2" d="M871.87,829.49A10.49,10.49,0,0,0,882.35,840H999.76a10.49,10.49,0,1,0,0-21H882.35A10.48,10.48,0,0,0,871.87,829.49Z" transform="translate(-607.79 -186.25)"/><path class="cls-2" d="M1041.69,840h64.65a10.49,10.49,0,0,0,0-21h-64.65a10.49,10.49,0,0,0,0,21Z" transform="translate(-607.79 -186.25)"/><path class="cls-2" d="M776.28,312.57a10.5,10.5,0,0,0-9.58-6.18,10.57,10.57,0,0,0-9.86,6.82L722,406a2.12,2.12,0,0,1-2,1.37h-3.87a2.1,2.1,0,0,1-2.1-2.11V316.92a10.53,10.53,0,0,0-10.52-10.52H691a10.52,10.52,0,0,0,0,21,2.1,2.1,0,0,1,2.1,2.1v88.35a10.53,10.53,0,0,0,10.52,10.52h25.27a10.56,10.56,0,0,0,9.84-6.81l37.87-101A10.46,10.46,0,0,0,776.28,312.57Z" transform="translate(-607.79 -186.25)"/><path class="cls-2" d="M807.26,307.06a10.49,10.49,0,0,0-12.91,7.31l-25.25,101a10.33,10.33,0,0,0-.31,2.54,10.51,10.51,0,0,0,20.71,2.55l25.24-100.93A10.51,10.51,0,0,0,807.26,307.06Z" transform="translate(-607.79 -186.25)"/><path class="cls-2" d="M868.75,327.34a61.84,61.84,0,0,1,14,1.58,10.25,10.25,0,0,0,2.27.25,10.52,10.52,0,0,0,2.94-20.61,82.79,82.79,0,0,0-19.38-2.33c-11.94,0-28,2.92-36.61,16.91a30.18,30.18,0,0,0-4.39,23.36,51,51,0,0,0,26.06,28.16c11.29,6.72,17.54,13.69,16.3,18.17a19.18,19.18,0,0,1-9.36,11.77,1.11,1.11,0,0,1-.27.12,42.33,42.33,0,0,1-14.69,2.62,41.89,41.89,0,0,1-17.53-3.79c-.25-.09-.5-.18-.75-.25a10.38,10.38,0,0,0-3-.45,10.53,10.53,0,0,0-2.9,20.64,83.28,83.28,0,0,0,26.68,4.92h.69a47.17,47.17,0,0,0,21.69-5.31,40.32,40.32,0,0,0,19.79-24.82c4-14.86-4.91-29.31-26-41.88-6.85-4.1-14.89-9.51-16.25-15-.29-1.34-.41-3.55,1.89-7.32C853.36,328.51,862.06,327.34,868.75,327.34Z" transform="translate(-607.79 -186.25)"/><path class="cls-2" d="M944.88,369.51a2.11,2.11,0,0,1-1.88-3.05l4.7-9.4V310.51a10.61,10.61,0,0,0-1.09,1.69l-50.49,101a10.55,10.55,0,0,0-1.11,4.71,10.52,10.52,0,0,0,19.92,4.72l15.44-30.9a2.12,2.12,0,0,1,1.89-1.16H947.7v-21Z" transform="translate(-607.79 -186.25)"/><path class="cls-2" d="M1284.58,232.94H1166.92v-19a27.68,27.68,0,0,0-27.65-27.65H635.44a27.69,27.69,0,0,0-27.65,27.65V866.7a27.69,27.69,0,0,0,27.65,27.65h503.83a27.68,27.68,0,0,0,27.65-27.65V792.06h117.66a27.67,27.67,0,0,0,27.65-27.64V260.58A27.68,27.68,0,0,0,1284.58,232.94ZM628.76,429.28V213.9a6.69,6.69,0,0,1,6.68-6.68h503.83a6.68,6.68,0,0,1,6.68,6.68v19H975.34a27.68,27.68,0,0,0-27.64,27.64V529.82H628.76ZM1146,866.7a6.68,6.68,0,0,1-6.68,6.68H635.44a6.69,6.69,0,0,1-6.68-6.68V550.78H947.7V764.42a27.67,27.67,0,0,0,27.64,27.64H1146Zm145.31-102.28a6.67,6.67,0,0,1-6.68,6.67H975.34a6.66,6.66,0,0,1-6.67-6.67V260.58a6.68,6.68,0,0,1,6.67-6.68h309.24a6.69,6.69,0,0,1,6.68,6.68Z" transform="translate(-607.79 -186.25)"/><path class="cls-2" d="M1025.37,671.08c0-5.32-1.46-9.32-4.33-11.89s-6.63-3.79-11.29-3.79H997.11a4.2,4.2,0,0,0-2.85,1A3.42,3.42,0,0,0,993,659v42.9a3.29,3.29,0,0,0,1.74,2.89,6.07,6.07,0,0,0,3.12.81,6,6,0,0,0,3.18-.83,3.31,3.31,0,0,0,1.69-2.87V687.35h6.6c4.74,0,8.62-1.28,11.53-3.81s4.48-6.6,4.48-11.94Zm-16,8h-6.6v-14.7h6.6A6.22,6.22,0,0,1,1014,666c1.06,1.11,1.6,2.89,1.6,5.3v.77c0,2.42-.54,4.21-1.61,5.34A6.11,6.11,0,0,1,1009.36,679.05Z" transform="translate(-607.79 -186.25)"/><path class="cls-2" d="M1047.52,658.11c-.79-2.06-2.81-3.1-6-3.1-4,0-5.42,1.78-6,3.34l-12.85,41.95a3.15,3.15,0,0,0-.15,1.05,3.75,3.75,0,0,0,2,3.23,6.94,6.94,0,0,0,3.66,1,3.55,3.55,0,0,0,3.77-2.47l2.35-8.23h13.78l2.41,8.33c.31.89,1.22,2.37,3.88,2.37a7.67,7.67,0,0,0,3.93-1.08,3.82,3.82,0,0,0,2.22-3.33,3.33,3.33,0,0,0-.2-1Zm-1.73,28.52h-9.06l4.48-15.66Z" transform="translate(-607.79 -186.25)"/><path class="cls-2" d="M1087.16,679.51a25.47,25.47,0,0,0-4.34-2.86,45.74,45.74,0,0,0-4.64-2.13c-1.45-.56-2.8-1.14-4-1.74a7.49,7.49,0,0,1-2.55-1.95,3.61,3.61,0,0,1-.84-2.43,3.55,3.55,0,0,1,1.57-3.27,9.12,9.12,0,0,1,5.1-1.23,12,12,0,0,1,3.79.54,16.22,16.22,0,0,1,2.71,1.14,5.19,5.19,0,0,0,2.45.8,3.76,3.76,0,0,0,3.28-1.91,6,6,0,0,0,1-3.22,4.13,4.13,0,0,0-1.79-3.31,10.27,10.27,0,0,0-3.61-1.72,28.63,28.63,0,0,0-13.44-.36,18.68,18.68,0,0,0-5.16,2.14,11,11,0,0,0-4.13,4.44,14,14,0,0,0-1.49,6.61,13,13,0,0,0,2.46,8,15.25,15.25,0,0,0,5.82,4.73c2,.94,4.13,1.85,6.25,2.71a14.88,14.88,0,0,1,4.8,3,5.49,5.49,0,0,1,1.73,4.18,4.78,4.78,0,0,1-1.69,4,8,8,0,0,1-5,1.45,9.92,9.92,0,0,1-3.89-.72,8,8,0,0,1-2.5-1.5c-.68-.66-1.37-1.29-2.06-1.87a4.22,4.22,0,0,0-2.64-1.16,4,4,0,0,0-3.22,1.81,5.53,5.53,0,0,0-1.19,3.31c0,2.3,1.64,4.45,4.88,6.38a20.8,20.8,0,0,0,10.87,2.7c4.78,0,8.7-1.3,11.66-3.86s4.54-6.4,4.54-11.28a17,17,0,0,0-1.28-6.77A12.77,12.77,0,0,0,1087.16,679.51Z" transform="translate(-607.79 -186.25)"/><path class="cls-2" d="M1120.34,679.52a24.55,24.55,0,0,0-4.34-2.87,45.74,45.74,0,0,0-4.64-2.13c-1.48-.57-2.82-1.15-4-1.74a7.59,7.59,0,0,1-2.55-1.94,3.62,3.62,0,0,1-.84-2.44,3.57,3.57,0,0,1,1.57-3.27,9.14,9.14,0,0,1,5.1-1.23,12.14,12.14,0,0,1,3.8.54,15.5,15.5,0,0,1,2.7,1.14,5.19,5.19,0,0,0,2.44.8,3.78,3.78,0,0,0,3.3-1.92,6.13,6.13,0,0,0,1-3.21,4.13,4.13,0,0,0-1.79-3.31,10.27,10.27,0,0,0-3.61-1.72,27.44,27.44,0,0,0-4-.78,26.45,26.45,0,0,0-9.44.42,18.43,18.43,0,0,0-5.16,2.14,11,11,0,0,0-4.13,4.44,14,14,0,0,0-1.49,6.61,12.9,12.9,0,0,0,2.46,8,15.25,15.25,0,0,0,5.82,4.73c2,1,4.15,1.86,6.26,2.71a15,15,0,0,1,4.79,3,5.53,5.53,0,0,1,1.73,4.18,4.8,4.8,0,0,1-1.69,4,8,8,0,0,1-5,1.45,9.9,9.9,0,0,1-3.88-.72,7.91,7.91,0,0,1-2.5-1.49c-.68-.67-1.37-1.3-2.07-1.88a4.2,4.2,0,0,0-2.63-1.16,3.92,3.92,0,0,0-3.22,1.81,5.53,5.53,0,0,0-1.19,3.31c0,2.31,1.64,4.45,4.87,6.38a20.83,20.83,0,0,0,10.88,2.7c4.78,0,8.7-1.3,11.65-3.86s4.55-6.4,4.55-11.28a17,17,0,0,0-1.28-6.77A12.6,12.6,0,0,0,1120.34,679.52Z" transform="translate(-607.79 -186.25)"/><path class="cls-2" d="M1145.38,655.4h-12.63a4.21,4.21,0,0,0-2.86,1,3.42,3.42,0,0,0-1.23,2.63v42.9a3.31,3.31,0,0,0,1.74,2.89,6.07,6.07,0,0,0,3.12.81,6,6,0,0,0,3.19-.83,3.32,3.32,0,0,0,1.68-2.87V687.35H1145c4.74,0,8.62-1.28,11.53-3.81s4.48-6.6,4.48-11.94v-.52c0-5.32-1.46-9.32-4.34-11.89S1150,655.4,1145.38,655.4Zm5.89,15.88v.77c0,2.42-.54,4.21-1.61,5.34a6.11,6.11,0,0,1-4.67,1.66h-6.6v-14.7h6.6a6.19,6.19,0,0,1,4.68,1.64C1150.73,667.09,1151.27,668.87,1151.27,671.28Z" transform="translate(-607.79 -186.25)"/><path class="cls-2" d="M1179.47,655.4c-4.75,0-8.62,1.3-11.52,3.86s-4.42,6.65-4.42,12v18.86c0,5.38,1.49,9.42,4.43,12s6.76,3.86,11.51,3.86,8.63-1.3,11.54-3.86,4.47-6.65,4.47-12V671.28c0-5.37-1.5-9.41-4.47-12S1184.21,655.4,1179.47,655.4Zm6.28,34.74c0,2.41-.54,4.19-1.61,5.29a6.15,6.15,0,0,1-4.67,1.64c-4.3,0-6.22-2.14-6.22-6.93V671.28c0-4.79,1.92-6.93,6.22-6.93a6.19,6.19,0,0,1,4.68,1.64c1.06,1.1,1.6,2.88,1.6,5.29Z" transform="translate(-607.79 -186.25)"/><path class="cls-2" d="M1224.51,683.68a12.83,12.83,0,0,0,5.72-4.13c1.84-2.33,2.77-5.53,2.77-9.5,0-6.68-2.83-14.65-16.34-14.65h-12.31a3.71,3.71,0,0,0-2.64,1.07,3.58,3.58,0,0,0-1,2.56v42.9a3.31,3.31,0,0,0,1.69,2.88,6.44,6.44,0,0,0,6.28,0,3.3,3.3,0,0,0,1.69-2.87V685.22h4.24l9.06,17.81c1.19,2.31,2.83,2.79,4,2.79a5.72,5.72,0,0,0,3.73-1.43,4.52,4.52,0,0,0,1.84-3.51,3.3,3.3,0,0,0-.42-1.64Zm-1.24-13c0,4.35-2,6.28-6.61,6.28h-6.34V664.35h6.34C1221.23,664.35,1223.27,666.29,1223.27,670.63Z" transform="translate(-607.79 -186.25)"/><path class="cls-2" d="M1266.41,657a3.34,3.34,0,0,0-2.89-1.57h-26.9a3.31,3.31,0,0,0-2.9,1.63,5.89,5.89,0,0,0,0,6,3.31,3.31,0,0,0,2.85,1.6h8.62v37.33a3.29,3.29,0,0,0,1.68,2.86,6.45,6.45,0,0,0,6.31,0,3.28,3.28,0,0,0,1.74-2.87V664.61h8.55a3.32,3.32,0,0,0,2.85-1.6,5.57,5.57,0,0,0,.84-3.1A5.42,5.42,0,0,0,1266.41,657Z" transform="translate(-607.79 -186.25)"/></svg>