<svg id="Слой_1" data-name="Слой 1" xmlns="http://www.w3.org/2000/svg" viewBox="0 0 294.31 171.69"><defs><style>.cls-1{fill:#374dff;}</style></defs><path class="cls-1" d="M637.07,552.61c-4.76-6-3.4-8.68,0-14.06.06-.06,39.34-54.34,43.39-72.74l0,0c2-6.7,0-11.63-9.72-11.63H638.58c-8.19,0-12,4.23-14,9,0,0-16.39,39.22-39.57,64.64-7.48,7.35-10.93,9.7-15,9.7-2,0-5.14-2.35-5.14-9.06V465.79c0-8-2.29-11.63-9.07-11.63h-50.6c-5.14,0-8.19,3.75-8.19,7.24,0,7.63,11.59,9.38,12.79,30.85v46.56c0,10.21-1.85,12.08-6,12.08-10.94,0-37.49-39.38-53.23-84.45-3.17-8.74-6.27-12.27-14.53-12.27H403.88c-9.19,0-11,4.23-11,9,0,8.37,10.94,50,50.87,104.89,26.62,37.5,64.09,57.82,98.18,57.82,20.5,0,23-4.51,23-12.27,0-35.84-1.86-39.22,8.41-39.22,4.76,0,13,2.35,32.08,20.44,21.87,21.45,25.46,31.05,37.7,31.05h32.18c9.17,0,13.82-4.51,11.15-13.41-6.12-18.73-47.48-57.25-49.34-59.82Zm0,0" transform="translate(-392.84 -454.16)"/></svg>