<svg id="Слой_1" data-name="Слой 1" xmlns="http://www.w3.org/2000/svg" viewBox="0 0 636.36 639.38"><defs><style>.cls-1{fill:#374dff;fill-rule:evenodd;}</style></defs><path class="cls-1" d="M543.6,92.92A314.73,314.73,0,0,0,319.49,0C144.85,0,2.73,142.12,2.66,316.8A316.11,316.11,0,0,0,45,475.2L0,639.38l168-44.06a316.59,316.59,0,0,0,151.41,38.56h.13c174.62,0,316.76-142.13,316.82-316.82A314.83,314.83,0,0,0,543.6,92.92ZM319.49,580.38h-.11a262.94,262.94,0,0,1-134-36.71L175.77,538,76.1,564.11l26.6-97.18-6.26-10A262.79,262.79,0,0,1,56.18,316.78c0-145.09,118.16-263.27,263.41-263.27C465.06,53.59,582.92,171.57,582.84,317h0c-.07,145.2-118.2,263.34-263.34,263.34ZM463.93,383.15c-7.91-4-46.84-23.11-54.09-25.76s-12.54-4-17.81,4-20.45,25.76-25.07,31-9.23,5.94-17.15,2-33.43-12.33-63.66-39.3c-23.54-21-39.42-46.91-44-54.83s0-11.8,3.47-16.16c8.57-10.64,17.15-21.8,19.79-27.08s1.32-9.91-.67-13.87-17.8-42.92-24.4-58.78c-6.43-15.43-13-13.35-17.81-13.59-4.61-.23-9.9-.27-15.17-.27s-13.86,2-21.12,9.91-27.7,27.07-27.7,66,28.3,76.63,32.3,81.92,55.82,85.24,135.23,119.53a455.32,455.32,0,0,0,45.13,16.68c19,6,36.22,5.17,49.86,3.14,15.21-2.28,46.83-19.16,53.44-37.65s6.59-34.34,4.61-37.64-7.26-5.28-15.17-9.25Z" transform="translate(0.05 0)"/></svg>