<?xml version="1.0" encoding="utf-8"?>
<!-- Generator: Adobe Illustrator 24.1.2, SVG Export Plug-In . SVG Version: 6.00 Build 0)  -->
<svg version="1.1" id="Слой_1" xmlns="http://www.w3.org/2000/svg" xmlns:xlink="http://www.w3.org/1999/xlink" x="0px" y="0px"
	 viewBox="0 0 636.3 639.4" style="enable-background:new 0 0 636.3 639.4;" xml:space="preserve">
<style type="text/css">
	.st0{fill-rule:evenodd;clip-rule:evenodd;fill:#FFFFFF;}
</style>
<path class="st0" d="M543.6,92.9C484.3,33.2,403.6-0.2,319.5,0C144.9,0,2.7,142.1,2.7,316.8C2.6,372.4,17.2,427,45,475.2L0,639.4
	l168-44.1c46.5,25.3,98.5,38.6,151.4,38.6h0.1c174.6,0,316.8-142.1,316.8-316.8C636.6,233,603.2,152.3,543.6,92.9L543.6,92.9z
	 M319.5,580.4h-0.1c-47.1,0-93.4-12.7-134-36.7l-9.6-5.7l-99.7,26.2l26.6-97.2l-6.3-10c-26.4-42-40.3-90.6-40.3-140.2
	c0-145.1,118.2-263.3,263.4-263.3C465.1,53.6,582.9,171.6,582.8,317l0,0C582.8,462.2,464.6,580.4,319.5,580.4L319.5,580.4z
	 M463.9,383.2c-7.9-4-46.8-23.1-54.1-25.8s-12.5-4-17.8,4s-20.5,25.8-25.1,31s-9.2,5.9-17.2,2s-33.4-12.3-63.7-39.3
	c-23.5-21-39.4-46.9-44-54.8s0-11.8,3.5-16.2c8.6-10.6,17.1-21.8,19.8-27.1s1.3-9.9-0.7-13.9s-17.8-42.9-24.4-58.8
	c-6.4-15.4-13-13.4-17.8-13.6c-4.6-0.2-9.9-0.3-15.2-0.3s-13.9,2-21.1,9.9s-27.7,27.1-27.7,66s28.3,76.6,32.3,81.9
	s55.8,85.2,135.2,119.5c14.7,6.4,29.8,11.9,45.1,16.7c19,6,36.2,5.2,49.9,3.1c15.2-2.3,46.8-19.2,53.4-37.7s6.6-34.3,4.6-37.6
	S471.8,387.1,463.9,383.2L463.9,383.2z"/>
</svg>
